<svg xmlns="http://www.w3.org/2000/svg" xmlns:xlink="http://www.w3.org/1999/xlink" viewBox="0 0 129.77 129.77"><defs><style>.cls-1{isolation:isolate;}.cls-11,.cls-12,.cls-13,.cls-14,.cls-15,.cls-2,.cls-3,.cls-5{mix-blend-mode:screen;}.cls-3{fill:url(#radial-gradient);}.cls-4,.cls-5{fill:url(#radial-gradient-2);}.cls-6{fill:url(#radial-gradient-4);}.cls-7{fill:url(#radial-gradient-5);}.cls-8{fill:url(#radial-gradient-6);}.cls-9{fill:url(#radial-gradient-7);}.cls-10{mix-blend-mode:multiply;opacity:0.25;fill:url(#radial-gradient-8);}.cls-11{opacity:0.34;fill:url(#radial-gradient-9);}.cls-12,.cls-14,.cls-15{opacity:0.45;}.cls-12{fill:url(#radial-gradient-10);}.cls-13{fill:url(#radial-gradient-11);}.cls-14{fill:url(#radial-gradient-12);}.cls-15{fill:url(#radial-gradient-13);}</style><radialGradient id="radial-gradient" cx="65.21" cy="64.89" r="63.83" gradientTransform="translate(64.89 -26.88) rotate(45)" gradientUnits="userSpaceOnUse"><stop offset="0.05" stop-color="#e0a326"/><stop offset="0.41" stop-color="#e0a227" stop-opacity="0.99"/><stop offset="0.55" stop-color="#df9e2b" stop-opacity="0.96"/><stop offset="0.64" stop-color="#de9833" stop-opacity="0.91"/><stop offset="0.71" stop-color="#dd8f3e" stop-opacity="0.83"/><stop offset="0.78" stop-color="#db844c" stop-opacity="0.73"/><stop offset="0.84" stop-color="#d8755d" stop-opacity="0.61"/><stop offset="0.89" stop-color="#d56471" stop-opacity="0.47"/><stop offset="0.93" stop-color="#d25089" stop-opacity="0.3"/><stop offset="0.98" stop-color="#ce3ba3" stop-opacity="0.12"/><stop offset="1" stop-color="#cc2db4" stop-opacity="0"/></radialGradient><radialGradient id="radial-gradient-2" cx="36.68" cy="-44.03" r="162.95" gradientTransform="translate(84.13 22.81) rotate(102.79)" gradientUnits="userSpaceOnUse"><stop offset="0.05" stop-color="#e0a326"/><stop offset="1" stop-color="#cc2db4"/></radialGradient><radialGradient id="radial-gradient-4" cx="23.11" cy="-28.65" r="85.68" gradientTransform="translate(74.2 19.56) rotate(89.83)" gradientUnits="userSpaceOnUse"><stop offset="0" stop-color="#f20074"/><stop offset="0.14" stop-color="#ed0376"/><stop offset="0.31" stop-color="#df0b7d"/><stop offset="0.49" stop-color="#c71887"/><stop offset="0.67" stop-color="#a62a96"/><stop offset="0.87" stop-color="#7b42a9"/><stop offset="0.9" stop-color="#7446ac"/></radialGradient><radialGradient id="radial-gradient-5" cx="23.11" cy="-28.65" r="85.74" xlink:href="#radial-gradient-4"/><radialGradient id="radial-gradient-6" cx="23.11" cy="-28.65" r="85.68" xlink:href="#radial-gradient-4"/><radialGradient id="radial-gradient-7" cx="23.11" cy="-28.65" r="85.68" xlink:href="#radial-gradient-4"/><radialGradient id="radial-gradient-8" cx="37.37" cy="-30.89" r="147.8" gradientTransform="translate(74.2 19.56) rotate(89.83)" xlink:href="#radial-gradient-2"/><radialGradient id="radial-gradient-9" cx="39.01" cy="-12.4" r="121.14" gradientTransform="translate(74.2 19.56) rotate(89.83)" xlink:href="#radial-gradient-2"/><radialGradient id="radial-gradient-10" cx="75.5" cy="60.67" r="48.26" gradientTransform="matrix(1, 0, 0, 1, 0, 0)" xlink:href="#radial-gradient-2"/><radialGradient id="radial-gradient-11" cx="33.48" cy="-37.28" r="104.31" gradientTransform="translate(74.2 19.56) rotate(89.83)" xlink:href="#radial-gradient-2"/><radialGradient id="radial-gradient-12" cx="86.53" cy="33.63" r="10.46" gradientTransform="matrix(1, 0, 0, 1, 0, 0)" xlink:href="#radial-gradient-2"/><radialGradient id="radial-gradient-13" cx="103.04" cy="51.4" r="6.15" gradientTransform="matrix(1, 0, 0, 1, 0, 0)" xlink:href="#radial-gradient-2"/></defs><g class="cls-1"><g id="Layer_2" data-name="Layer 2"><g id="Capa_1" data-name="Capa 1"><g class="cls-2"><circle class="cls-3" cx="64.89" cy="64.89" r="64.89" transform="translate(-26.88 64.89) rotate(-45)"/><circle class="cls-4" cx="64.89" cy="64.89" r="55.57" transform="translate(-12.9 16.21) rotate(-12.96)"/><circle class="cls-5" cx="64.89" cy="64.89" r="55.57" transform="translate(-12.9 16.21) rotate(-12.96)"/><path class="cls-6" d="M43.61,88.46a4,4,0,0,0,2.49.76c1.71-.23,2.5-2.29,2.52-4,0-4.09-2.22-7.85-4.69-11.12s-5.29-6.4-6.69-10.25-1-8.75,2.25-11.27c3.39-2.65,8.37-1.78,12.27-3.59a2.92,2.92,0,0,0,1.35-1c.75-1.2-.1-2.71-.89-3.86-4.53-6.58-8.3-13.92-9.2-21.85a28.52,28.52,0,0,1,.3-8.55A55.76,55.76,0,0,0,18.1,34.93a10.44,10.44,0,0,1,1.84.61c6.3,2.94,7.37,11.25,7.91,18.19.52,6.59,1.36,13.24,3.71,19.43S37.92,85.09,43.61,88.46Z"/><path class="cls-7" d="M58.37,120.06c-.11-3.75-.39-7.43-2.4-10.5-3.33-5.12-10.33-6.55-16.39-5.73-1.58.22-3.27.54-4.72-.12a6.84,6.84,0,0,1-2.23-1.89c-6.06-7-9.26-16-13.93-24-2-3.51-5.12-7.21-9.09-7.22A55.58,55.58,0,0,0,58.37,120.06Z"/><path class="cls-8" d="M64.72,9.32l-1,0a11,11,0,0,0-1.59,3c-.83,2.45-.88,5.27-2.53,7.26-.89,1.09-2.18,1.8-3.09,2.88-2.26,2.68-1.51,7,.7,9.68s5.51,4.29,8.67,5.82,6.42,3.22,8.45,6.09a10.87,10.87,0,0,1,1.75,8.29c-.5,2.52-1.91,4.95-1.57,7.5.44,3.32,3.9,5.62,7.24,5.73s6.52-1.51,9.26-3.44a18.5,18.5,0,0,1,4.23-2.56c4.2-1.51,8.8,1,12,4.08s5.89,6.91,9.82,9a8,8,0,0,0,2.64.9,56.22,56.22,0,0,0,.68-8.85A55.56,55.56,0,0,0,64.72,9.32Z"/><path class="cls-9" d="M106.67,87.68c-3.33,1-6.22,3.1-9.36,4.61s-6.91,2.41-10.07.94c-3.86-1.8-5.4-6.35-7.19-10.22a41.08,41.08,0,0,0-6.21-9.63C71.06,70.17,67.15,67.2,63,67.93c-4.38.77-7.07,5.27-8.2,9.57-.7,2.71-1,5.69.22,8.21,2.3,4.77,9,6.08,11.35,10.84,1.86,3.83.19,8.33-.14,12.57a20.76,20.76,0,0,0,2.44,11.19,55.58,55.58,0,0,0,46.89-32.56A15.45,15.45,0,0,0,106.67,87.68Z"/><path class="cls-10" d="M107.17,100.8a55.55,55.55,0,0,1-55.78-90,55.57,55.57,0,1,0,55.78,90.05Z"/><path class="cls-11" d="M88.29,110.8a51.7,51.7,0,0,1-41.1-94.6,51.7,51.7,0,1,0,41.1,94.6Z"/><path class="cls-12" d="M59.8,12.79A55.56,55.56,0,0,1,94.3,112,55.56,55.56,0,1,0,30.56,21.21,55.29,55.29,0,0,1,59.8,12.79Z"/><path class="cls-13" d="M53.56,17.56c6.59-1.68,16.59.89,21.39,2.2a52.92,52.92,0,0,1,28.57,19c18.51,24.66,5.15,53.17-3.07,60.75s-17.13-1.28-17-14.94.35-27.1-6.61-34.89S52.36,42.59,48.64,32.19c-1.23-3.44-2.42-8.42,0-11.67A8.49,8.49,0,0,1,53.56,17.56Z"/><path class="cls-14" d="M96.23,42.11c-2.64,3-9.12,1.67-14.48-3s-7.56-10.93-4.92-14,9.12-1.66,14.48,3S98.87,39.1,96.23,42.11Z"/><path class="cls-15" d="M106.6,58.09c-2.08,1.11-5.36-1-7.33-4.68s-1.87-7.59.21-8.7,5.36,1,7.33,4.68S108.68,57,106.6,58.09Z"/></g></g></g></g></svg>