<svg xmlns="http://www.w3.org/2000/svg" xmlns:xlink="http://www.w3.org/1999/xlink" viewBox="0 0 1050.8 1050.79"><defs><style>.cls-1{isolation:isolate;}.cls-2,.cls-3{mix-blend-mode:screen;}.cls-2{fill:url(#Áåçûìÿííûé_ãðàäèåíò_227);}.cls-3{fill:url(#Áåçûìÿííûé_ãðàäèåíò_227-2);}.cls-4{fill:url(#Áåçûìÿííûé_ãðàäèåíò_239);}.cls-5{fill:#1b0028;}.cls-5,.cls-6{mix-blend-mode:multiply;opacity:0.2;}.cls-6{fill:#564961;}.cls-11,.cls-7,.cls-9{mix-blend-mode:soft-light;}.cls-11,.cls-7{opacity:0.5;}.cls-11,.cls-8{fill:#87ddf4;}.cls-10{fill:#9ee1f7;}.cls-12{fill:url(#Áåçûìÿííûé_ãðàäèåíò_207);}.cls-13{fill:url(#Áåçûìÿííûé_ãðàäèåíò_207-2);}.cls-14{fill:url(#Áåçûìÿííûé_ãðàäèåíò_207-3);}.cls-15{fill:url(#Áåçûìÿííûé_ãðàäèåíò_211);}.cls-16{fill:#4561d1;}.cls-17{fill:#5f89f1;}</style><radialGradient id="Áåçûìÿííûé_ãðàäèåíò_227" cx="525.4" cy="525.4" r="525.39" gradientTransform="translate(499.94 1267.98) rotate(-133.04)" gradientUnits="userSpaceOnUse"><stop offset="0.55" stop-color="#345cfa"/><stop offset="0.82" stop-color="#142461"/><stop offset="1"/></radialGradient><radialGradient id="Áåçûìÿííûé_ãðàäèåíò_227-2" cx="570.91" cy="501.75" r="462.11" xlink:href="#Áåçûìÿííûé_ãðàäèåíò_227"/><radialGradient id="Áåçûìÿííûé_ãðàäèåíò_239" cx="624.02" cy="281.18" r="518.63" gradientTransform="translate(499.94 1267.98) rotate(-133.04)" gradientUnits="userSpaceOnUse"><stop offset="0.39" stop-color="#4e5bea"/><stop offset="0.5" stop-color="#4c58e5"/><stop offset="0.63" stop-color="#454fd7"/><stop offset="0.76" stop-color="#3941c0"/><stop offset="0.9" stop-color="#292ca0"/><stop offset="1" stop-color="#1b1b84"/></radialGradient><radialGradient id="Áåçûìÿííûé_ãðàäèåíò_207" cx="776.5" cy="180.24" r="294.21" gradientTransform="translate(499.94 1267.98) rotate(-133.04)" gradientUnits="userSpaceOnUse"><stop offset="0" stop-color="#7fcaec"/><stop offset="0.2" stop-color="#76bce9"/><stop offset="0.58" stop-color="#5f97e1"/><stop offset="1" stop-color="#4066d6"/></radialGradient><radialGradient id="Áåçûìÿííûé_ãðàäèåíò_207-2" cx="787.73" cy="180.24" r="294.21" xlink:href="#Áåçûìÿííûé_ãðàäèåíò_207"/><radialGradient id="Áåçûìÿííûé_ãðàäèåíò_207-3" cx="783.57" cy="180.24" r="294.21" xlink:href="#Áåçûìÿííûé_ãðàäèåíò_207"/><radialGradient id="Áåçûìÿííûé_ãðàäèåíò_211" cx="848.38" cy="224.67" r="478.42" gradientTransform="translate(499.94 1267.98) rotate(-133.04)" gradientUnits="userSpaceOnUse"><stop offset="0" stop-color="#d1f6ee"/><stop offset="0.15" stop-color="#c3e8ec"/><stop offset="0.42" stop-color="#9ec3e6"/><stop offset="0.8" stop-color="#6288dc"/><stop offset="1" stop-color="#4066d6"/></radialGradient></defs><g class="cls-1"><g id="Layer_2" data-name="Layer 2"><g id="Capa_1" data-name="Capa 1"><path class="cls-2" d="M166.82,141.39A523,523,0,0,1,429.84,8.7C600.17-22.64,782.45,30.85,909.43,166.85c137.6,147.37,174.07,352.87,112.39,531A523.3,523.3,0,0,1,883.94,909.43C718.43,1064,479.62,1091,288.59,994.52a521.54,521.54,0,0,1-110.18-74.59q-19.22-16.89-37-36a523.48,523.48,0,0,1-97-147,512.63,512.63,0,0,1-18.71-49C-35.39,500,12.76,285.23,166.82,141.39Z"/><path class="cls-3" d="M161.68,170.51A460,460,0,0,1,393,53.81c149.81-27.56,310.14,19.48,421.83,139.1,121,129.62,153.1,310.36,98.85,467.05A460.54,460.54,0,0,1,792.42,846.05C646.84,982,436.8,1005.71,268.77,920.89a459.08,459.08,0,0,1-96.9-65.61Q155,840.43,139.31,823.65A460.46,460.46,0,0,1,54,694.4a452.54,452.54,0,0,1-16.46-43.08C-16.18,485.92,26.17,297,161.68,170.51Z"/><path class="cls-4" d="M220.47,198.84A444.69,444.69,0,0,1,444.14,86C589,59.36,744,104.84,852,220.5c117,125.32,148,300.07,95.57,451.56A445.06,445.06,0,0,1,830.3,852C689.55,983.39,486.47,1006.34,324,924.33a443.29,443.29,0,0,1-93.69-63.43Q214,846.55,198.84,830.32a445.21,445.21,0,0,1-82.47-125,437.24,437.24,0,0,1-15.92-41.66C48.52,503.79,89.46,321.17,220.47,198.84Z"/><path class="cls-5" d="M100.45,663.7c1.74.34,3.49.6,5.34.87,2.08.28,3.94,1,6.07.94,2.6-.07,5.15-.9,7.69-1.41,8.15-1.62,14.86-4,21.75-8.82,5.22-3.67,12.71-10,15-16.23,3.72-10-1.14-19.56-5.73-28.23-2.09-4-3.78-8.09-6-12-2.65-4.54-6-8.6-8.92-13-4.36-6.62-9-12.79-11.3-20.32-1-3.29-3.06-5.89-4.32-9.05-1.1-2.7-1.82-5.23-3.32-7.73-6.49-10.71-16.65-20.12-20.55-32.27-2.73-8.54-6.85-16.75-9.24-25.35-.64-2.24-.19-4.57-.64-6.86s-.86-4.34-1.11-6.59c-.47-4.31-1.44-8.86-1.38-13.22.09-3.9,1.39-7,2.66-10.6,1-3,1.49-6.05,2.51-9a67.13,67.13,0,0,1,9.26-17.69c2.28-3.06,5.73-6.78,9.33-7.39,3.33-.57,6,.74,9.11,2.06,4.48,1.94,9.57,3.79,12.79,7.71,2,2.41,3.31,5.25,5.33,7.66a51.85,51.85,0,0,1,5,7.1c4.22,7.19,5.17,13,4.87,21.14A93.29,93.29,0,0,0,146.08,487c1.82,9.22,5.47,19.07,12.15,25.88,3.61,3.73,7.1,3.71,11.68,5.06,4.09,1.19,7.3,7.43,8.88,11.31,2.25,5.54,4.85,11.23,11,13.39,5.8,2,11.9.63,16.7,5.39,6.1,6.06,11.72,11.89,19.23,16.28,3.67,2.12,6.74,4.27,11,4.83a62.22,62.22,0,0,0,8.72.59c3.33,0,6.53-.55,9.84,0,4.06.64,7.81,1.71,11.92,2.13a139.17,139.17,0,0,1,23.71,4.53c5.5,1.56,10.67,4.4,15.79,7.08,7.62,4,14.25,9.8,22.34,12.85,8.31,3.15,17.47,3.51,26.26,4.09,7.35.5,14.53,2.49,21.86,2.75,5.55.19,9.71-2.19,14.71-4.11,13.93-5.37,21.42-19.82,34.79-25.69,3.24-1.43,6.75-2.09,10-3.58a60,60,0,0,1,13.52-4.43c7.51-1.51,15.21-1.91,22.49,1.23,3.93,1.7,7.26,4.5,11.12,6.26,1.94.89,3.78,1.57,5.77,2.28,1.7.63,3,1.85,4.72,2.73,6.88,3.57,12.88.54,19.31-2.32,5.17-2.3,11.23-3.65,14.37-8.93,4.89-8.21-1.71-20.41-3.45-28.5-1.09-5.06-.51-6.58,3.83-8.91,2.58-1.38,5.52-3.77,8.7-3.37s4.9,5.58,7.74,5c1.87-.37,2.49-2.9,3.38-4.22,1.35-2,2.89-3.85,4.26-5.84,2.71-4,4.69-6.29,8.72-8.58,5.35-3.05,11.62-5.27,16.73-8.88,5.71-4.05,5.78-12.24,4.43-18.34a127.87,127.87,0,0,0-4-14.27c-1.48-4.2-2.79-8.17-5.23-12-2.18-3.42-4.43-5.93-6.18-9.71-2.18-4.75-2.93-9.73-4.64-14.56-1.3-3.58-3.32-6.93-4.5-10.57a134.13,134.13,0,0,0-6.6-16.52,26.42,26.42,0,0,1-2.94-9.89c-.19-2.44.52-5.15.15-7.54-1.17-7.34-11.21-1-10.32,4.57.9,5.77,5,10.59,5.67,16.53s-1,11.6-2.2,17.27c-1.34,6.4-1.75,12.19-4.39,18.29-2.27,5.32-6.41,8.43-10.54,12.33s-8,7.2-10,12.66c-1.72,4.58-2.25,9.47-4.13,14A29,29,0,0,1,506,495c-2.89,2.79-5.25,4.73-6.56,8.61-1.43,4.35-3.14,5.9-7.69,7.67-6.07,2.39-12.92,2-19.28,1.4-9.39-.89-18.46-3.29-27.5-6-10.22-3.06-19-8.66-28.1-14-20.78-12.28-42.56-25.25-53.3-47.92a350.65,350.65,0,0,0-23.77-43.37,22.24,22.24,0,0,0-11.27-8.59c-5-1.87-9.24-3.49-12-8.28-3.16-5.53-5.54-12.49-9.85-17.07-4.1-4.38-9.51-6.95-12.84-12.18-2.77-4.3-3.63-8.55-5.41-13.1-1.83-4.81-.22-8.18.66-13.13.62-3.37,1.92-6.49,2.59-9.82.54-2.5.47-5.14.83-7.7.79-5.48,2.72-9.72,5.39-14.57,2.89-5.22,9.32-10.25,14-13.94,6.76-5.3,13.42-10.81,20.63-15.58,6.19-4.15,12.77-6.47,19.26-10,6.24-3.39,12.22-8.92,16.74-14.34,5.24-6.31,9.16-12.37,16.11-16.91,6.1-4,12.1-7.61,19-9.67,7.23-2.18,14.08-5.11,21.44-7,8.1-2.11,16.35-2.4,24.5-3.93,7.43-1.35,14.78-2.31,22.2-.64,4.4,1,6.5,1.26,10.78-.39,3.3-1.26,6.17-2,9.19-3.83,1.69-1,3.38-2.13,5.17-3a61.8,61.8,0,0,1,8.36-2.93c3.67-1.2,5.89-3.24,10-3.12a40.14,40.14,0,0,1,6.18,1c4.61.8,8.37,2.26,13.11,2.4,4.54.11,9,0,13.6.08,5,0,9.7,1.55,14.67,1.78,8.93.49,18.72.67,27.2,3.57,6.89,2.35,14.34,4.72,20.61,8.44a148,148,0,0,0,21.18,10.52c6.77,2.69,11.53,6.89,17.17,11,5.35,3.92,11.92,5.69,18.22,8.06,5.77,2.15,11.54,3.15,16.49,6.78a96.9,96.9,0,0,0,14.6,8.94c10.06,5.12,21,9,29.18,16.76,3,2.91,6.47,5.23,9.4,8.22,4.32,4.39,7.94,9.31,13,13,5.49,4,10.74,8,16,12.3,5,4.14,9.85,7,13.75,12.31,2.26,3.12,5.48,7,6.63,10.71a70.17,70.17,0,0,1,1.57,8.52c1,6.59-.18,12.68,2.7,18.81,3.15,6.6,9.26,11,13.94,16.53,5.22,6.17,8.4,13.85,11.36,21.25,1.39,3.48,2.75,7.23,4.83,10.35,2.28,3.49,5.93,5.55,9,8.27,7.41,6.6,15.68,12.32,23.45,18.6,6.31,5.1,14.06,8.56,19.64,14.58,4.27,4.62,7.49,10.48,10.56,15.91,3.35,5.92,4.63,12.62,8.22,18.32,4.35,7,8.49,14.07,12.39,21.34,3,5.63,6.69,10.44,9.85,16,2.92,5.13,5.69,10.08,6.86,15.86,1.05,5,1.84,10.13,3.09,15.09,1.08,4.48,3,8.65,6.74,11.54,1.85,1.41,4.34,1.93,6.14,3.4s3,4,4.16,5.92c3.32,5.55,2.53,10.59,1.44,16.75-.73,4.1-1.65,6-5.36,7.85-8.57,4.4-17,9.41-18.11,19.79-.58,5.37-.11,12.61,2.59,17.36s7.74,7.95,11.84,11.31c3.79,3.16,6.21,7.07,8.72,11.19,2,3.35,2.15,7,3.38,10.65a52.92,52.92,0,0,1,2.24,9.44C1000,520.57,969,345.82,852,220.5,683.56,40.12,400.85,30.43,220.47,198.84,89.46,321.17,48.52,503.79,100.45,663.7Zm510.3-506.76c6.7-4.7,17.26-4.94,25.12-4.6,9.85.38,19.38.8,29,3.2,4.78,1.17,9.59,2.09,14.31,3.49a51.36,51.36,0,0,1,12.48,6.14c6.24,4,11.67,9.46,17.34,14.15a209.23,209.23,0,0,1,16.9,15.4c4.21,4.37,5.5,9.69,6.44,15.59.85,5.38-.91,8.39-3.94,12.6-2.58,3.56-5.71,7.33-9.51,9.72-2.49,1.57-4.89,2.66-6.47,4.09-9.7-.31-20.5-.42-29.95-3.18-3.86-1.14-8.17-1.86-11.92-3.41-3.24-1.38-6.12-3.47-9.28-5-7.56-3.72-15.34-6.83-22.6-11.14-3.74-2.24-6.82-5.26-10.53-7.52a90.49,90.49,0,0,1-11.44-8.26,82.58,82.58,0,0,1-7.07-6.67c-2.25-2.37-3.34-4.68-5-7.46-2.53-4.38-4.9-9.71-3.57-14.9S606.41,160,610.75,156.94Z"/><path class="cls-5" d="M401.45,426.26c-2.94.84-6.57,1-9.32,2.19-2.51,1.06-2.57,2.18-1.76,4.48,1.51,4.36,6.82,6.49,10.44,8.84,4.46,2.93,8.38,6.55,12.58,9.82s7.66,7.92,11.36,11.83a56.92,56.92,0,0,0,10.14,8c7.41,4.79,17.89,9.6,26.79,8.17,7.77-1.23,15.11-3.11,22.08-7.05,4.52-2.57,8.65-4.66,12.27-8.48,2.81-3,3.9-6.75,5.9-10.21,3.78-6.59,5.89-14,8-21.34,1.23-4.34,1.23-8.28,1.47-12.77.11-2.59,1.11-4.85,1.08-7.35a36.69,36.69,0,0,0-3.94-15.53c-1.34-2.34-2.47-3.11-2.06-6.1a58.65,58.65,0,0,1,1.05-6c2.22-9,7.61-15.27,15.56-19.54s17.32-3.22,25.64-1.24c8.17,1.91,15.57,6.27,20.47,13.28,3,4.37,6.45,8.52,8.91,13.24a27.59,27.59,0,0,0,7.87,9.33c7.56,5.68,15.27,13.42,20.2,21.5a61.38,61.38,0,0,1,8.4,34.27c-.33,5.4-1.14,9.8.23,15.21.85,3.34,2.42,6.49,3.22,9.82,1,4.35,1,8.68,1.43,13.08.53,6,2.1,10.51.85,16.68-1.73,8.45-6.93,15.62-13.19,21.37-7.18,6.65-15.07,13.49-19.82,22.23-1.47,2.71-1.75,4.83-4.17,7-3.14,2.81-7.19,3-11.14,3.94-5.9,1.33-10.8,4.4-16.43,6.15-2.58.81-6,1.47-8.16,3s-3.44,4.58-4.39,7c-.65,1.59-1.17,3.31-1.68,5-.39,1.29-.6,3.35-1.1,4.52-1,2.22-3.46,3.33-5.34,4.46a69,69,0,0,1-20.62,7.94c-6.31,1.32-10.76.82-16.94-1-4.2-1.22-7.48-4.06-11.5-5.71-7.27-2.94-14.88-7.1-22.68-7-4.87.06-10.14-.12-15.13.29-3.06.24-5.64-.1-8.53-.11-1.92,0-4.24,1.25-6.13,1.6-4.37.84-7.37,1.42-11.33,3.88-3.77,2.32-8.13,4.79-11.51,7.72-4.25,3.71-9.12,6.62-14,9.71q.11-.3.18-.57c-2.59-1.39-7.1-.42-10.07-.18-5.68.47-11.24.74-17,1.64-16.79,2.68-32.51,7.6-48.7,12.6-9,2.79-18,6.36-27.18,8.47-6.93,1.6-13.4,3.51-19.5,7.39-8.74,5.55-14.55,14.2-19.69,23-3.58,6.1-3.45,11-3.43,17.94a47.82,47.82,0,0,1-2.5,15.33,27.07,27.07,0,0,1-2.57,5.37c-1.21,1.84-2.89,3.18-4.14,5.07-3.78,5.69-8.44,11.11-12.28,16.92-2.06,3.12-2.85,6.16-4,9.59-1.46,4.65-3.9,9.5-4.32,14.46-.61,7.67,1.82,14.45,3.31,21.84,1.29,6.51,1.21,13.37,3.18,19.7,2.47,8,9,14.81,14.49,21,6.38,7.22,12.6,14.55,18.58,22.09,6.55,8.25,13.56,15.86,20.75,23.61,5.14,5.5,9.92,11.1,16.1,15.53a155.22,155.22,0,0,0,23.88,14.65c8.47,4.08,16.47,9.42,24.76,14,4.62,2.52,9.45,4.09,14.12,6.43,4.19,2.11,7.92,5,12.07,7.18,6.56,3.37,12.62,7.15,19.31,10.27,13.61,6.32,25.25,16.35,39,22.52,10.41,4.64,22,9.83,33.33,11.28,4.71.62,9,.33,13.8.47,6.51.23,12.79,1.45,19.25.52a86.42,86.42,0,0,0,12.05-2.82c5.75-1.73,10.25-5.79,15.48-8.6,10.61-5.69,19.32-14.18,28.2-22.15s18.22-15.51,27.48-22.78a194.9,194.9,0,0,1,24.61-16.64c6.86-3.92,14.14-5.48,21.66-7.54,19.95-5.53,40-11.93,55.94-25.61,13.1-11.25,21.69-25.75,22.63-43.08.56-9.62-2.09-18.11.92-27.57,2.49-7.74,7.45-13.26,12.75-19.27a53.55,53.55,0,0,0,10.52-17.72c2.59-7.2,2-14.95.91-22.4-1.37-9.64-3.17-18.87-3.66-28.62-.39-7.83-.28-15.7-.64-23.53a41.86,41.86,0,0,0-5.43-19.46c-3.26-6-6.72-12.18-8.79-18.72s-2.57-13.21-3.69-20c-.9-5.37-1.95-10.69-3.08-16-1.16-5.66-2.73-12.62-.15-18.18,2.32-5,6-9.38,8.45-14.41,3.19-6.62,5.91-12.53,7.7-19.79a88.13,88.13,0,0,0,2.58-17c.26-7.08-1.76-13.71-2.27-20.68-.62-8,1.32-15.87,1.36-23.85.07-20-.91-39-8.82-57.77-7.53-17.86-21.93-33.6-35.34-47.21-15.49-15.74-33.21-29.54-51.22-42.27a167.3,167.3,0,0,0-49.13-23.64c-13.65-4.07-35.22-4.65-46.33,6.26-3.7,3.68-6.49,8-10.4,11.62-3.55,3.27-7.26,6.42-10.66,9.86a49.42,49.42,0,0,0-13.61,26.24c-.66,3.85-2.3,6.37-4,9.77s-1.76,7-1.75,10.77a43.58,43.58,0,0,0,4.88,20.42c2.73,5.35,3.22,11.63.44,17.06-3.41,6.7-7.78,13.66-13.32,18.7-4.22,3.9-9.14,10.31-15.44,7.36-6.89-3.19-12.89-12.23-14.62-19.31-1.21-4.95,2.42-7.62,4.85-11.49,6.5-10.28-13.83-23.73-22.88-21.27-3.85,1.07-8.22,4.79-11.94,7-4,2.39-7.56,7.68-9.06,11.92-.81,2.31-1.62,2.63-4,3.69C407.42,423,404.77,425.3,401.45,426.26ZM608,580.86a15.08,15.08,0,0,1-6.46-3.64c-2.28-2.4-2.37-5-2.54-8.19-.22-3.7,1.47-6.65,2.37-10.15.64-2.68,1.85-5,2.74-7.61,1.47-4.22,2.92-7.7,6.9-10,2.27-1.33,3.71-2.31,6.24-1.26s5.42,1.2,7.87,2.68a14.35,14.35,0,0,1,4.48,4.33c1.31,2.06,1.34,4.47,2.14,6.66,1.17,3.2-.28,5.35-1.75,6.24.23,3.91,1.07,8.14-.34,11.94a16.51,16.51,0,0,1-4.55,6.16C620.85,581.8,613.43,582.65,608,580.86Zm47.33-166.72c10-5.14,23.68-10.18,33.18-1.34,1.71,1.6,3.7,2.88,5.2,4.72a46.33,46.33,0,0,1,2.64,3.92c1.81,2.8,3.86,5.18,5.36,8.22,3.87,7.7,7.15,15.73,8.48,24.33.69,4.68.43,9.53.85,14.25.39,4.51.72,9,1.07,13.5.53,7.32-.2,14.66,1.66,21.83,1,4,.65,7.73.81,11.8.11,2.91.44,5.84.53,8.73.07,2.51.74,5,.18,7.42-.32,1.41,0,2.73-.33,4.12-.21.91-.63,1.65-.79,2.56-.57,3.1-.81,5.5-2.42,8.2-1,1.66-2,3.33-3.11,5-1.38,2.13-3.07,4-4.25,6.27-.74,1.45-1.85,2.53-2.66,3.9-1.14,1.87-3.36,7.14-3.83,8.06-.63-1.1-2.79.39-5.35,1.45-1.51.61-3.19.76-4.63,1.31-.49.33-1,.63-1.43,1-.58.14-1.18.26-1.8.35-.4.1-.89.29-1.3.42-4.43,1.2-9.61-.13-13.88-1.56-3.8-1.32-6.45-3.73-9.72-6-4.55-3.16-8.41-6.34-11.34-11.15a65.92,65.92,0,0,1-6.42-13.52c-1.5-4.5-4.16-8.54-5.12-13.28a201.55,201.55,0,0,1-3.39-23.72,152.53,152.53,0,0,0-2-16.26c-.66-3.56-1.59-7.3-1.6-10.93a69,69,0,0,1,3.15-22.37,87.92,87.92,0,0,1,6.29-14.13c1.89-3.53,4.12-6.94,5.62-10.7C647.39,424.6,649.22,417.3,655.36,414.14Z"/><path class="cls-6" d="M495,947.32c4.78-2.36,12.35-5.46,17.61-8.57,2.34-1.38,4.16-3.54,6.43-5a73.56,73.56,0,0,0,9.73-7.82c3.05-2.84,6.11-5.68,9.12-8.55,4.11-3.92,9-6.54,13.12-10.49,3.49-3.37,7.25-5.86,11.12-8.75a112.75,112.75,0,0,1,10.74-7.54c3.33-1.91,7.12-3.11,10.23-5.43,1-.74,1.75-1.9,2.76-2.55s2.5-.5,3.34-1.55c-1.81-6.55-20.32,8.71-24,2.7,1.91-2.93,5.54-5.37,8.09-7.79,3.52-3.35,8.14-4.55,11.8-7.6,5.35-4.47,9.22-9.91,14-14.8,6.09-6.25,11.56-13.55,17.22-20.28,6.25-7.44,12.65-14.82,18.41-22.65,2.76-3.76,7.63-8.54,7.45-13.68-.1-2.73-.19-2-2.82-2-2.44,0-1.74,0-3.87-1.28-1.52-.94-2.46-.77-3.84-2.45a8.87,8.87,0,0,1-2.1-5.26c-1.73-.11-2.26,1.12-3.43,2.07-3.6,2.9-7.38,5.58-11,8.51-7.41,6-15.47,11.38-23.17,17.05-4.73,3.48-12.81,10.21-19.12,10.69-2.94.22-4.31-1.23-3.36-4.06.68-2.05,1.93-2.71,3.27-4.24,1.62-1.83,2.78-4,4.37-5.81,3.4-4,5-8.63,7.36-13.22,1-1.89,5.38-6.79,3.48-9.08-1.18-1.43-7.68-.16-9.37.38-2.17-1.53-.48-15.21,0-17.76.34-1.77,1.23-3.43,1.6-5.18.47-2.24.31-4.44.94-6.67,1.46-5.08,5.74-10,5.35-15.65-.71-10.26-12.13-7.29-19-6.19-5.59.9-10.84,2.89-16.46,3.63-3.58.47-7,1.3-10.62,1.85-1.35.21-5.09,1.3-6.16.29-1.83-1.74.8-10.53,1.11-12.72.33-2.45,1.88-7.23,1.3-9.63-.88-3.6-6.81-5.83-9.55-7-14.21-5.87-29.39-6.89-44.52-4.39-15.87,2.63-32,5.17-47.87,1.06-4.88-1.27-8.21-2.21-13.23-1.81a182.63,182.63,0,0,0-24,3c-10.18,2.17-19.94,6-30.08,8.35-12.25,2.87-24.61,5.3-36.9,8-18.58,4-36.19,4.92-51.94,16.84-13.45,10.17-28.76,22-32.1,39.65-1.6,8.42,3.11,16.81,7.5,23.68,3.05,4.76,9.39,9.16,14.25,12.07a157.41,157.41,0,0,0,18.31,9.63c10.62,4.55,21.6,6.81,28.48,17.22,3,4.46,2.44,9.84,3.9,14.82a21.46,21.46,0,0,0,8,11.78c12,9.13,25.56,11.06,39.8,14.19a163.78,163.78,0,0,0,25.95,3.93c3,.15,5.86.37,8.8.57,5.53.36,10.85-.61,16.35-.69,4.5-.07,47.59,1.33,34.53,13.89-4.5,4.32-10.05,5.16-15.77,6.88-2.83.85-5.48,1.92-7.11,4.5,1.07,1.37,1.53,3.19,2.5,4.48,1.42,1.89,5.18,3.27,7.37,4.16,5.24,2.11,8.81,1.64,13.8-.4a49.71,49.71,0,0,1,21.59-3.69,71.21,71.21,0,0,1,10,.75c1.83.38,3.08.62,3,2.74-.16,3.49-5.07,7.1-6.21,10.35a7.29,7.29,0,0,0,.3,6c1.38,2.69,4.36,2.74,7.47,3.48A22.36,22.36,0,0,1,495,947.32Z"/><path class="cls-6" d="M648.66,777c6.11-7.63,11.4-14.31,15.36-23.13,2.41-5.39,5.12-10.69,6.37-16.49.84-3.88,2.27-7.84,2.7-11.77a66.64,66.64,0,0,1,1.1-8.52c.94-4,1-7.92,1.71-11.91.54-3.14,1.07-6.09.13-9.2-.79-2.63-1.1-3.34-3.28-2.06-3.65,2.13-6.87,7-8.52,10.62-2.16,4.65-3.23,9.89-5.94,14.3a75,75,0,0,0-5.69,11.84,141.57,141.57,0,0,0-6.28,18.11,62.29,62.29,0,0,0-1.67,18.5C644.81,770.14,645.49,778.24,648.66,777Z"/><path class="cls-6" d="M671,683.87c1.75-7.67,3.5-15.25,5.49-22.79.61-2.29.94-5,0-7.15l-2,1.07c-.81-1.25-.07-3.81-.15-5.31-.21-3.83.72-7.4.83-11.35s.23-8.14.39-12.21c.11-2.78.66-6.65-1.4-8.89-2.43,1-2.35,5.3-3.09,7.62-1.32,4.1-2.23,8.28-3.37,12.42-2.57,9.32-3.86,18.57-5.22,28.08-.87,6.11-3.16,13-1.34,19.29.88,3.07,3.71,4.5,7,3.33C670.55,687.09,672.46,682.77,671,683.87Z"/><path class="cls-6" d="M419,554.39a230.36,230.36,0,0,0-33.88,13.18c-10.42,5-19.95,7.67-31.51,5.54C333.16,569.34,315,559,296.24,550.69c-10.37-4.59-21.28-7.49-31.38-12.77-11.5-6-23.29-11.25-34.74-17.37-3.74-2-21.51-11-19.35-17.28,1.79-5.18,8.74-.46,10.79-3.4-2.16-3.91-6.77-8.05-10.13-10.81-4.2-3.46-8.7-6.06-12.54-10-3.32-3.42-6.7-7-9.85-10.56-5.5-6.24-9.26-14.31-13.56-21.41-3.26-5.38-4.56-10.82-7-16.54-1.29-3-4.56-8.33-4.24-11.71.24-2.61,1.84-3.93,4.55-2.4,1.69.95,3.68,5.21,6,4.36s2.3-7,2-8.73c-1.88-12.77-12.08-21.93-15.27-34.35-1.28-5-1.8-9.28-4.44-13.8-2.33-4-5.92-7-8.21-10.88-4.89-8.34-3.21-21-.86-29.86,2-7.66,5.18-14.71,7.26-22.28,2.46-9,8.41-16.37,12.38-24.6,7.51-15.56,19-28.61,29.93-41.85,10.62-12.85,22.39-26.21,36.69-35,12.11-7.45,23.11-16.77,35.13-24.45,12.78-8.16,25-17,37.42-25.64,4.86-3.38,9.35-7.5,14.09-11.1,5.78-4.38,12-7.77,18.14-11.51s13.67-6.63,20.41-9.31c4.23-1.68,8.2-4.2,12.58-5.48,5-1.48,14.89-3.16,19.54.28,1.6,1.18,1.75,5.89,2.28,8a70.33,70.33,0,0,1,1.61,9.32c.61,5.25-.38,8.38-3.65,12.79-1.26,1.71-2.89,2.9-4.17,4.59-1.88,2.51-2.66,4.36-5.54,6.12-4.08,2.48-6.87,5.58-10.49,8.57-1.95,1.62-4.31,2.4-6.27,4-3.29,2.68-5.86,6.07-9.39,8.49-7.43,5.06-12.17,10.81-17.48,18-1.69,2.29-4.53,4.9-3.17,7.92,2.05-.48,3.71-.46,5.59-1.35a32.44,32.44,0,0,0,7-4.83c4.22-3.67,7.7-7.29,12.46-10.19,3.32-2,6.29-4.49,9.78-6.27,4.2-2.15,8.85-3.91,13.2-5.74,7.86-3.32,15.7-6.31,23.6-9.46,16.39-6.55,33.79-7.34,51.11-7,7.57.14,15.19,1.23,22.79,1.46a121.5,121.5,0,0,1,24.69,3.69c17.7,4.24,36.4,8.76,54.57,10.57,11.13,1.1,23.15,2.4,33.46,6.8,5.75,2.45,2.46,6.52-2.6,6-8-.81-15.06-5.75-23.19-6.95-13.46-2-27-3.26-40.59-4.16-19.06-1.26-38.14-2.94-57.18-3.3-6.49-.12-12.85,1.37-19.22,2.43-5.94,1-12.42,1.13-18.16,3a113.56,113.56,0,0,0-26.54,12.24c-6.34,4.16-13.51,7-19.71,11.42-3.11,2.21-5.73,5.27-8.54,7.86-2.11,1.94-3.56,3.12-4.21,6,1.67,1.39,5.8-1.85,7.35-2.7,4.2-2.31,9-5.41,13.57-6.8,1.23-.37,7.13-2.15,8-1.07,1.47,1.86-5.07,6.5-6.42,7.3-4.05,2.42-8.21,4.56-12.21,7.12-5.22,3.34-9.92,7.44-15.32,10.52-4.93,2.81-10.23,6.12-14.33,10s-9.09,5.93-13.85,8.72c-5.72,3.36-11.21,7.09-16.88,10.53-7.73,4.71-15.68,8.75-23.4,13.43s-15.4,9.31-22.71,14.6c-8.34,6.05-15.12,13.85-24.37,18.72-2.75,1.45-10.85,5.53-12.39.56s4.71-11.84,5.63-16.55c1.13-5.79,3.88-10.67,5.31-16.4,1.22-4.93,3.34-8.17-1.31-11.81-6.21-4.84-16.86-.56-22.35,3.6a37.89,37.89,0,0,0-7.84,8.71c-1.13,1.59-2.69,2.5-3.92,4s-1.87,3.42-3.32,4.91c-6.41,6.62-11.3,14.45-16.55,22.13A68.08,68.08,0,0,0,188.13,317c-3.23,8.85-3.48,16.47-3.58,25.7-.19,16.54,6,32.22,14.94,46,2.59,4,6.3,8.86,10.53,11.12,3.18,1.7,8.8,4.23,11.7.94,3.15-3.58,3.46-9.5,3.87-14,.65-7.08-.32-15.16-1.79-22.07-1.62-7.63-4.31-17-3.39-24.84.74-6.31,3.48-11,7.54-15.76,1.72-2,5.7-6.47,8.51-6.3,3.55.22,7.49,5.17,8.59,8,2.33,6.05,2.16,12,2,18.29a73.28,73.28,0,0,0,2.48,19.6c1.75,6.6,4.05,14.36,7.4,20.33,3.52,6.26,7.65,13.63,12.36,19,3.45,4,30,38.41,34.38,33.51-2.53-5.49-7-9.29-10.93-13.76a36.32,36.32,0,0,1-8.5-16.5c-.72-3.23-.18-5.26,2.7-2.44,3.48,3.4,6.48,6.7,10.34,9.71,2.69,2.09,4.68,4.83,7.29,7a93.24,93.24,0,0,1,9.17,8.38,255.94,255.94,0,0,1,16.7,20.17c5.14,6.86,10,13.89,15.14,20.77,4.42,5.94,8.46,12.21,13.07,18,4.4,5.53,8.07,11.7,12.53,17.16,5.14,6.3,13,12.33,20.12,16.19,16.61,9,34.91,14.16,52.68,20.19,8.19,2.79,15.44,6.46,24,7.8,6.65,1,13,3.63,19.63,4.66,6.13,1,13.19,1.75,19.37,1.27a31.58,31.58,0,0,0,7.45-1c1.72-.55,3.15-1.54,5-1.54-2.18,4.79-10.11,8.18-14.66,9.44-7.21,2-15.11,1.08-22.08-1.69a357.84,357.84,0,0,0-44.07-14.11c-6-1.51-9.19-1.15-14.69,1.27A7.62,7.62,0,0,0,419,554.39Z"/><g class="cls-7"><path class="cls-8" d="M182.69,684.22a16.64,16.64,0,0,1-5.57.47c0-.69-.57-.62-1.05-1s-.73-1.16-1.14-1.73c-.62-.9-1.34-1.74-2-2.64-.81-1.16-1.94-2-2.56-3.29-.8-1.64-.2-4.1-.28-5.9-.05-1.19-.41-2.33-.42-3.52a13.24,13.24,0,0,1,1.32-5.1,35.19,35.19,0,0,1,4.44-6.54c1.44-1.86,2.81-3.41,5.18-4a11.84,11.84,0,0,1,8.55.74,14.47,14.47,0,0,1,5.9,5.13c1.66,2.44,6.17,7.79,1.09,9.47-3.22,1.07-4.58-3-6.94-4.13-1.19-.55-2.49-.91-3.7-1.45a10.6,10.6,0,0,0-1.67-.57,2.08,2.08,0,0,0-2,.23,2.86,2.86,0,0,0-1.9,2.6,8.28,8.28,0,0,0,.86,4.67,11.35,11.35,0,0,1,1,2.14,4.84,4.84,0,0,0,1.37,2.28,5.23,5.23,0,0,1,1.55,4.17,14.38,14.38,0,0,1-.85,2.6,10.08,10.08,0,0,0-.18,2.18C183.48,681.91,183,683.18,182.69,684.22Z"/><path class="cls-8" d="M180,695.72c-2.33,2.53-5.19,6.35-8.45,7.9-2.56,1.22-5.14,2.4-7.68,3.66-4.21,2.08-8.87,4.82-10.93,9.24-.95,2-4,6.4-6.55,4.43a5.53,5.53,0,0,1-1.62-3.55,24.48,24.48,0,0,1-.45-3.24,12.36,12.36,0,0,1,1.29-4.38,20.45,20.45,0,0,1,1.47-3.1c.69-1.06,1.6-1.9,2.3-2.95a22.8,22.8,0,0,1,5.94-6.13c2-1.38,4.16-2.49,6.32-3.68,3.54-1.95,8-2.92,11.95-1.62C176.16,693.17,177.84,694.63,180,695.72Z"/><path class="cls-8" d="M232.8,873.67c-.23-.58-.51-1.16-.81-1.77C233.21,871.16,234.79,871.06,232.8,873.67Z"/><path class="cls-8" d="M116.37,705.36c5.31-1.63,10.7-2.32,16.19-3.28s12-.25,17.67.63c2.9.44,5.71,1.41,8.61,1.81a30.88,30.88,0,0,1,9.43,2.46c15.71,7.51,30.19,16.79,37.84,33.07a93,93,0,0,1,8.2,29.2c.53,4.61.24,9.28.31,13.92a90.5,90.5,0,0,0,1.58,15.42c1.62,8.91,7.17,16.28,10.84,24.44a97.49,97.49,0,0,1,3.5,10.07c1,3.16,2.09,6.18,2,9.55a79.49,79.49,0,0,1-.57,9.13c-.33,2.54-1.15,4.94-1.42,7.45-.07.55-.18,1.1-.26,1.67Q214,846.55,198.84,830.32A445.21,445.21,0,0,1,116.37,705.36Z"/><path class="cls-8" d="M128,556.58c-.07-.29-.8-4.76-1.59-6.17-.19-.34-.56-.72-.77-1.11-1.16-2.14-2.64-4-3.92-6-3.14-5-5.53-10.4-9-15.27-1.55-2.2-3.18-4.38-4.8-6.54a35.34,35.34,0,0,1-4.3-7.31c-1.12-2.49-2.26-4.94-3.23-7.5s-2.34-5.57-2.62-8.47c-.43-4.47,1.78-8.63,1.52-13.07-.32-5.55-.77-11-.15-16.52a45.21,45.21,0,0,1,1.9-7.94c.68-2.22,1.09-4.54,1.81-6.75.92-2.87,2.15-6.44,4.38-8.54.84-.8,1.68-2.14,2.56-.7,1.17,1.93,2.49,3.87,3.73,5.83a31.08,31.08,0,0,0,5.44,6.89c3.66,3.24,7.56,6.84,10,11.12,1.21,2.11,2.78,4.19,3.51,6.51.66,2.09,1,4.31,1.57,6.44a13.76,13.76,0,0,1-2.7,11.37c-2.07,2.61-5.8,3.28-7.47,6.26-1.89,3.36-1,8.11-.09,11.61,1.44,5.83,4,11.17,6.13,16.73.52,1.35,1,2.73,1.51,4.07a27.13,27.13,0,0,1,2.11,5.65,50.2,50.2,0,0,1,.68,6.92c0,2.32-.3,4.64-.28,6.95,0,1.42.41,2.39-.68,3.45C132.33,555.37,130.9,555.74,128,556.58Z"/><path class="cls-8" d="M141.75,543.14c1.35,1.31,2.73,2.58,4.16,3.81.64-.06,1.27-.13,1.91-.24a6.11,6.11,0,0,0,4-1.73,7.3,7.3,0,0,0,2-6.84c-.76-3.79-2.77-10.07-7.56-9.93-2.21.06-3.29,2.11-4.07,3.94-.37.88-.78,1.83-1.11,2.72a13.78,13.78,0,0,0-.41,2.38,5.83,5.83,0,0,0,.22,3.69,9.75,9.75,0,0,0,1.18,2c.37.56.5,1.26,1,1.7Z"/><path class="cls-8" d="M405.19,407c7.68-4.52,15.28-9.19,23.68-12.25a35.78,35.78,0,0,0,12.44-8.06c4.78-4.64,10.95-6,16.3-9.76,6-4.19,8.93-11.23,11.15-18,2.45-7.5,3.45-16.69,1.9-24.45-1.93-9.67-7.3-18.59-11.21-27.52a43.61,43.61,0,0,0-12.78-16.81c-7.25-6-18.74-8.36-27.92-8.78-8.57-.38-17-.65-25.53.32-7.53.85-14.34,3.74-21.6,5.61-12.21,3.15-26.76,13.67-25.21,27.75a14,14,0,0,0,2.91,6.81,76.87,76.87,0,0,0,5.11,6.9c2.54,2.78,6,4.58,8.38,7.56a23.41,23.41,0,0,1,3.3,6c.9,2.36,1.48,4.31,3.39,6.06a16.59,16.59,0,0,0,7,3.66,35.61,35.61,0,0,0,7.69.92c1.66,0,3.88,0,5.18,1.26s2.13,4.56,2.63,6.45a54.29,54.29,0,0,1,1.64,14c0,8.28-1.44,16.5,1.8,24.46,1.07,2.63,3.46,6,6.31,6.29C404.25,405.67,406.17,404.72,405.19,407Z"/><path class="cls-8" d="M369.73,376.23c-1.29-3.41-4.87-17.17-12.23-15.26-4.73,1.24-6.24,6.89-3.89,10.95,1.39,2.4,3.49,3.4,5.58,5a6.65,6.65,0,0,0,3.5,1.74c3.1.11,5.63-3.35,7.72-5.3Z"/><path class="cls-8" d="M459.09,254.69q-5.59,1.56-11.2,3.06c-.76-.78-1.64-1-2.22-2a5.45,5.45,0,0,1,0-4.57c1.74-4,5.71-7.21,8.82-10.14a32.43,32.43,0,0,1,5.7-4.48c1.11-.68,2.23-1.88,3.67-1.78a17.67,17.67,0,0,1,2.36.79c2,.78,2.86,2.52,4.46,3.79,1.87,1.5,2.94,1.61,3.25,4.17.14,1.2.66,2.71.18,3.78a9,9,0,0,1-4.71,4.59,29.77,29.77,0,0,1-6.24,1.77c-1.75.36-4.39.14-5.82,1.29l-.57-.37Z"/><path class="cls-8" d="M525.32,250c14.08-.53,29-.44,41.75,6.31,3.25,1.71,6.6,3.28,9.68,5.29,1.27.84,9.15,5.49,10.53,3.33a16.5,16.5,0,0,1-2.64-7.78,37.39,37.39,0,0,0-1.43-5.86c-.55-2-.22-3.73-.33-5.71-.23-4-3-5.24-6.27-6.68-5.38-2.4-11.14-5.73-17-6.8-2.4-.44-5-1.12-7.44-1.37s-5.32.43-7.74.81c-2,.31-4.59.31-6.4,1.16a56,56,0,0,0-5.39,3.58c-2,1.3-3.61,2-4.76,4.28a38.37,38.37,0,0,0-1.85,3.68C525.25,246.43,526.21,249,525.32,250Z"/><path class="cls-8" d="M710.64,879.38c4.24-6.35,7-10.87,9.34-17.81s3.32-14.67,4.11-22c.42-3.87,0-7.77.65-11.62a47.16,47.16,0,0,1,2.39-7.74c2.72-7.57,4.86-15,9.42-21.74,3.08-4.55,6.69-9.35,10.86-12.94,3.88-3.34,8.18-6.36,12.28-9.42,8.82-6.6,17.27-13.62,25.95-20.4A77.09,77.09,0,0,1,793,751c3.77-2.32,7.13-5,10.71-7.52,5-3.57,10.62-7.5,16.38-9.73a101.55,101.55,0,0,1,17.22-4.84c7.33-1.48,15.4-4.15,22.89-2.53a33.08,33.08,0,0,1,7.14,2c1.77.85,3.17,2.3,4.75,3.44a31.27,31.27,0,0,1,7.68,7.1,16.88,16.88,0,0,1,3,8.17c.24,3.85,1.94,7.14,2.42,10.91a33.46,33.46,0,0,1-1.1,10.86,56.66,56.66,0,0,1-4.77,11.42c-2.15,4.06-4.65,7.93-6.84,12-2.43,4.49-4.49,9.41-7.55,13.53-5.71,7.67-10.26,16.13-16.29,23.63a146.53,146.53,0,0,1-10.85,12.1c-4.54,4.51-9.79,8-14.49,12.32-3.81,3.45-7.79,6.65-11.9,9.74s-7.69,6.63-11.59,10A294.3,294.3,0,0,1,772,894.68c-9.23,6.29-19.7,11.44-29.57,16.65a110.82,110.82,0,0,1-15.81,6.88c-4.59,1.58-9.62,3.43-14.58,3.29-5.93-.17-9.69-5.58-9.45-11.1.24-5.3,2.09-10.49,3.56-15.65,1.25-4.36,2.82-8.85,4.35-13a15.81,15.81,0,0,1,.79-1.61c.53-.78,1-1.78,1.37-2.4C713.42,876.59,714.33,874.43,710.64,879.38Z"/><path class="cls-8" d="M691.48,914.07a18.91,18.91,0,0,1-5.69-9.16,2,2,0,0,1-.1-2.9,11.63,11.63,0,0,1,.38-1.49,54.46,54.46,0,0,1,1.58-6.22c.58-1.42,1.3-2.62,2.7-2.78a5.25,5.25,0,0,1,4.48,2.07,16.21,16.21,0,0,1,2.58,9.09c-.07,2.2-1.58,7.93-3.53,9.16Z"/><path class="cls-8" d="M796.31,679.47c2.52-2.7,6.4-6.2,8.46-9.68,1-1.71,2-3.63,3-5.4,2.36-4.2,2.79-9.12,4-13.71.81-3,3.08-6.91,2.2-10-.82-3-3.68-5.18-6.24-6.58a85.1,85.1,0,0,1-7.47-4.31c-1.47-1-2.19-1.58-4.12-.89a19.18,19.18,0,0,0-3.11,1.85c-.63.35-1.59.48-2.13,1-1.26,1.21-2,4.68-2.48,6.34-.71,2.59-1.53,5.15-2.25,7.74-.64,2.28-.36,4.92-.43,7.3a110.62,110.62,0,0,0,.08,12.08c.24,2.78.44,6.82,2.9,8.5,1.1.76,2.93,1.08,3.91,2C793.89,676.71,793.33,679.13,796.31,679.47Z"/><path class="cls-8" d="M852.27,602.57a39.78,39.78,0,0,0-.15-10.57c-1.59.87-4.81-1.53-5.84.62-.45.93.45,4.18.63,5.12.72,3.73,4.43,10.17,8.79,6.11Z"/><path class="cls-8" d="M852.5,342.36q-5.58,1.51-11.14,3.1c-1-1.68-4.67-3.29-6.2-4.49-2.52-2-4.83-3.75-6-6.89a21.26,21.26,0,0,1,1.51-17.34,48,48,0,0,1,4.72-6.84,3.55,3.55,0,0,1,1.34-2.06,35,35,0,0,1,3.94-.71,17.25,17.25,0,0,1,6,.39c3.9.77,6.41,2,8.34,5.73a43.28,43.28,0,0,1,2.35,6.64c.66,2,1.67,4.05,1.63,6.25-.07,3.62-2.45,6.05-3.94,9.11A61.24,61.24,0,0,0,852.5,342.36Z"/><path class="cls-8" d="M819.47,308.19a69,69,0,0,1-8.28-7.75c1.11-2.21-.43-4.79,1.39-6.9,1.18-1.38,2.41-1.21,3.64.31,1.38,1.7.7,3.25,1.09,5.16a13.7,13.7,0,0,1,0,5.63Z"/><path class="cls-8" d="M752.5,148.84c-.36-.39-6.57-7.85-8.8-9.28a26.83,26.83,0,0,0-4.32-1.87c-5-2.05-10.28-4.41-15.61-5.57-11.08-2.41-22.24-2.52-33.5-2.82s-22.45.19-33.68-.54c-5.89-.39-11-1.11-16.34-3.77-2-1-1.38-.8-2-2.42-.43-1.24-.49-2.68-1.24-3.8a10.91,10.91,0,0,0-2.22-2.38c-1.54-1.14-3-2.35-4.59-3.47-6.51-4.66-15.49-3.9-23-4.4-4-.27-8.11-.47-12.13-1-1.82-.24-3.81-.29-5.64-.61-2.56-.44-5-1.49-7.55-1.81-5.4-.68-11-.07-16.42.63-2.89.37-5.62,1.36-8.51,1.8-2,.31-5.45,1.5-7.14-.36-2.57-2.84.13-10.26,1.91-12.77a47.55,47.55,0,0,1,12.6-12.34c3.54-2.26,7.63-2.87,11.65-3.87a77.93,77.93,0,0,1,18.91-2.47c14.52-.09,29.32,2.33,43.42,5.7,6.62,1.58,13,4,19.71,5.32,6.94,1.43,13.71,2.52,20.54,4.51,5.74,1.67,11.56,3,17.25,4.9a66.46,66.46,0,0,1,16.55,8.44c6.86,4.63,13,10.31,19.53,15.33,2.66,2,5.52,3.83,8.22,5.81a31.49,31.49,0,0,0,6,3.38c3.74,1.52,5.27,4.33,6.19,8.24C753.16,140.91,752.57,143.56,752.5,148.84Z"/></g><g class="cls-9"><path class="cls-8" d="M677.5,324.77a78.76,78.76,0,0,1-7.84-10.88c1,.39,1.55-.77,2.3-1.21a4.81,4.81,0,0,1,2.51-.66c.29.06.36.41.58.54a16.51,16.51,0,0,1,1.68,1.24,22.1,22.1,0,0,1,3.89,4.41c1.25,1.8,4.21,4.34,2.62,6.7a4,4,0,0,1-2.54,1.36c-.6.12-2,.49-2.39,0Z"/><path class="cls-8" d="M762.33,764.58a77.86,77.86,0,0,1-7.83-10.88c1,.38,1.54-.77,2.3-1.21a4.76,4.76,0,0,1,2.51-.66c.28.06.35.41.57.54a15.47,15.47,0,0,1,1.68,1.24,21.79,21.79,0,0,1,3.89,4.41c1.25,1.8,4.21,4.34,2.62,6.7a4,4,0,0,1-2.53,1.36c-.61.11-2,.49-2.39,0Z"/><path class="cls-8" d="M663.84,325.75c-1.05-2.28-1.78-4.69-3.69-6.35a12.3,12.3,0,0,0-5.51-2.32c-3.48-.67-7.49-1-10.89.3-3.56,1.39-4.92,5.92-4,9.29a49.47,49.47,0,0,0,3.32,9,13.19,13.19,0,0,0,9.7,7.07,12.24,12.24,0,0,0,6.43-.6c1.77-.85,2.88-3,3.71-4.69,1.35-2.75,2.78-5.33,2.05-8.44a19.41,19.41,0,0,0-1.33-3.63C663.38,324.85,662.84,323.07,663.84,325.75Z"/><path class="cls-8" d="M641.62,390.77a18,18,0,0,1-5.08-1.33c.61-1.67-.65-3.63.65-5.22.95-1.17,2.16-1.59,3.36-.61s3.18,2.05,3.37,3.64c.2,1.74-1.2,3-2.32,4.1Z"/><path class="cls-8" d="M109.12,596.9a18,18,0,0,1-5.08-1.33c.61-1.67-.65-3.63.64-5.22,1-1.17,2.17-1.59,3.37-.61s3.17,2,3.36,3.64-1.2,3-2.31,4.09Z"/><path class="cls-8" d="M782.92,213.23a17.88,17.88,0,0,1-5.07-1.32c.6-1.67-.66-3.63.64-5.22,1-1.18,2.17-1.59,3.37-.61s3.17,2,3.36,3.64-1.2,3-2.32,4.09Z"/><path class="cls-8" d="M390.88,421a17.57,17.57,0,0,1-5.07-1.33c.6-1.66-.66-3.62.64-5.21.95-1.18,2.17-1.59,3.37-.62s3.17,2.05,3.36,3.65-1.2,3-2.32,4.09Z"/><path class="cls-8" d="M323.25,717.73c6.87-2.64,16.45-5.75,23.73-9.11,1.48-.68,6.12-2.38,7.1-3.78,2.36-3.36-.89-4.86-3.25-6.16-2.74-1.5-5.35-3.36-8.18-4.67-4.7-2.17-8.87-1-13.81-.58-9.48.9-18,5.69-20.7,15.37-2.55,9.06,5.38,12.82,13.83,12.36Z"/><path class="cls-8" d="M237.8,674.23c2.93-3.74,21.57-20.92,11.47-28.64-5.13-3.92-9.64,0-13.51,3.65-4.08,3.83-8.35,7.78-9.66,13.48-1.09,4.76,0,10.77,4.69,13.19l1.19-.72Z"/><path class="cls-8" d="M259.74,643.11c4.16-1.63,8.34-3.14,12.6-4.49a74.53,74.53,0,0,0,10.65-4,50.41,50.41,0,0,0,5.76-3.66,37.41,37.41,0,0,1,6.32-3c.74-.33,3.53-1.64,3.25-2.9-.23-1-2.63-1.23-3.42-1.33a25,25,0,0,0-11.69,1.65c-3.41,1.24-6.95,1.65-10.18,3.41a35,35,0,0,0-8.49,5.9c-.85.86-1.35,1.87-2.26,2.69a16,16,0,0,0-1.7,2.16,4.13,4.13,0,0,0-1.09,1.84C259.34,642,259.17,643.38,259.74,643.11Z"/><path class="cls-10" d="M255.8,639.49a49.35,49.35,0,0,0,3.13-4.21c-1.34-.52-1.94-1.13-3.49-.94a2.83,2.83,0,0,0-2.09,1.33,2.51,2.51,0,0,0-.62,2.78c.5,1.65.9,1.88,2.75,1.9Z"/><path class="cls-8" d="M232.82,574.67c-2.75,0-5.57.27-8.31.12-1.53-.08-3.47.08-4.72-.87-1.79-1.34-3.14-3.56-4.5-5.3a41.15,41.15,0,0,0-6.28-6c-2.11-1.76-6.19-4-6-7.16.14-2.5,2.64-3.82,4.9-3.39,2.85.55,5.11,3.73,7,5.73,3,3.26,6,6.56,9.91,8.82C227.15,568.05,234.3,569.91,232.82,574.67Z"/><path class="cls-8" d="M828.72,235.15c-2.74,0-5.56.27-8.3.12-1.53-.08-3.47.08-4.73-.87-1.79-1.34-3.13-3.56-4.49-5.3a40.76,40.76,0,0,0-6.29-5.95c-2.1-1.76-6.18-4-6-7.16.13-2.5,2.64-3.82,4.9-3.38,2.84.54,5.1,3.72,7,5.72,3,3.26,6,6.56,9.9,8.82C823.06,228.53,830.21,230.39,828.72,235.15Z"/><path class="cls-8" d="M197.74,558.1c-2.27-1-7.52-2.52-7.05-6,.25-2,2.33-3,4.19-3a4.47,4.47,0,0,1,4,1.93c1.18,1.47,3.08,5,.88,6.37Z"/><path class="cls-8" d="M660.78,880c-4.72,2.68-10.74,6.92-16.25,8.47a45.53,45.53,0,0,0-7.33,2.24c-4.65,2.16-9.81,2.59-14.73,4.06a102.39,102.39,0,0,0-25.92,12A40.65,40.65,0,0,0,582,924.15c-3.54,7.88,2,14.55,10.23,14.87,5.36.22,10.8-1.7,15.9-3.11,5.91-1.63,13.52-3.22,18.92-6.14a96.78,96.78,0,0,0,16.61-11.95c4.25-3.68,9-5.7,12.52-10.35a135.79,135.79,0,0,0,8.39-11.64,19.27,19.27,0,0,0,2-4.32c.46-1.38,1.67-4,1.81-5.46a16,16,0,0,0-1.3-6.74C666.19,878,661.61,875.47,660.78,880Z"/><path class="cls-8" d="M551.26,955.34a148.77,148.77,0,0,0,11.2-12.49c-2-1.24-1.48-4.48-3.46-6.09-2.28-1.86-7.59-2.25-10.38-1.59-4.66,1.09-11.21,6-12.55,10.74-.35,1.25-1.41,4.82-1.12,6.08s2.33,2.76,3.26,3.76c3.54,3.84,5,1.21,9.52,1.21Z"/><path class="cls-8" d="M718.49,794.16c1.88-9.33,2.59-16.62,7.57-24.38,1.9-3,3-5.46,6.54-4.86,6.75,1.11,7.64,6.81,7.34,12.57-.51,9.7-7.64,28.3-19.52,18.57a8.81,8.81,0,0,1,1.6-3.52Z"/><path class="cls-8" d="M730.37,625.05a35.36,35.36,0,0,1-14-8.89c3.08-2.2.08-7.22,1.94-9.84,2.14-3,4.27-.23,6.09,1.59,2.19,2.18,5.41,2.64,6.39,5.86.84,2.74-.56,6.51.51,8.71Z"/></g><path class="cls-5" d="M625.34,493.66c0-.37.63-7.13.35-9-.2-1.31-.75-2.59-.89-4a37.65,37.65,0,0,1,0-7.87,45.9,45.9,0,0,1,.93-5.57c.67-2.93,1.49-5.8,2.14-8.75.29-1.3.89-2.39,1.28-3.64.47-1.52.4-3.21.75-4.76a79.06,79.06,0,0,1,2.25-8.62c1-2.79,2.29-5.32,3.13-8.17a87.25,87.25,0,0,1,3.5-8.92,35.77,35.77,0,0,1,4-7.32c1.53-2.14,2.48-4.52,4.14-6.61a29.71,29.71,0,0,1,8.94-8.17,50.86,50.86,0,0,1,13-5,23.2,23.2,0,0,1,5-.9c1.56,0,2.62.41,4.19-.15,1.06-.39,2.66-.93,3.28-1.95a5.49,5.49,0,0,0,.32-3c-.59-5.52-6.54-9.67-10.61-12.48-1.13-.78-2.16-1.56-3.25-2.38-1.67-1.26-3.64-2-5.29-3.32a82.27,82.27,0,0,1-7.17-6.67c-2.23-2.22-4.63-4-6.77-6.33-2.9-3.19-6.62-5.63-10-8.24-2.77-2.11-5.35-4.1-8.3-5.94-1.63-1-3-2.33-4.66-3.24a44.59,44.59,0,0,1-4-2.27c-2.11-1.43-4.24-2.44-6.4-3.72-2.81-1.66-6-2.18-9.1-3.2-5.78-1.91-11.38-4.57-17.1-6.64-1.43-.52-2.89-.55-4.28-1.18a11.26,11.26,0,0,0-2.57-1c-2.2-.49-4.76-1.29-7-1-4.16.52,1.44,3,2.5,3.58,5.2,2.77,10.41,5.4,15.39,8.58,1.88,1.2,3.59,2.67,5.38,4s4,2.7,5.31,4.52c1.88,2.64,3.88,6.49,3.11,9.68a14.36,14.36,0,0,0-.51,3.94c0,1.55.19,3.07.11,4.63-.16,3.42,1.16,7.15-.21,10.53a6.37,6.37,0,0,1-2.68,3.05c-1.05.4-2.48-.23-3.48-.62-3.16-1.25-6.09-3.1-9.25-4.29-3.78-1.42-7.16-3.47-10.94-4.92-2.9-1.1-5.44-2.74-8.21-4.06-1.89-.91-3.42-2.43-5.21-3.55-2.38-1.5-4.58-3.47-6.86-5.15-2.46-1.8-5.1-2.67-7.93-3.75A42.37,42.37,0,0,0,536,347.37c-3.56,0-8.68.8-10.27,4.54-.44,1-1.61,2.34-.43,3.18.69.49,1.87.19,2.62.06a36.49,36.49,0,0,1,10.43.13,20.19,20.19,0,0,1,6.83,2.2c2.66,1.19,5.64,1.68,8.35,2.75,7.37,2.93,14.39,6.95,21.29,10.86,4.68,2.66,6.74,7.49,9.84,11.56,1.94,2.53,4.33,4.47,6.09,7.17a38.87,38.87,0,0,0,4.46,5.88c1.94,2,3.23,4.39,5.17,6.42a61.26,61.26,0,0,1,5.67,7.67c2,2.86,4.08,5.69,6,8.62a60.83,60.83,0,0,1,3,5.83c1.1,2.13,2.85,3.82,3.22,6.26,1.22,7.9.59,16,1.86,23.86.34,2.05.07,4.09.4,6.13a27,27,0,0,1,.49,5.25c0,2.9.52,5.8.6,8.69,0,1.59-.42,3.21-.44,4.75a15.8,15.8,0,0,0,1.28,4.5c.45,1.26.92,2.64,1.49,3.85A12.57,12.57,0,0,1,625.34,493.66Z"/><path class="cls-5" d="M567.58,327.37c.62.08-7.13-1-8.77-1a7.86,7.86,0,0,1-2.17.1c-1.89-.43-3.43-1.33-3.19-3.44.39-3.34,2.7-4.05,5.63-4.79s5-.2,7,2.07a8.15,8.15,0,0,1,1.87,3.34c.24,1,0,3.71-1.65,3.22Z"/><path class="cls-5" d="M641.94,579.86c-.09-4.41-.3-8.83-.12-13.22a20.13,20.13,0,0,0-1-7.37c-1.41-4-4-7.72-5.76-11.66-1.48-3.39-3.86-6.54-6-9.58a42.78,42.78,0,0,1-6.19-11.21c-.63-1.91,0-4.74.44-6.68.14-.61.68-1.1.8-1.75s-.08-1.49,0-2.22c.23-1.35.85-2.54,1.09-3.91a37.28,37.28,0,0,0,.58-8.57c-.05-.84-.55-3.88-.26-4.24a26.26,26.26,0,0,1,2.35,6.52c.31,1.4.17,2.83.43,4.22.11.64.62,1.31.65,2a18.23,18.23,0,0,1-.48,2.47c-.35,3.3,1,6.37,2.22,9.31.65,1.58,1.29,3.18,1.91,4.77.26.67.37,1.43.65,2.08a5.85,5.85,0,0,1,.54,2,28.45,28.45,0,0,0,1.86,6.82c1.57,3.93,4.61,7.38,6.72,11,1.82,3.15,3.3,6.57,4.85,9.87a42,42,0,0,0,3.67,7.15c2.61,3.61,5.46,7.13,7.61,11.06a27.18,27.18,0,0,1,2.76,6.56c.34,1.29.88,2.54,1.11,3.86s.07,2.35.27,3.51c.6,3.51.49,7,1.06,10.59s1.41,7.15,1.07,10.77a5.61,5.61,0,0,1-1.57,4c-1.42,1.47-1.81.92-3-.53-2.1-2.51-2.09-6.87-2.6-10-.31-1.93-.64-3.83-1.11-5.73-.6-2.48-2-3.92-3.71-5.74-2.42-2.58-4.47-5.05-5.58-8.48-.23-.71-.46-1.93-1.19-2.23a4.74,4.74,0,0,0-1.67.08c-.79.15-1.65.49-2.5.67a17.74,17.74,0,0,1-2.76.72c-1,.06-1.91.07-2.94.2a33.42,33.42,0,0,1-8.29-.49c-1.29-.16-3.46-.26-3.43-1.85s1.75-2.75,3.1-3.07a23.5,23.5,0,0,1,5.69-.22,28.3,28.3,0,0,0,5.12-.6c.51-.1.33.29,1,0s1.14-1.24,1.88-1.63C642.78,578.22,643.69,577.63,641.94,579.86Z"/><path class="cls-5" d="M625.18,435c2.13-5.52,4.26-11,6.1-16.64a35.81,35.81,0,0,1,2.5-5.7,29.4,29.4,0,0,1,4.29-5.89c4.86-5.68,13-8.83,13.27-17.4.12-3.73-1.64-5.52-4.05-8.12a44.92,44.92,0,0,0-8.72-7.52c-1.8-1.14-3.35-2.85-5.5-3.25-3.09-.58-6.07.47-8.68,2-5.89,3.42-12.22,8.49-14.92,14.95-3.08,7.37,4.38,14.47,6.77,20.83a40.27,40.27,0,0,1,2.23,10.28c.33,3.26.09,6.75,1.49,9.82C620.85,430.28,624.08,435.42,625.18,435Z"/><path class="cls-6" d="M347.79,864c6.21,2,11.74,4.1,17.74,6.31,6.78,2.49,13.27,5.34,20.36,6.9,3.09.68,6.26,1,9.32,1.75a15.52,15.52,0,0,0,5.37.8c1.59-.17,3.08-.82,4.7-1,3.82-.52,7.64-1.58,11.48-1.85,6.3-.45,12.63,1.42,18.88,1.73,4.36.21,8.64.91,13,1s9.06.19,13.57.6c4.77.43,9.68,1.2,14.47,1.24,2.42,0,5,.09,7.37-.14,3.93-.37,8.05-2.14,11.84-3.2,6.19-1.73,11-5.23,16.3-8.81,4.68-3.18,9.29-6.52,12.94-10.93,4.06-4.9,8.42-9.38,12.39-14.38a43.86,43.86,0,0,0,8.84-19.74c.94-6,2.09-11.84.37-17.75-.59-2-1.17-4-1.62-6-.52-2.42-.61-5.1-1.39-7.4a22.46,22.46,0,0,0-4.38-8.35c-3.15-3.57-5.09-8.1-8.47-11.56-3.53-3.62-8.18-6.59-12.19-9.68s-5.32-7.86-10-10.5a121.61,121.61,0,0,1-13.11-8.59c-2.28-1.71-4.27-3.46-7.05-4.31-2.5-.77-4.87-1.7-7.33-2.52-6.36-2.1-13-3.2-19.39-5.33-3.44-1.15-6.54-1.32-10.12-1.75-4.65-.56-9.26-1.24-13.95-1.38-9-.27-17.95-.4-26.89.79-6.86.91-13.6,3.28-20.32,4.85-5.93,1.39-12,2.31-17.88,3.72a77.8,77.8,0,0,0-9.65,2.54c-3,1.14-5.75,2.7-8.78,3.71a24.55,24.55,0,0,0-9.49,5.55c-4.26,4-9.36,7.12-13.05,11.63-1.52,1.84-3.39,3.4-4.83,5.3a14.35,14.35,0,0,0-2.73,6.55c-.52,2.43-2.11,4-3.29,6.09a47.1,47.1,0,0,0-2.74,6.49c-2.55,7.15-.51,15.47,3,21.84,1.33,2.39,3.23,4.35,4.65,6.69,1,1.7,1.86,3.52,2.87,5.23.9,1.54,1.92,3,2.86,4.54a24.86,24.86,0,0,1,2.07,5,13.33,13.33,0,0,0,2.78,4.1c1.6,1.88,2.55,4,4.26,5.85,2.88,3.08,6.26,5.47,10.61,5.35.34,0,.64-.61,1-.65a7.23,7.23,0,0,1,1.5.14,13.82,13.82,0,0,0,2.86.21c2.36-.22,4.43-1,7-.94a31.49,31.49,0,0,1,9,1.21c4,1.38,7.9,3,12.05,3.87,5.55,1.09,11.21,1.34,16.79,2.16,3.93.58,7.56,1.14,11.36-.18,4-1.4,4.56-6.41-.39-6.41-.94,0-1.86,0-2.28.92s1.56.94.08,2c-.59.41-1.55,0-2.17-.13-1.66-.21-3.43-.06-5.07-.36-2.37-.44-4-1.71-5.86-2.93-.89-.57-2-.29-1.81-1.63.11-.76,2.12-2.09,2.76-2.41.91-.44,2.11-.58,3-.94.63-.25,2.53-.77,2.83-1.26,1.13-1.78-3.41-4-4.61-4.55a59.79,59.79,0,0,1-7.15-4.21,20.86,20.86,0,0,0-7.31-3.17,46.15,46.15,0,0,1-6.22-1.58,61.08,61.08,0,0,1-7.5-3.65c-4.22-2.22-11.62-3-8.77-9.48a33.4,33.4,0,0,1,7.36-10,13.73,13.73,0,0,1,2.83-1.72c1.35-.81,1.47-1.95,2-3.4,1.93-5.73,2.57-11.78,8.85-14.32a15.62,15.62,0,0,1,3.54-1.11c1.78-.29,2.92.26,4.52.37,2.36.16,4.41-.53,6.72-1a10.07,10.07,0,0,1,4.85.13c2.74,1,4.63,3.8,1.33,5.36-2,1-5.52.52-6.56,3.06-.37.89-.45,5.27.23,5.76.9.65,5.28-1.22,6.32-1.58a55.87,55.87,0,0,0,8.75-4.21,17.59,17.59,0,0,1,7.61-2.4c2.95-.11,5.73.56,8.59.89,3.95.46,7.28,2.72,10.95,3.89,3.25,1,5.08,3.19,6.52,6.25,1.24,2.63,2.29,4.57,5.2,5.77,3.51,1.45,7.39,3.14,9.57,6.51,1.28,2-.1,4.8-.16,7.11A32.17,32.17,0,0,1,460,825.7c-2,6.09-6.16,9.56-11.94,12-2.58,1.08-5.43,1.73-7.88,3.12-1.52.86-5.81,2.41-5.14,4.78.46,1.61,4.1,2.17,5.56,2.62a24.19,24.19,0,0,1,5.23,1.92c.91.53,2.73,1.38,3.14,2.31-.72.83-3.82,1.43-5,1.86-2.21.79-4.23,1.32-6.41,2.23A163.45,163.45,0,0,1,420,862.17a42.25,42.25,0,0,1-14.22,2,64,64,0,0,1-6.51-.19c-2.49-.36-4.79-.83-7.32-1a49.49,49.49,0,0,1-8.9-1.55,49.66,49.66,0,0,0-8.6-1.24,50.85,50.85,0,0,0-7.07-.38c-2.08.1-4-.42-6.07-.52-3.11-.15-6.2-.37-9,.57C350.58,860.42,347,862.24,347.79,864Z"/><path class="cls-6" d="M428.71,870.29c6.91-3.84,13.63-6.7,20.68-10a33.67,33.67,0,0,0,4-1.89c2-1.27,2-2.35,2.65-4.39.55-1.86.8-4.11,1.48-5.86.94-2.47,2.8-4,4.71-5.79,5.84-5.35,7.1-13,8.55-20.52a122.28,122.28,0,0,0,1.72-13.46c.15-1.93,1-3.6,1.42-5.45.51-2.18.14-4.21.17-6.4.06-3.78-3.37-6.32-6.39-8.35A50.8,50.8,0,0,0,456.16,782c-3.53-1.22-6.91-2.18-10.38-3.59-3.72-1.51-7.93-1.84-11.85-2.68-2.87-.61-5.7-1.41-8.56-2-1.25-.25-2.53-.25-3.78-.5-1.07-.22-1.94-.84-2.94-1.11-4.2-1.14-9-.08-13.26,0a49.9,49.9,0,0,1-9.31-.48,124.69,124.69,0,0,1-13.66-2.51c-2.18-.6-5.9-2-1.89-3.26,3.25-1,6.85-1,10.22-1.38,1.6-.17,3.21-.37,4.81-.56a13.92,13.92,0,0,1,2.66-.23c.59,0,1.8.64,2.31.48,2.59-.84-1.47-3.18-2-4.2-1.12-2.18,1.67-3.09,3.49-3.49a15.09,15.09,0,0,1,7.36.65c4.11,1.23,8,2.65,12.23,3.47a70.74,70.74,0,0,1,9.53,2.56c2.92,1,5.36,3.09,8.12,4.42a119.36,119.36,0,0,0,15.89,6.76c5.62,1.76,11.58,3.82,17.45,4.56a22.82,22.82,0,0,1,10.2,3.89c1.5,1,2.67,1.13,3.19,3.06a15.28,15.28,0,0,1,.54,4.61c-.21,3.52-.59,6.89-.93,10.38-.19,2,.32,3.73-.2,5.75a22.81,22.81,0,0,0-.95,5.7c-.08,3.83.24,7.42.43,11.25.11,2.51,0,5,.12,7.52.15,3.55,1.36,6.61,1.95,10.08.87,5.06,2.43,9.8,1.38,15-.55,2.76-3.14,3.26-5.32,1.53-.88-.69-1-1.52-2.23-1.61-.95-.07-2,.61-2.93.82a15.59,15.59,0,0,0-6.48,2.67c-1,.8-1.84,1.8-2.79,2.66-1.71,1.52-3.7,2.55-5.49,4a32.08,32.08,0,0,1-13.36,6.21C447.4,872.85,430.09,877,428.71,870.29Z"/><path class="cls-11" d="M469,767.35c2.34-.12,6.89.16,9.53-.8a43.43,43.43,0,0,0,4.76-2.42c2.48-1.27,4.48-3,4.59-6.13s-2.47-5.64-4.54-7.74c-2.87-2.91-6.71-6.34-10.37-8.22a90.39,90.39,0,0,0-29.63-8.72c-8.59-1-22.4-2.31-25.64,8.31-2.81,9.19,6.21,15.94,13.51,19.39,4.84,2.28,9.51,5.31,14.67,6.78A94.68,94.68,0,0,0,456,770.18a37.07,37.07,0,0,0,7.21.51c2-.06,2.88-.62,4.6-1.39C470.37,768.18,472.46,767.26,469,767.35Z"/><path class="cls-11" d="M411.88,748.44c-1.08.48-12.1,6.72-12,1.47,0-1.33,1.12-2.35,1.78-3.43a13.52,13.52,0,0,1,2.63-3.58c2.15-1.86,4.79-2.85,6.54-.17,1.28,2,.87,4,.64,6.13Z"/><path class="cls-11" d="M222,462.76c-.58.26-6.57,3.65-6.54.8,0-.72.61-1.27,1-1.86a7.49,7.49,0,0,1,1.43-1.95c1.17-1,2.6-1.54,3.55-.09a4.64,4.64,0,0,1,.35,3.33Z"/><path class="cls-11" d="M498.05,768.35c-.38-1.12-5.6-12.66-.37-12.13,1.32.14,2.23,1.34,3.25,2.09a13.42,13.42,0,0,1,3.33,3c1.65,2.3,2.4,5-.42,6.52-2.07,1.1-4.1.51-6.17.08Z"/><path class="cls-11" d="M372.45,754.23c-1.34,2.35-2.35,4.8-4.4,6.54a35.81,35.81,0,0,0-4,4.44c-2.61,3.13-4.59,6.7-7.22,9.82a23.1,23.1,0,0,1-9.46,6.58c-2.3,1-5.22,1.76-7.69.82a5.5,5.5,0,0,1-2.14-1.71A19,19,0,0,1,335,777.9c-1.37-2.35-.5-5.54.39-7.88a71,71,0,0,1,3.41-7.54,37.48,37.48,0,0,1,1.74-3.4c.74-1.1,1.74-2,2.58-3a42.7,42.7,0,0,1,8.56-7.83c3.48-2.4,8-4,12.2-2.82,2.51.7,5.16,1.76,6.6,4.08a31.51,31.51,0,0,1,1.21,3.12C372,753.36,372.24,754.52,372.45,754.23Z"/><path class="cls-11" d="M347.93,809c.92-3.52,4.42-9.85,1.2-13.17a7.41,7.41,0,0,0-5.25-2.57c-3.83-.1-6,2.41-6.11,6.12-.19,5.55,3.89,16.06,10.68,11.38Z"/><path class="cls-6" d="M484.76,891.92a119.73,119.73,0,0,0,11.13-5.65,23.65,23.65,0,0,1,3.28-1.7c2.67-1.11,5.44-1.87,8-3.18,3.68-1.88,7-3.56,10.1-6.39,1.66-1.54,2.58-3.43,4.12-5,1.38-1.45,3-2.73,4.45-4.1a28.47,28.47,0,0,1,7.91-5.44c9.92-4.41,20.66-7,29.48-13.78a47.15,47.15,0,0,1,10.46-5.84c3.61-1.54,6.66-4,10.23-5.58-1.61,1.34-3.11,2.84-4.63,4.28a53.78,53.78,0,0,1-8.06,5.82c-2.85,1.86-5.25,4.23-8.06,6.11a46.33,46.33,0,0,0-5.8,5.16c-2.09,2-4.38,3.23-6.59,5s-3.9,3.82-5.93,5.62c-4.2,3.72-10.15,5.17-14.32,8.82a38.72,38.72,0,0,0-9.47,12.53c-.63,1.37-2,3.73-2.25,5.15s1,1.66,2.41,2.23c3.79,1.52,7.69,1.8,11.38,3.73a46.4,46.4,0,0,1,5,3.51c1.13.79,3,2.25,1.79,3.76-5.62-1.26-11.52-1.16-17.43-1.54-2.61-.17-4-.94-6.29-2a14.26,14.26,0,0,0-8.49-1c-4.24.66-7.95,2.87-11.92,4.43a39.24,39.24,0,0,1-11,2.35c-1.92.18-3.91-.31-5.79,0s-2.93.95-4.82.9-8.05,1.44-9.11-.28c1.32-2,3.65-3.16,5.67-4.34,2.44-1.44,4.82-3.2,7.25-4.56,1.2-.68,4.51-1.42,3.69-3.34-.46-1.07-2.13-1.18-3-1.79s-1.09-1.42-1.74-2c-1.24-1.08-2.85-1.55-4.25-2.42a20.91,20.91,0,0,0-4.68-2.4c-3-1-6.29-1-9.4-1.57A90.55,90.55,0,0,0,449,886c-7.77-.57-15.66-1.19-23.46-.67a30.14,30.14,0,0,1-6.53-.23,15.76,15.76,0,0,0-3.3.08c-2.25.13-4.42-.48-6.66-.54a44.4,44.4,0,0,1-7.22-.53c-2.88-.55-5.79-.35-8.68-.87-2.52-.46-5-1-7.48-1.42-2.06-.37-4-1.06-6.09-1-2.47,0-4.8,1-7.21,1.68a15.38,15.38,0,0,1-5.92.39c-1-.17-1.93-.65-3-.81s-1.78.24-2.73-.67c1.45-.78,3.92-.62,5.54-.8,2.77-.3,5.47-1,8.31-1.32,5.4-.54,10.12.53,15.45,1.24,3.3.44,6,2.29,9.21,2.69,2.25.28,4.65.31,6.91.5,4.19.35,8.89-.84,13.09-1.31,6.76-.76,13.56.09,20.24,1.28a123.21,123.21,0,0,0,14.67,2,82.57,82.57,0,0,0,11,.23,37.19,37.19,0,0,1,13.8,1.68c1,.3,2.05.62,3,1a17.57,17.57,0,0,1,1.95,1.11C485,890.32,487.74,891,484.76,891.92Z"/><path class="cls-6" d="M164,365.7a41.87,41.87,0,0,0,4.66,10.83c1.31,2.36,3.27,4.13,5.08,6.11,2.46,2.64,5.46,4.18,8.27,6.39,8.16,6.31,15.34,13.58,23.17,20.25,1.67,1.45,3,3.15,4.52,4.7,1.26,1.25,2.77,2.11,4,3.37a107.8,107.8,0,0,0,11.47,9.38c1.84,1.4,13.75,6.46,11.84,10.16-.77,1.46-3.45,1.49-4.83,1.49-4,0-8-2.32-11.3-4.31a116.24,116.24,0,0,0-12.23-6.5c-4-1.79-7.75-2.13-12-2.64-4.59-.55-12.66.83-13.87,6-1.67,7.19,5.25,13.23,9.89,17.86,3.13,3.12,6.5,5.92,9.5,9.18,3.65,4,6.49,9.43,9,14.17a81.56,81.56,0,0,0,4.79,7.46c1.59,2.37,2.84,4.89,4.41,7.28,3.81,5.75,8.07,11.59,13.57,15.77,3.15,2.38,6.88,3.81,10.38,5.56a130.66,130.66,0,0,0,12.39,5.25,52.07,52.07,0,0,0,11,3.08c2.24.31,6,.64,8.23-.22,4.83-1.85-1.74-9-3.24-10.64-2.55-2.73-5.14-5.41-7.64-8.18-1.76-1.94-4.35-4.94-3.08-7.77a4.67,4.67,0,0,1,5-2.3c4.29.61,8.36,4.87,11.7,7.35a161.11,161.11,0,0,1,21.73,19c2.57,2.75,5.21,5.43,7.75,8.25s5.86,6.46,6.34,10.4c.37,3.2-3.39,4-6,4.25-1,.07-3.23-.18-4.12.34-1,.62-.71.8-.1,1.64,1,1.32,2.51,1.74,3.61,3a29.28,29.28,0,0,0,2.73,2.92c2.41,1.92,5.23,4.7,8.18,6.1a48.53,48.53,0,0,0,5.3,2c4.92,1.75,9.45,3.47,14.7,4.29,2.42.36,4.82.37,7.3.5,2.1.12,4.12.81,6.25,1,1.44.07,5.81.57,6.28-1.16.39-1.48-1-3.41-.86-4.91.25-2.11,1.45-2.91,3.3-3.31,2.82-.59,5.23-.05,8.05.12,2,.09,4.22,1.15,6-.19-.31-.86-1.13-1.25-1.85-1.69a59.68,59.68,0,0,0-7-3.25c-5.54-2.32-11.32-4.29-16.61-7.15a85.68,85.68,0,0,1-12-8.24c-4.6-3.59-9.95-6.9-13.27-11.88-1.46-2.13-3.53-6.77-1.86-9.21a11.09,11.09,0,0,1,3-2.86c.92-.59,2.29-.54,3.12-1.22,1.49-1.26-.89-3.66-1.9-4.75-3.28-3.41-6.34-7.21-10-10.25-17.66-14.74-39.1-25-54.85-42-3.67-4-7.16-8-11.57-11.2a133,133,0,0,0-13.43-8.4c-4.59-2.54-7.94-6.51-11.43-10.39-1.44-1.63-2.48-3.5-3.89-5.16a39.29,39.29,0,0,0-6.06-5.3c-4.33-3.5-9.25-5.82-13.75-9-5.8-4.07-11.57-8.49-17-13.06-5.19-4.42-9.77-8.52-13.64-14.18-1.84-2.68-3.89-5.55-5.47-8.38-.61-1-1-2.42-2.1-3C162.78,360.2,163.5,363.87,164,365.7ZM301.33,486a10.64,10.64,0,0,1,7.6.54,27.29,27.29,0,0,1,7,4.18c1.4,1.31,1.47,2.67,1.78,4.42s.34,2.65-.7,4.2c-1.28,1.91-2.1,2.36-4,3.55l-.42-.45c-4.38-.93-7.06-1.09-10.29-3.74a21.8,21.8,0,0,1-3.84-3.26c-1.16-1.57-3.27-4.93-2.18-7C297.19,486.53,299.55,486.59,301.33,486ZM209,456.23c-3.1-.56-6-2.73-8.2-4.94-3-3-6.33-6.2-7.91-10.27-.88-2.32-.31-3.75,2.27-3.89,3.21-.16,6.08,1.29,8.73,2.85a60.57,60.57,0,0,0,8.45,3.91,32.4,32.4,0,0,1,4.12,1.43,6.5,6.5,0,0,0,3,.95,17.44,17.44,0,0,1-2.64,6.86C218.93,456,212.41,456.88,209,456.23ZM228.3,473c-1.15-2.47-2.26-5-3.28-7.49.93-.16,1.11-.86,1.84-1.27.58-.37,1.17-.12,1.76-.63,1.68,1.36,5,1.32,5.93,3.64.17.42-.1,1.08.07,1.54s.52.66.67,1.06a8.73,8.73,0,0,1,.26,3.17c-.24,1.6-1.58,2-3.12,2.08C230.61,475.19,229.5,474.28,228.3,473Zm27.39,25.35c.78.88,6.11,5.12,4.66,6.7-.83.91-3.55-.14-4.51-.22-3.84-.32-6-2.16-9.77-4.24,1,1.48-2.39,1-5.38-1-3.67-2.51-7.4-5.41-9.87-9.19-1.48-2.3-4.33-7.31-3.13-10.16,1-2.37,3.61-3.06,5.93-2.43,5,1.38,8.62,4.24,12.09,8C249.4,489.8,252.19,494.35,255.69,498.39Zm-6.24-54.76c4.45,2.67,8.65,6,13,8.93a53.16,53.16,0,0,1,12.92,11.94c2.48,3.27,5.84,7.54,5.14,12-.4,2.47-2.7,4.57-4.77,5.87a25,25,0,0,1-15.06,4.4,7.42,7.42,0,0,1-5.17-1.74,31.72,31.72,0,0,0-3.63-2.51c-3.42-2-6.22-4.48-9.46-7.05,4.32,2.4,2.71.62.49-1.7a17.42,17.42,0,0,1-3.72-5.8c-1.26-2.81-3.24-5.31-4.26-8.22-1.9-5.5-5.43-13.47-2.33-19.07S245.85,441.48,249.45,443.63Z"/><path class="cls-6" d="M593.08,749.87c4.83-8.14,9.48-12.5,8.31-21.29-.43-3.25-1.92-3.82-4.76-5.55s-6.22-1.7-9-3.33a24.56,24.56,0,0,1-5.47-5c-2.24-2.42-3-3.11-6.35-3.24-2.93-.1-8.41-.83-10.9-2.5-2.25-1.51-2.76-4-2.59-6.41s.38-7,2-8.47c-.94-2.5-4.24-3.3-6.57-3.92-7.42-2-15.82-2.06-23.44-3.15-4.89-.71-9.74-1.72-14.65-2.33-4.43-.54-9-.24-13.35-1.08-8.39-1.61-17.09-3.71-25.31-6.16-7-2.1-14.25-3.56-21.32-5.61-7.24-2.11-14.18-5.1-21.14-8-8.06-3.29-17.28-3.76-25.83-4.8-11.48-1.39-22.95-1.06-34.47-2.67-11.21-1.57-23.69-3.35-34.07,1.87-10.9,5.48-20.07,13.88-31.35,18.71-5.26,2.26-10.45,5.4-15.47,8.19a42.24,42.24,0,0,0-6,3.42c-2.08,1.65-3.66,3.82-5.82,5.37-5.35,3.85-9.17,7-13.12,12.37s-7.85,10.55-10.9,16.51A138.42,138.42,0,0,1,253.09,737c-3.3,4.92-5.49,8.72-6.48,14.51-1.16,6.74-2.53,18-9.73,21.39-1.34-2.29.07-7,.82-9.33,1.45-4.51,4.22-8.41,6.34-12.61a99.2,99.2,0,0,0,5.2-12.43c1.49-4.37,1.63-9.14,3.25-13.53a124.21,124.21,0,0,1,9.4-20.13,10.87,10.87,0,0,0,1.4-8c-.77-3.38-3.06-4.58-1.72-8.46,1-2.9,2.42-5.23,5.25-6.63,1.64-.82,2.13-.06,3.37-2.19a8.22,8.22,0,0,0,.8-5c-.34-5.64-8-10.14-.85-14.83,3.11-2,8-2.25,11.57-2.41,6-.28,12-.13,18.08,0,4.6.1,9.21-.76,13.78-1.09,2.14-.16,4.27.18,6.39,0,3-.28,5.06-1.94,7.81-2.78a35.27,35.27,0,0,1,5.3-1c2.22-.28,4.2-1.11,6.32-1.49,4.14-.74,8.42.35,12.59-.73,3.9-1,7.75-2.75,11.66-3.8,4.35-1.17,7.71-1.16,12.18-1.28,2.37-.06,4.64-.82,7-.73,2.57.11,5.16.59,7.75.74,7.75.46,16.13,3.06,23.45,5.5,7.86,2.62,16.06,4.23,24,6.55,6,1.77,12.69,3.72,19,3.79s12.22-7.77,18.39-5.58c7.87,2.79,9.62,10.82,15.5,15.83,7.53,6.42,18,5,26.55,2.26a51.44,51.44,0,0,1,14.7-2.12,36,36,0,0,1,14.17,3.39c4.7,2,9.82,3.72,14.26,6.18,3.1,1.71,7.6,3.27,10.31,5.55s2.41,7.76,3.46,11.06c1.21,3.77,3.56,6.12,7,8,11.61,6.37,31.73,8.85,31.28,25.72-.12,4.47-2.91,9.88-5.55,13.5S603.37,751.7,593.08,749.87Z"/><path class="cls-11" d="M913.1,746.94c.8-5,2.18-12.09,2.82-17.5.5-1.65,0-3.31.09-5,.1-2.7.59-4.79.31-7.54-.59-5.7-1-11.35-1.83-17-.84-5.86-.68-12-2.07-17.71a75.05,75.05,0,0,0-5.25-14.08c-1.16-2.43-3-4.56-3.83-7.13-1-3.08-1.14-6.07-2.63-9.05-1.67-3.37-4-6.39-5.68-9.77-2-4.1-3.82-8.35-5.73-12.51-4-8.84-7.15-17.84-10.75-26.85s-5-18.86-7.51-28.3c-4.31-16-14.67-31.55-25.5-43.88-4-4.6-7.28-9.64-11.51-14.17-3-3.28-6.12-6.53-9.14-9.84-3.41-3.73-8.11-5.9-12.32-8.65-4.8-3.14-9.07-6.75-14-9.63-5.21-3.05-10.67-5.71-16.11-8.32-3.35-1.6-6.93-2.58-10.34-4a58.64,58.64,0,0,0-11.83-3.31c-1.94-.42-3.7-1.27-5.6-1.77-2.77-.74-4.85,0-7.56-.16-3.77-.24-7.85-1.4-11.63-1.81-4.54-.5-9-.48-13.22-2.28-.23-1.69.92-3.51,1.46-4.9,1.55-.22,3.49.75,4.9,1.22a28.07,28.07,0,0,0,5.58,1.29c5.15.57,10.1,1.13,15.21,1.82a79.47,79.47,0,0,1,13.3,2.72,47.22,47.22,0,0,0,6.9,2c3.32.58,5.83,2.1,8.74,3.63,3.64,1.92,7.8,2.9,11.56,4.22,2.55.89,4.73,2.63,7.31,3.38,3.19.93,6.31,1.91,9.49,2.92,3.75,1.18,11,4.73,12-1.1.41-2.35-.69-4.76-1.76-6.79-1.75-3.34-3.55-6.55-5.14-10-2.65-5.76-3.62-11.6-5.45-17.61-1.29-4.21-2.58-8.53-3.93-12.77-.57-1.77-1.54-3.49-2.06-5.24-.62-2.06-.35-3.62-.55-5.63-.35-3.64,4.12-8.87,2.75-12.31-1.61-4.06-6-16.82-9.37-19.41-4.26-3.3-12.85,5.25-17.27,2.18a49.13,49.13,0,0,1-7.14-5.45c-4.19-4.22-7-10.38-10.5-15.29-7.51-10.41-16.87-18.71-26-27.54-4.76-4.57-10.68-8.17-14.6-13.69-2.33-3.28-3.05-7.84-5.16-11.42a74,74,0,0,0-7.88-11.63c-4.32-4.88-8.29-9.13-11.72-14.76-5.74-9.43-11.3-19.37-18.17-28A52.16,52.16,0,0,1,665,249.41a38.91,38.91,0,0,1-1-7.88c-.09-2,.94-3.51,1-5.29,1.6,2.31,6.18,2.62,6.89,6s-.91,5.93.66,9.39a89.31,89.31,0,0,0,6.06,11.49c1.44,2.23,3.4,3.9,5.15,5.87,2.18,2.46,3.44,5.34,5.51,7.84,4.14,5,8.84,9,12.36,14.51,3.22,5,6.58,9.86,9.72,14.89,2.53,4.07,6,7.14,8.71,11.1a43.88,43.88,0,0,0,4.83,6.55,31.88,31.88,0,0,1,4.18,4.89c2.16,3.42,4.32,7.25,6.76,10.54,2.14,2.87,5.21,5.27,7.57,8,1.74,2,2.58,4.26,4.11,6.34,1.36,1.83,3.32,3.43,4.87,5.12,3,3.29,6.37,5.65,9.86,8.36a84.09,84.09,0,0,0,12,7.38c2.7,1.44,6.6,3.81,9.84,3.42,6-.72,9.18-9.64,10.71-14.45.89,1.4,1,3.34,1.81,4.82.67,1.24,1.74,1.83,1.27,3.52s-2.67,3.37-3.35,5.15a13,13,0,0,0-.56,5.16c.06,8.56,5.22,17.06,9.6,24.41,7.41,12.41,14.06,25.43,15.32,40.14.45,5.2,2.06,10,2.52,15.24a116.12,116.12,0,0,0,2,12.57,71.69,71.69,0,0,0,7.93,20.62c3.3,5.88,7.06,11.3,10.73,16.89,4.81,7.32,12.35,12.4,16.94,19.94,2.15,3.52,5.65,6,8,9.36,2.59,3.67,5.18,7.68,7.54,11.47A64.34,64.34,0,0,1,879.22,563c1.39,3.56,2.24,7.54,3.87,11,3.82,8,8.11,15.9,10.71,24.46,1.71,5.65,4.15,10.54,5.52,16.32,1.43,6,4.89,11.35,6.9,17.19,5.27,15.36,7.72,31.62,14,46.58,2.42,5.79,5.63,11.37,8.37,17a26.61,26.61,0,0,0,3.54,5.1c1.7,2.21,1.25,2.46.35,4.87-1,2.69-2.43,5.21-3.67,7.83-1.5,3.16-1.13,5.87-1.94,9.07-.38,1.52-1.3,2.28-1.79,3.64-.68,1.88-.75,3.77-1.4,5.64C922.52,735,919.86,737,913.1,746.94Z"/><path class="cls-5" d="M838.8,555.75c.27-4.18,1.1-8.43-.33-12.43a56,56,0,0,0-3-6.81,109.77,109.77,0,0,0-8.38-13.17c-4.35-6-10.62-10.39-16.05-15.35-6.13-5.59-15.71-10.13-24.13-10.06-4.07,0-9,1.17-11.92,4.09-4.17,4.21-4.91,10.66-4.76,16.26.35,13.39,10.85,26.81,19.94,35.91,6,6,13.84,11.33,22.66,9.61,2.33-.46,4.24-1.59,6.47-2.24a68,68,0,0,0,7.39-2.33,22.07,22.07,0,0,0,5.75-3.1C833.81,555,836.71,553,838.8,555.75Z"/><path class="cls-5" d="M846.75,560.65c-.78,2.21-3.8,7.34-3.09,9.86a7.53,7.53,0,0,0,2,2.21,8.32,8.32,0,0,0,5.9.79c3.59-1,5.73-6.44,4.35-9.74-1.15-2.74-4.43-5.82-7.53-5-2.8.76-5.18,5.09-3,7.61Z"/><path class="cls-12" d="M290,163.7c-4.05,3.64-7.94,7.46-11.92,11.17l-12.28,11.47c-3.79,3.54-7.57,5.56-11.64,8.52-8.17,5.89-15.34,14.41-22.69,21.27a163.08,163.08,0,0,0-24.74,29.22c-4,6-9.18,10.75-12.67,16.94-2.52,4.48-5.4,8.8-8.07,13.21-5.74,9.39-14.08,16.56-20.19,25.46a82.37,82.37,0,0,0-11,22.63c-2.8,8.88-6.43,17.15-8,26.31-1.49,8.72-4.19,17.13-6.34,25.66-2.34,9.19-1.32,19-5.54,27.8-1.61,3.36-3.75,6.2-5.6,9.26-1.5,2.47-1.91,4.89-5.09,6.57-2.71,1.42-5.29.42-7.37,3-2.32,2.88-4.41,8.82-5.93,12.32-4.91,11.33-5.18,25.86-6.35,38-.93,9.83-3.34,19.08-3.47,29-.1,7.59-1,15.77-.27,23.14,1,8.73,4.86,18.22,8.47,26.17,1.51,3.33,1.82,7,3,10.19,1.33,3.47,5.85,6.74,8.35,9.42,6.88,7.37,15.32,14.84,18.11,24.48.75,2.71.9,5.81,2,8.46,1.28,3.28,3.21,6.1,3.56,9.76.51,5.39-.31,12.45-4.66,16.11-3.82,3.17-10.41,3.38-14.72,5.75-4.58,2.55-11.88,7.51-11.27,13.82.93,9.5,7.16,19.26,11.56,27.3,6.82,12.53,18,22,23.92,34.94,1.48,3.24,1.64,7.07,2.85,10.07,1.37,3.42,4.75,7.9,7.22,10.69,3.74,4.14,7.93,7.68,10.65,12.55,2.36,4.18,6.15,6.86,8.81,10.8,1.92,2.91,4.88,7.42,4.44,11.12-.36,3-3.28,5.14-3.92,8-1.41,6.23,4.15,16.08,6.93,21.11,3.74,6.8,10.67,12.75,16.14,18.47,3,3.15,4.49,6.81,7.16,10.09a41.66,41.66,0,0,1,3.61,5.72c1.1,1.85,2.72,2.91,3.94,4.65,4.45,6.14,8.1,13.33,11.73,19.88,4.69,8.44,11.13,14,19.58,19.21,5.59,3.47,11.26,6.83,16.88,10.23,6.27,3.78,13.28,6.63,18.95,11.23,11.7,9.49,24.94,17.21,36.45,26.78,1.12.91,2.23,1.82,3.42,2.71a443.29,443.29,0,0,1-93.69-63.43Q214,846.55,198.84,830.32a445.21,445.21,0,0,1-82.47-125,437.24,437.24,0,0,1-15.92-41.66c-51.93-159.91-11-342.53,120-464.86A444.69,444.69,0,0,1,444.14,86c-1,.6-2,1.21-3,1.77-9,5-20.43,5.63-29.84,9.33-13.49,5.27-27.64,7.17-40.69,13.81-6.61,3.38-13.11,6.87-20,9.66-5.7,2.31-10.48,6.32-15.68,9.63-10.74,6.88-21.13,13.47-30.47,22.28C299.91,156.79,294.61,159.56,290,163.7Z"/><path class="cls-13" d="M135.7,572.37c0-6.74.35-12.93-.65-19.58a54.83,54.83,0,0,1-.18-7.9c0-2.41-.3-4.81-.46-7.22-.47-7.21-4.35-14.37-11.55-16.85a8.4,8.4,0,0,0-6.58-.09,9,9,0,0,0-5.09,4.67c-1.21,3.17-.23,6.87-.66,10.14a22.17,22.17,0,0,0,.33,4.6c.11,1.47,0,2.93.08,4.4a35.33,35.33,0,0,0,.8,6.48c.66,2.38,2,4.21,3.18,6.3a30.49,30.49,0,0,0,7.38,8.73,17.18,17.18,0,0,1,2.38,1.7,8.22,8.22,0,0,0,1.66,1.62,22.6,22.6,0,0,0,4.54,1.67,8.55,8.55,0,0,0,3.55.22C136.16,570.89,136.59,569.48,135.7,572.37Z"/><path class="cls-14" d="M115.44,513.77c-4.1-3.93-7.53-6.34-7.17-12.28a20.35,20.35,0,0,1,1.49-7.32c.83-1.93,1.47-3.46,3.86-3.1a7.21,7.21,0,0,1,4.79,3.52c1.49,2.52,1.61,5.28,1.75,8.07,0,1,.39,2,.38,3a7.34,7.34,0,0,1-.79,2.57,12.72,12.72,0,0,1-1.62,3.86c-1,1.44-2,1-3.53.73Z"/><path class="cls-15" d="M100.45,663.7a437.24,437.24,0,0,0,15.92,41.66,445.21,445.21,0,0,0,82.47,125Q214,846.54,230.33,860.9A444.74,444.74,0,0,0,487.5,970.53,444.29,444.29,0,0,1,244.76,862.39Q228.43,848,213.28,831.8a445.25,445.25,0,0,1-82.48-125,434.31,434.31,0,0,1-15.91-41.65c-51.94-159.91-11-342.54,120-464.86A445.73,445.73,0,0,1,578.7,81.83a446,446,0,0,0-358.23,117C89.46,321.17,48.52,503.79,100.45,663.7Z"/><path class="cls-16" d="M591.27,156.83a18.61,18.61,0,0,0,1.42-8.83c-1.76.48-3.1-1.13-4.8-1.1a17,17,0,0,0-3.16.73,5.12,5.12,0,0,0-4,3.82c-.61,2.05-1,3.81.44,5.57,2,2.49,6.1,1.73,8.47.28Z"/><path class="cls-16" d="M563.64,146.91c-5.82.55-11.8,1.21-17.65,1.43a17.23,17.23,0,0,1-7.33-1.63c-1.22-.56-2.36-1.35-1.37-2.83s3.33-1.35,4.84-1.4a40.44,40.44,0,0,1,11.2.76c1.15.29,2.19.67,3.28,1s2.83,1.54,3.9,1.46Z"/><path class="cls-17" d="M319.43,250.42a53.26,53.26,0,0,0,5.16-8.84c-2.45-1.46-7.55,1-9.41,2.57a31.76,31.76,0,0,0-6,6.44c-1.09,1.61-5.95,5.94-5.13,8.3.64,1.82,2.46.44,3.46-.14,3.61-2.13,7.05-5.18,10.32-7.86Z"/><path class="cls-8" d="M148,678.88c3.46,4.93,7.51,13.64,13,16.51a11.42,11.42,0,0,1,2.32,1.7c2.75-2.51-2-10.4-3-13.27-1.88-5-3.65-8.81-7.26-12.69-1.73-1.86-4.9-5-7.79-4.58-4.59.72.3,9.41,1.77,11.24Z"/><path class="cls-17" d="M317.45,877.85c-9.39-2.5-25.93-4.68-31.76-14.67,3.18-.61,6.34.31,9.36,1.18,4,1.17,7.9,1.77,11.95,2.57,3,.6,5.59,1.86,8.58,2.42,12.22,2.3,24.24,6.91,35.9,11.57,8.1,3.24,13.56,10,21.08,14.64,12.35,7.62,25.55,13.05,37,22.26,1.79,1.43,10.25,8.77,8.68,10.67a73.62,73.62,0,0,0-8-4.84c-4.92-2.38-7.77-5.81-11.82-9.18a162.81,162.81,0,0,0-13.22-10.05,69.85,69.85,0,0,0-9.84-5.1,32.67,32.67,0,0,1-5.72-2.82c-2.3-1.54-4.81-2.86-7.18-4.35-1.79-1.13-4-1.83-5.7-3-2.16-1.5-3.47-3.92-5.71-5.43-3.72-2.53-7.56-4.86-11.36-7.22a22.64,22.64,0,0,0-10.45-3C326.55,873.33,320.39,874.53,317.45,877.85Z"/><path class="cls-17" d="M419.63,914.61c7.34-2.35,15.8-3.51,21.33-9.19.94-1,2.86-2.62,2.6-4.28-.3-1.87-2.05-1.61-3.24-2.1a31.82,31.82,0,0,0-6.65-2.14c-2.19-.42-4-1.57-6.25-1.86-2.8-.36-5.47-1-8.26-1.49s-5.48.27-8.33.19-8.32-.55-9.26,3.22c-.89,3.55,2.57,5.2,4.17,7.61,2.35,3.54,2.94,5.74,6.82,7.37,1.46.62,2.91,1.75,4.54,2,2,.36,4.37-.15,6.51,0Z"/><path class="cls-17" d="M787.27,605c-.11,1,3.09-14,1.21-16.4s-.84-.92-3-.24c-3.28,1-3.08,1.33-3.67,4.57-.21,1.14-.81,1.87-.94,3.14a24.81,24.81,0,0,1-.29,3.33c-.49,2.06-1.21,2.13.4,3.83,1.1,1.15,2.14,2,3.2.08Z"/><path class="cls-16" d="M920.73,429.89c-.58-4.82-.37-10.51-1.58-15.21a6.68,6.68,0,0,0-.66-1.81c-.79-1.33-1.76-2.47-3-1.05s-1.56,6.43-2,8.35c-1.55,6.38.16,14.19,1.38,20.52.54,2.79.86,8.36,2.68,10.54,2.8,3.34,3.21-1.75,3.18-3.88,0-1.82-.52-3.67-.54-5.55a22.52,22.52,0,0,1,.7-4.82c.18-1-.06-2.09.05-3.1.21-1.92,1.26-3.59,1.39-5.51Z"/><path class="cls-16" d="M910,465.94a77,77,0,0,1-4.64,14.32c-2.69-1.06-1.74-6.7-1.28-8.82.67-3.12.91-4.56,4.34-5.55Z"/><path class="cls-17" d="M544.17,445.48c.68-2.26,2-5,2.27-7.35a5.49,5.49,0,0,0-.05-1.46c-2.13-.88-3.69,4.46-4.2,5.87s-2.87,4.7-1.74,6.25a6.81,6.81,0,0,0,2.93-3.34Z"/><path class="cls-17" d="M483.18,527.3c1.7.47,3.26,1.31,5,1,.94-.19,1.87-.25,2.8-.49,1.76-.47,3.48-.8,5.19-1.42s3.61-.88,5.27-1.63a52.53,52.53,0,0,0,4.84-2.62,35.77,35.77,0,0,0,5.38-3.37c.9-.79,1.79-1.64,2.64-2.47a18.67,18.67,0,0,0,2.45-3.46c1.32-2.08,2.42-4.25,3.6-6.41a5.32,5.32,0,0,0,.64-4.23c-.73-1.81-2.87-1.7-4.57-1.6a7.34,7.34,0,0,0-3.19,1c-1.14.6-2.35,1.09-3.44,1.76a33.83,33.83,0,0,0-3,2.23c-1.2.92-2.52,1.62-3.74,2.5-2.07,1.51-3.85,3.28-5.77,5-.94.82-2,1.57-3,2.31a33.86,33.86,0,0,1-3.1,2.24,31.59,31.59,0,0,0-5.2,3.31,10.91,10.91,0,0,0-2.91,3.57C482.69,525.33,482.52,526.84,483.18,527.3Z"/><path class="cls-17" d="M477.93,524.55a21.7,21.7,0,0,0-1.12-3.42,5.18,5.18,0,0,1-2.1-.85,4.3,4.3,0,0,0-2.72-.54,3.09,3.09,0,0,0-1.71.51c-.37.4-.19,1.47,0,2a5.26,5.26,0,0,0,3.49,2.79c1.08.31,3.17.74,4-.26Z"/><path class="cls-10" d="M469.11,545a15.19,15.19,0,0,0,4.3-.84c.56-.25,1.13-.47,1.69-.72a12.94,12.94,0,0,0,3.68-2.87c1.3-1.31,2.61-3.6,1-5.11a10,10,0,0,0-3.15-1.88c-1.63-.65-3.28-1.33-5-1.85a38.73,38.73,0,0,0-4.52-1.53,15.65,15.65,0,0,0-4.48-.23c-3.11.35-6,1.75-7.44,4.63-.64,1.29-1.22,2.92-.62,4.3a15.47,15.47,0,0,0,3.67,4.76,11.6,11.6,0,0,0,3.93,2.12,10.31,10.31,0,0,0,2.94.27C466.48,546.13,468.53,546.09,469.11,545Z"/><path class="cls-17" d="M453.93,531.64c-1.11.68-2.24,1.31-3.41,1.9-.28-.28-.87-.06-1.25-.3a4.22,4.22,0,0,1-1-1.09c-.61-1.12.17-2.71.84-3.61a5.52,5.52,0,0,1,3.07-2,6.83,6.83,0,0,1,3.86-.31c.72.24,1.27.58,1.38,1.37A3.6,3.6,0,0,1,457,530a4.33,4.33,0,0,1-1.84,1.32c-.47.19-1.74.29-2,.72Z"/><path class="cls-17" d="M424.82,443.84c-3,.34-2.44-1.12-2.32-3.61.09-2,.68-5.68,1.93-7.26,1-1.23,4.34-2.08,5.39-.6s-.65,4.59-1,6.06A27.89,27.89,0,0,0,428,443a15.58,15.58,0,0,0,1.46,7.63c.72,1.6,1.6,3.13,2.47,4.64,1,1.7,2,3.37,3.09,5,3.42,5.16,6.75,8.39,12.64,10.63,2,.77,7.35,2.44,6.61,1.17a36.48,36.48,0,0,0,9.9-3.76c-.68-1.63-.51-3.29-1.38-4.91-1.3-2.42-2.9-4.56-3.94-7.12-1.5-3.71-2.68-6.8-5.36-9.79-2.28-2.54-3.73-5.76-5.73-8.5A8.36,8.36,0,0,0,436,436.52a16.46,16.46,0,0,0-5.74,9.8Z"/><path class="cls-10" d="M378.29,564c3.39-.79-9.59,2.53-10.71,2.3a3,3,0,0,1-1.87-1.08c-1.37-1.48-1.27-2.33-.54-4,1.88-4.16,8.06-6.61,12.35-7.12,3.11-.37,7.76,1.71,7.72,5.17,0,1.76,0,2.29-1.2,3.52-1.34,1.39-2.65,1.61-4.19,2.65l-.52-.37Z"/><path class="cls-6" d="M608,795.38a112.34,112.34,0,0,0,8.6-9.9,17.35,17.35,0,0,1,4.68-4.36,42.4,42.4,0,0,0,7.26-6,21.65,21.65,0,0,1,2.5-2.39c1.16-.77,2.61-.8,3.9-1.2,2-.64,3.89-2.05,5.79-3.06,1.64-.88,2.72-2.64,1.82-4.56-.43-.9-.78-2-1.24-2.76-.71-1.23-2.31-2.28-3.22-3.36-1.61-1.93-2.07-4.44-2.87-6.79-.94-2.74-3.3-4.3-3.33-7.43,0-1.9.84-3.49,1.31-5.38s.73-3.87,1.14-5.82a100.26,100.26,0,0,1,4.17-15c1.79-4.76,5.15-8.94,6.91-13.73,1.37-3.69,2.87-7.34,3.1-11.31a37.54,37.54,0,0,0-.58-11c-.37-1.5-1-2.75-1-4.31a69.92,69.92,0,0,1,1.14-8.18c1.7-11.52,3.75-23,5-34.61a116.8,116.8,0,0,0,.15-15.64c0-1.63-.15-3.31-.35-4.91-.29-2.24-1.67-4.76-2.51-6.89-.94-2.38-1.94-4.8-2.69-7.24-.58-1.9-1.49-3.46-2.18-5.32-.55-1.48-1.49-2.19-1.51-3.81,0-1.27,1-3.12.07-4.09-2.59.93-3.26,5.9-2.68,8.18a46,46,0,0,0,3.76,9.78,26.49,26.49,0,0,1,2.42,6.41c.52,2.14,1.53,4,1.8,6.24.23,2,.08,4,.34,6a61.2,61.2,0,0,1,.42,7.53c0,3.69-.22,7.74-1.61,11.19-.78,1.94-1.43,3.9-2.22,5.78-1,2.38-2.53,3.66-4,5.63-1.25,1.69-2.17,3.41-4,4.72a28.65,28.65,0,0,1-5.24,2.86c-3.42,1.51-6.25,2.55-9.08,5.2-2,1.9-6.54,5-5.63,8.37.43,1.57,2.45,2,4,2.13s3.16-.69,4.6-1.66c1.91-1.29,3.41-3.41,5.17-4.92,2-1.71,2.95-1.93,4.64-.08,2,2.25,4.06,5.09,3.94,8.29-.13,3.43-1.46,6.53-.89,9.89.61,3.61-.27,7.5-1.61,11-2.11,5.46-2.51,11-3.88,16.68-1.47,6.09-4.82,10.69-7.85,16.08-2.8,5-5.07,13.58-3.68,19.2.63,2.52,1.83,4.64,2,7.12.07,1.21.4,1.85-.17,3a20.06,20.06,0,0,1-2.47,3.47,110.06,110.06,0,0,0-12.54,18c-1.34,2.43-5.07,8-2.81,10.81C606.62,793.35,606.5,793.52,608,795.38Z"/><path class="cls-6" d="M609.7,681.26l-4.81,6.26c-.28,1.49-.93,2.23-2,2.24a8,8,0,0,1-1.89.13c-1.51.07-2.1.28-2.9-.95-1.49-2.27.37-6.58,2-8.25,1.32-1.35,3.34-3.79,5.1-4.24,1.94-.5,4.79,1.68,3.41,3.69Z"/><path class="cls-6" d="M315.91,480.34c-11.93-9-24-17.82-36.11-26.57a54.13,54.13,0,0,1-7.61-6.73,14.15,14.15,0,0,1-2-3.06c-.78-1.31-2.06-2.14-2.8-3.47-1.28-2.3-1.84-5-2.88-7.36-.68-1.54-1.17-3-1.75-4.6-.77-2.09-2.22-3.95-3.32-5.9a81.05,81.05,0,0,1-3.62-8.16c-1-2.44-2.42-4.49-3.16-7.11a48.53,48.53,0,0,1-1.94-7c-.24-1.81-.8-3.41-1.16-5.2-.28-1.43.06-2.81-.19-4.21-.66-3.69-4.39-6.74-5.38-10.46-.63-2.38.1-4.88-.72-7.29a10.65,10.65,0,0,0-2.65-3.91,32.13,32.13,0,0,1-3.1-4.76c-1.69-2.81-3-5.76-4.44-8.7-1.11-2.27-2.66-4.31-3.68-6.6a39.41,39.41,0,0,1-1.88-6.09,21.35,21.35,0,0,1-.43-9.06c.11-.59,0-1.8.95-1.78,1.27,0,.56,1.47.53,2.08-.21,4.57,1.16,8.5,3.3,12.58a131,131,0,0,0,9.07,14.66c.81,1.14,2,2,2.75,3.12s1.09,2.67,1.84,3.92c1.2,2,2.67,3.72,3.53,5.94.75,1.95.72,4,1.37,6a39.41,39.41,0,0,1,1.82,6.71,89.43,89.43,0,0,0,2.1,9.66c1.07,4.05,2.07,9,4.18,12.64,3.45,5.95,4.3,12.79,7,19.06,1.6,3.71,5.11,6.55,7.81,9.45l7,7.51c1.5,1.62,3,3.21,4.52,4.84,1.86,2.05,4.66,3.47,7,5a28.86,28.86,0,0,0,5.91,3.2c2.14.79,3.83,2.34,6,3.1,1.31.46,2.93,1.3,4.29,1.13a17,17,0,0,0,3.62-1.19c4.2-1.81,4.9-6.37,3.68-10.32-.74-2.43-1.7-4.74-2.48-7.13a16.55,16.55,0,0,1-.71-7.38c1.09,1.25,2,3.86,2.56,5.39a18.17,18.17,0,0,0,3.77,6c3.07,3.44,5.09,9.37,5.74,13.82a23,23,0,0,1,.07,6c-.22,2.22.22,4.46-.08,6.67a8.79,8.79,0,0,1-1.35,4.41C321.4,481.12,320,480.6,315.91,480.34Z"/><path class="cls-6" d="M362.85,221.51c-5.15,2.27-10.39,4-15.73,5.75a37.37,37.37,0,0,1-6.33,1.68c-.84.12-2.45.58-3.15-.11a7.55,7.55,0,0,1,1.72-1.71,23.34,23.34,0,0,1,4.29-3,33.37,33.37,0,0,0,7.74-5.1c3.18-3,6.61-5.68,9.84-8.65,4-3.68,7.15-8.21,11.08-12a89.45,89.45,0,0,1,7-6.38c1.17-.91,2.48-1.64,3.65-2.56s2.12-1.89,3.21-2.78c1.7-1.38,3.5-2.72,5.33-3.94a40.55,40.55,0,0,1,6.12-3c2.12-.95,4.08-2.07,6.09-3.2s4.28-2,6.32-3.1a37.92,37.92,0,0,0,4.6-2.91,7.93,7.93,0,0,0,2.19-2.13c-.78-.58-3,.49-3.75.69-1.73.44-3.48.48-5.19,1.06a60.27,60.27,0,0,0-6.71,2.43,81.74,81.74,0,0,0-8.77,4.67c-1.2.76-2.42,1.5-3.59,2.3-1.91,1.32-4,2.2-5.95,3.44-2.76,1.73-5.7,3.14-8.46,4.92-1.59,1-3,2.38-4.51,3.51a31.88,31.88,0,0,0-5.19,5.13,100.56,100.56,0,0,1-9.29,8.82c-3.49,3.12-7.75,4.69-12,6.55-10.06,4.42-19.06,11.23-29.67,14.44-.68.21-8.22,2.57-8.11.8,0-.26.4-.39.54-.56.41-.49.7-1.05,1.11-1.54a36.76,36.76,0,0,1,3.07-2.91c1.53-1.42,4.71-3.51,5-5.83.16-1.42-1.87-1.31-2.91-1.41-1.51-.15-3.06-.77-4.56-1.06-.86-.17-1.64-.51-2.48-.72s-1.93-.25-2.88-.47-1.63-.57-2.47-.86a10.13,10.13,0,0,1-2.82-1,3.84,3.84,0,0,1-1.6-2.14,8.23,8.23,0,0,1,.81-3.21,8.85,8.85,0,0,1,2.32-2.49c2.54-2.16,6.38-2,9.48-2.53,4-.63,7.92-1.22,11.61-2.91A30.62,30.62,0,0,0,324.6,195a46.22,46.22,0,0,0,5-4.46c5.07-4.73,9.84-9.73,14.93-14.45a79.5,79.5,0,0,0,7-7.14,29,29,0,0,0,2.3-3.08,13,13,0,0,0,1.58-2.95c.36-1.84-2,.17-2.49.64a51.2,51.2,0,0,1-8,6c-.75.48-5.11,2.38-5.78,1.15-.13-.24.21-1.11.24-1.34a10.73,10.73,0,0,1,.56-2.63,24.17,24.17,0,0,1,2.93-6.56c1.14-1.59,2-3.21,3.22-4.73,1.41-1.71,2.64-3.52,4-5.29s2.74-3.8,1.75-5.95c-1.3-2.8-5.44-1.51-7.71-.7a46.36,46.36,0,0,0-6.18,2.43c-2.18,1.17-4.25,2.61-6.38,3.88a56.91,56.91,0,0,0-7.71,5.68c-2.37,2.05-4.95,4-7.21,6.16-3.7,3.55-8,6.33-12.11,9.34-2,1.44-4.09,2.64-6.06,4.07-2.36,1.71-4.73,3.56-7.22,5.07-4.36,2.66-8.56,5.57-12.87,8.31-2.41,1.52-4.63,3.41-6.91,5.12-2.7,2-4.94,4.56-7.52,6.73-4.37,3.7-8.83,7.27-13,11.16-4,3.76-7.73,7.94-11.39,12.07q-2.79,3.15-5.59,6.28c-1.91,2.13-3.53,4.43-5.37,6.61-4.49,5.3-8.81,11-13.9,15.76-4.12,3.85-9,6.77-13.12,10.62-2.25,2.1-4.33,4.35-6.41,6.62a51.74,51.74,0,0,0-7.33,11c-3.21,6-5.41,12.43-8.5,18.48-2.83,5.54-6.48,10.61-9.39,16.1-1.89,3.57-2.66,7.56-3.34,11.53a22.24,22.24,0,0,0-.42,4.74,31,31,0,0,1-.6,5.68c-.47,3.32-1.4,6.61-1.64,9.95,0,.47-.76,5.53.8,5,.44-.14.6-1.48.72-1.85.32-1,.45-2,.7-3,.95-4,3.39-7.74,5-11.48,1.42-3.32,1.87-6.91,3.18-10.27.58-1.5,1.22-3,1.79-4.49.74-1.91,1.63-3.77,2.35-5.68a48.62,48.62,0,0,1,2-4.71c.79-1.54,1.72-3,2.56-4.49,1.81-3.26,3.12-6.72,5-9.93,3.94-6.79,9.52-12.53,14.21-18.78,6.42-8.54,15.24-15.14,23.5-21.79a65.76,65.76,0,0,0,11.5-12.42,38,38,0,0,1,9-9c2.06-1.35,4.36-2.25,6.36-3.71,1.69-1.24,3.48-2.2,5.24-3.32a33.42,33.42,0,0,1,4-2.07,24.15,24.15,0,0,1,5.24-2.17c1.9-.37,5.37-.31,6.18,1.76.42,1.09.12,1.68.23,2.76a28,28,0,0,1,.59,4,23.16,23.16,0,0,1-.7,6c-.76,2.22-2.1,4.27-3,6.43a50.39,50.39,0,0,0-2.41,6.87c-.71,2.62-1.19,5.31-2.09,7.88a87.71,87.71,0,0,1-4.64,11.37c-1.69,3.27-4,6.7-3.89,10.51,0,2,.52,4.68,3,4.86,2.85.21,4.78-3.43,6.29-5.25,2.8-3.37,5.25-7,8.09-10.33,3.56-4.19,7.78-7.78,11.8-11.54,3.21-3,6.3-6.32,9.9-8.86a41.46,41.46,0,0,1,4.86-3.39c1.84-.95,3.84-1.42,5.57-2.63,2.14-1.5,3.82-3.61,5.92-5.17s4.2-3.43,7-3.3a82.74,82.74,0,0,1,8.74,1.07c1.66.25,3.34.32,5,.57a21.51,21.51,0,0,0,6.65.16,19.75,19.75,0,0,0,3.81-.82,33.82,33.82,0,0,0,4-2.24c3.48-1.87,7.43-3.42,10.32-6.18a22.35,22.35,0,0,0,3.59-3.76c.32-.5.57-1,.86-1.47C363,221.77,363.4,220.87,362.85,221.51Z"/><path class="cls-5" d="M625.34,221.13c-11.86-4.55-23.29-10.3-35.88-12.66a61.44,61.44,0,0,0-9-.73,19,19,0,0,0-6.92.57,4.89,4.89,0,0,0-3.62,5.74c.39,3.52,4.23,6.43,6.82,8.3,3.36,2.43,6.91,4.55,10.29,7,5.69,4,10.23,9.56,15.71,13.89,2.52,2,4.69,4,7.75,5.19,3.39,1.3,6.6.82,10-.07a34.72,34.72,0,0,0,9.14-3.83c2-1.14,3.16-1.65,4.37-3.66s2.13-3.5,1.78-6c-.48-3.37-2.55-5.55-5.21-7.47C629.11,226.32,623.38,223.06,625.34,221.13Z"/><path class="cls-5" d="M559.89,215.22a12,12,0,0,1-3.39-5.35c2.41.27,5.91,1.07,7.16,3.44a3.86,3.86,0,0,1,.06,3.27c-.46.8-3,2.41-3.92,1.08Z"/><path class="cls-8" d="M128.84,434.86a18.75,18.75,0,0,0-3.74,7.6,3.35,3.35,0,0,0-.1,1.37,2.7,2.7,0,0,0,1.81,1.8,5.49,5.49,0,0,0,5.89-1.69,6.79,6.79,0,0,0,1.18-6.16,4.53,4.53,0,0,0-2-2.83,2.56,2.56,0,0,0-3.23.55.56.56,0,0,0,.91.22Z"/><path class="cls-8" d="M170.3,446.48a.9.9,0,0,0-.23.58,1,1,0,0,0,.27.54,9.16,9.16,0,0,1,.91,1.41c.2-.91.41-1.82.61-2.74a.5.5,0,0,1,.08-.2c.15-.22.48-.12.72-.22s.41-.61.34-1C172.55,442.2,171,445.52,170.3,446.48Z"/><path class="cls-8" d="M141.54,393.31l-.43.71a1.32,1.32,0,0,0,1.53-.13.79.79,0,0,0-.34-1.29c-.33,0-.88,0-.83-.31Z"/><path class="cls-8" d="M300.92,218.73c.3-.07.31-.53.11-.77s-.5-.36-.72-.58a1.12,1.12,0,0,1-.33-.87.58.58,0,0,1,.26-.46.67.67,0,0,1,.37,0,3.3,3.3,0,0,1,1.7.64,1.55,1.55,0,0,1,.56,1.63,1.2,1.2,0,0,1-2.06.39Z"/><path class="cls-8" d="M166.45,493.88c.3-.08.31-.54.11-.78a8.2,8.2,0,0,0-.72-.57,1.14,1.14,0,0,1-.33-.87.58.58,0,0,1,.26-.47.78.78,0,0,1,.37,0,3.39,3.39,0,0,1,1.7.64,1.58,1.58,0,0,1,.57,1.63,1.21,1.21,0,0,1-2.07.39Z"/><path class="cls-8" d="M132.42,457.09a18.66,18.66,0,0,0-7.95,2.94,3.42,3.42,0,0,0-1,.92,2.69,2.69,0,0,0,.07,2.55,5.47,5.47,0,0,0,5.43,2.83,6.76,6.76,0,0,0,5.1-3.65,4.58,4.58,0,0,0,.48-3.46,2.58,2.58,0,0,0-2.73-1.83.56.56,0,0,0,.51.79Z"/><path class="cls-8" d="M253.1,210.73a18.68,18.68,0,0,0-7.95,3,3.18,3.18,0,0,0-1,.92,2.63,2.63,0,0,0,.07,2.55,5.47,5.47,0,0,0,5.43,2.83,6.77,6.77,0,0,0,5.09-3.65,4.54,4.54,0,0,0,.48-3.46,2.57,2.57,0,0,0-2.72-1.83.56.56,0,0,0,.5.79Z"/><path class="cls-8" d="M149.37,541.23a4.85,4.85,0,0,0-3.55,3.06,5.09,5.09,0,0,0,4.29,1.91,3.08,3.08,0,0,0,2.72-3.4c-.34-1.59-2.81-2.32-3.73-1Z"/><path class="cls-8" d="M127.77,551.86a2.46,2.46,0,0,0-1.69,1.4,2.58,2.58,0,0,0,.94.36.9.9,0,0,0,.88-.4c.21-.42-.08-.9-.35-1.28l.38.06Z"/><path class="cls-8" d="M127.66,557.34a1,1,0,0,0-.39.49,1.07,1.07,0,0,0,.12.6,9.94,9.94,0,0,1,.48,1.61c.45-.82.9-1.64,1.34-2.46a.83.83,0,0,1,.13-.18c.21-.16.5,0,.76,0s.56-.48.6-.86C131,553.85,128.56,556.61,127.66,557.34Z"/><path class="cls-8" d="M136.1,547.91a1.24,1.24,0,0,1,.43-.53,1.87,1.87,0,0,1-.32,1.67c-.16.29-.41.61-.74.56s-.38-.24-.58-.35c-.4-.23-1.06-.15-1.18-.59a.55.55,0,0,1,.35-.62,1.61,1.61,0,0,1,.76-.09l1.7.09Z"/><path class="cls-8" d="M144.38,551.38c-.44.18-.21.94.25,1A1.75,1.75,0,0,0,146,552a1.69,1.69,0,0,0-1.64-.88Z"/><path class="cls-8" d="M183.6,521.56a1.76,1.76,0,0,0-.5.48.59.59,0,0,0,0,.66c.24.3.73.15,1.08.3s.57.6,1,.62.64-.44.56-.81a1.69,1.69,0,0,0-.68-.89,1.84,1.84,0,0,0-.89-.45.74.74,0,0,0-.81.46Z"/><path class="cls-8" d="M136.15,557.39a.43.43,0,0,1,.5.34.85.85,0,0,1-.18.63.73.73,0,0,1-.29.26.56.56,0,0,1-.74-.33.62.62,0,0,1,.38-.73.65.65,0,0,1,.77.34Z"/><path class="cls-8" d="M153.82,584.34a.43.43,0,0,1,.49.34.8.8,0,0,1-.17.63.72.72,0,0,1-.29.26.56.56,0,0,1-.74-.33.61.61,0,0,1,.38-.73.63.63,0,0,1,.76.34Z"/><path class="cls-8" d="M134.06,555.21a.67.67,0,0,0-1.14.11,1.16,1.16,0,0,0,.55.48.56.56,0,0,0,.66-.2.38.38,0,0,0-.26-.56Z"/><path class="cls-8" d="M127.46,546.78a1.88,1.88,0,0,0-1.55.58l1.11.87a1.31,1.31,0,0,0,.58.31.76.76,0,0,0,.77-.83,1,1,0,0,0-.84-.86Z"/><path class="cls-8" d="M142.83,557.09a.85.85,0,0,1,.93,1.26c-.12.2-.39.34-.57.19a.51.51,0,0,1-.13-.24l-.39-1.2.22,0Z"/><path class="cls-8" d="M141.24,564.77c.35.22.8,0,1.13-.27s.72-.54,1.11-.41a.37.37,0,0,1,.24.23c.07.28-.3.44-.52.63a2.87,2.87,0,0,0-.39.57,1.39,1.39,0,0,1-1.47.52.8.8,0,0,1-.19-.82.77.77,0,0,1,.66-.5Z"/><path class="cls-8" d="M141.52,568.89c0,.15.07.31.1.46a.56.56,0,0,0,.65-.29.48.48,0,0,0-.26-.64.43.43,0,0,0-.52.42Z"/><path class="cls-8" d="M152.2,572c0,.15.07.31.1.46a.56.56,0,0,0,.65-.29.48.48,0,0,0-.26-.64.43.43,0,0,0-.52.42Z"/><path class="cls-8" d="M131.46,552.92c.3-.07.31-.53.12-.77s-.51-.36-.73-.58a1.12,1.12,0,0,1-.33-.87.56.56,0,0,1,.27-.46.63.63,0,0,1,.36,0,3.3,3.3,0,0,1,1.7.64,1.58,1.58,0,0,1,.57,1.63,1.24,1.24,0,0,1-.92.8,1.23,1.23,0,0,1-1.15-.41Z"/><path class="cls-8" d="M123.19,552.89a.75.75,0,0,0-.71.76,1.06,1.06,0,0,0,.62.91c.15.07.37.11.47,0a.4.4,0,0,0,0-.34l-.3-1.4Z"/><path class="cls-8" d="M143,544.81a1.26,1.26,0,0,1,.84,1.81,3.11,3.11,0,0,1-1.59-.84,1.09,1.09,0,0,1,.14-1.6l1,.22Z"/><path class="cls-8" d="M146.77,564.77a.32.32,0,0,1,.42-.21.78.78,0,0,1,.39.35.94.94,0,0,1,.16.4.66.66,0,0,1-.47.64.82.82,0,0,1-.78-.25.49.49,0,0,1-.16-.37.28.28,0,0,1,.27-.27Z"/><path class="cls-8" d="M132.49,559.28l-.33.37a1,1,0,0,0,.61.42c.26,0,.54-.25.4-.47a.5.5,0,0,0-.23-.17l-.82-.41Z"/><path class="cls-8" d="M109.85,452A4.83,4.83,0,0,0,106.3,455a5.08,5.08,0,0,0,4.29,1.9,3.08,3.08,0,0,0,2.72-3.39c-.35-1.6-2.81-2.33-3.73-1Z"/><path class="cls-8" d="M127.83,505.78a1,1,0,0,0-.38.5,1,1,0,0,0,.11.59,9.13,9.13,0,0,1,.48,1.62l1.35-2.47a.55.55,0,0,1,.13-.18c.2-.16.5,0,.76,0s.56-.48.6-.86C131.18,502.3,128.73,505.05,127.83,505.78Z"/><path class="cls-8" d="M144.55,499.82c-.44.18-.21.94.26,1.05a1.71,1.71,0,0,0,1.31-.46,1.67,1.67,0,0,0-1.64-.87Z"/><path class="cls-8" d="M136.33,505.83a.44.44,0,0,1,.49.34.8.8,0,0,1-.17.63.75.75,0,0,1-.3.26.55.55,0,0,1-.73-.33A.6.6,0,0,1,136,506a.66.66,0,0,1,.76.34Z"/><path class="cls-8" d="M154,532.78a.43.43,0,0,1,.49.35.79.79,0,0,1-.17.62.72.72,0,0,1-.29.26.56.56,0,0,1-.74-.33.61.61,0,0,1,.38-.73.67.67,0,0,1,.77.34Z"/><path class="cls-8" d="M134.23,503.66a.66.66,0,0,0-1.14.1,1.16,1.16,0,0,0,.55.48.56.56,0,0,0,.66-.19.37.37,0,0,0-.26-.56Z"/><path class="cls-8" d="M143,505.53a.88.88,0,0,1,.88.33.87.87,0,0,1,0,.93c-.12.2-.39.34-.56.2a.48.48,0,0,1-.14-.25c-.13-.4-.25-.8-.38-1.19l.21,0Z"/><path class="cls-8" d="M141.42,513.21c.34.23.8,0,1.12-.27s.72-.54,1.11-.4a.35.35,0,0,1,.24.22c.08.28-.3.44-.51.63a2.91,2.91,0,0,0-.4.57,1.38,1.38,0,0,1-1.46.52.77.77,0,0,1-.2-.81.78.78,0,0,1,.67-.51Z"/><path class="cls-8" d="M141.7,517.33l.09.47a.59.59,0,0,0,.66-.3.47.47,0,0,0-.27-.63.4.4,0,0,0-.51.41Z"/><path class="cls-8" d="M152.38,520.46l.09.47a.59.59,0,0,0,.66-.3.47.47,0,0,0-.27-.63.4.4,0,0,0-.51.41Z"/><path class="cls-8" d="M131.64,501.37c.3-.08.31-.54.11-.78s-.51-.36-.73-.57a1.13,1.13,0,0,1-.32-.87.53.53,0,0,1,.26-.47.76.76,0,0,1,.37,0,3.39,3.39,0,0,1,1.69.64,1.58,1.58,0,0,1,.57,1.63,1.2,1.2,0,0,1-2.06.39Z"/><path class="cls-8" d="M147,513.21c0-.17.24-.26.42-.21a.72.72,0,0,1,.38.35.87.87,0,0,1,.16.4.63.63,0,0,1-.47.64.83.83,0,0,1-.78-.25.52.52,0,0,1-.16-.37.29.29,0,0,1,.27-.27Z"/><path class="cls-8" d="M132.66,507.72l-.33.37a1.07,1.07,0,0,0,.62.43c.25,0,.53-.26.4-.48a.66.66,0,0,0-.23-.17l-.83-.41Z"/><path class="cls-8" d="M293.51,259.88a4.83,4.83,0,0,0-3.56,3.06,5.15,5.15,0,0,0,4.3,1.91,3.08,3.08,0,0,0,2.71-3.4c-.34-1.6-2.81-2.32-3.73-1Z"/><path class="cls-8" d="M309.84,219.42a4.85,4.85,0,0,0-3.55,3.06,5.09,5.09,0,0,0,4.29,1.91,3.09,3.09,0,0,0,2.72-3.4c-.34-1.59-2.81-2.32-3.73-1Z"/><path class="cls-8" d="M271.79,276a1,1,0,0,0-.39.49,1.08,1.08,0,0,0,.12.6,9,9,0,0,1,.48,1.61l1.35-2.47a.43.43,0,0,1,.13-.17c.2-.16.5,0,.75,0s.56-.48.61-.86C275.14,272.5,272.69,275.25,271.79,276Z"/><path class="cls-8" d="M329,194.93c-.44.18-.21.94.26,1a1.75,1.75,0,0,0,1.31-.46,1.68,1.68,0,0,0-1.64-.87Z"/><path class="cls-8" d="M280.28,276a.44.44,0,0,1,.5.35.83.83,0,0,1-.17.63.81.81,0,0,1-.3.25.55.55,0,0,1-.73-.33.6.6,0,0,1,.38-.73.66.66,0,0,1,.76.34Z"/><path class="cls-8" d="M178.78,362.41a.44.44,0,0,1,.49.35.82.82,0,0,1-.17.63.94.94,0,0,1-.3.26.57.57,0,0,1-.73-.34.6.6,0,0,1,.38-.73.65.65,0,0,1,.76.35Z"/><path class="cls-8" d="M278.19,273.86a.66.66,0,0,0-1.14.11,1.19,1.19,0,0,0,.55.47.55.55,0,0,0,.66-.19.38.38,0,0,0-.26-.56Z"/><path class="cls-8" d="M287,275.73a.86.86,0,0,1,.92,1.27c-.12.19-.39.34-.56.19a.48.48,0,0,1-.14-.25c-.13-.4-.26-.79-.38-1.19l.21,0Z"/><path class="cls-8" d="M166.2,342.84c.35.23.8,0,1.13-.27s.72-.54,1.11-.4a.36.36,0,0,1,.23.22c.08.28-.29.44-.51.63a3.19,3.19,0,0,0-.39.57,1.39,1.39,0,0,1-1.47.52.78.78,0,0,1-.2-.81.79.79,0,0,1,.67-.51Z"/><path class="cls-8" d="M166.48,347l.09.47a.59.59,0,0,0,.66-.29.48.48,0,0,0-.27-.64.41.41,0,0,0-.51.41Z"/><path class="cls-8" d="M177.16,350.09l.09.47a.59.59,0,0,0,.66-.3.47.47,0,0,0-.27-.63.41.41,0,0,0-.51.41Z"/><path class="cls-8" d="M342,203.56c.3-.08.31-.53.12-.77s-.51-.36-.73-.58a1.12,1.12,0,0,1-.33-.87.56.56,0,0,1,.27-.46.63.63,0,0,1,.36,0,3.3,3.3,0,0,1,1.7.64,1.58,1.58,0,0,1,.57,1.63,1.21,1.21,0,0,1-2.07.39Z"/><path class="cls-8" d="M171.73,342.85a.33.33,0,0,1,.42-.22.78.78,0,0,1,.39.35,1,1,0,0,1,.15.4.63.63,0,0,1-.46.64.79.79,0,0,1-.78-.24.52.52,0,0,1-.16-.38.28.28,0,0,1,.26-.27Z"/><path class="cls-8" d="M139.25,358.94a.32.32,0,0,1,.42-.21.74.74,0,0,1,.39.35.83.83,0,0,1,.16.4.65.65,0,0,1-.47.64.82.82,0,0,1-.78-.25.52.52,0,0,1-.16-.37.28.28,0,0,1,.27-.27Z"/><path class="cls-8" d="M276.62,277.92l-.33.37a1,1,0,0,0,.62.43c.25,0,.53-.26.39-.47a.46.46,0,0,0-.22-.17l-.83-.41Z"/><path class="cls-8" d="M118.2,548.41a2.77,2.77,0,0,0-1,.66,1,1,0,0,0-.21,1.13,1,1,0,0,0,.45.38,1.13,1.13,0,1,0,.75-2.12Z"/><path class="cls-8" d="M152.07,538.23l-.43.71a1.55,1.55,0,0,0,.53.34.8.8,0,0,0,.12-1.09Z"/><path class="cls-8" d="M210.12,493.79a18.61,18.61,0,0,0-8,2.94,3.22,3.22,0,0,0-1,.92,2.69,2.69,0,0,0,.07,2.55,5.5,5.5,0,0,0,5.44,2.83,6.77,6.77,0,0,0,5.09-3.65,4.58,4.58,0,0,0,.48-3.46,2.57,2.57,0,0,0-2.72-1.83.56.56,0,0,0,.5.79Z"/><path class="cls-8" d="M154.2,428a4.85,4.85,0,0,0-3.55,3.06,5.06,5.06,0,0,0,4.29,1.91,3.09,3.09,0,0,0,2.72-3.4c-.35-1.59-2.82-2.32-3.73-1Z"/><path class="cls-8" d="M369.23,163.49a4.85,4.85,0,0,0-3.55,3.06,5.09,5.09,0,0,0,4.29,1.91,3.09,3.09,0,0,0,2.72-3.4c-.35-1.6-2.82-2.32-3.73-1Z"/><path class="cls-8" d="M132.6,438.58a2.51,2.51,0,0,0-1.7,1.39,2.58,2.58,0,0,0,.95.37.87.87,0,0,0,.87-.41c.21-.41-.07-.9-.34-1.27l.38.06Z"/><path class="cls-8" d="M132.49,444.06a.94.94,0,0,0-.39.49,1.06,1.06,0,0,0,.11.6,9,9,0,0,1,.48,1.61L134,444.3a.59.59,0,0,1,.13-.18c.2-.16.5,0,.76,0s.56-.49.6-.86C135.83,440.57,133.38,443.33,132.49,444.06Z"/><path class="cls-8" d="M114.35,443.13c-.14.24-.29.47-.43.7a1.32,1.32,0,0,0,1.53-.12c.38-.4.21-1.22-.33-1.29-.34-.05-.89,0-.84-.32Z"/><path class="cls-8" d="M140.93,434.63a1.1,1.1,0,0,1,.42-.53,1.89,1.89,0,0,1-.31,1.67c-.17.29-.42.61-.74.56s-.39-.24-.59-.35c-.4-.23-1.05-.15-1.18-.59a.57.57,0,0,1,.35-.62,1.67,1.67,0,0,1,.77-.09l1.7.09Z"/><path class="cls-8" d="M149.21,438.09c-.45.19-.21,1,.25,1.05a1.73,1.73,0,0,0,1.31-.45,1.68,1.68,0,0,0-1.64-.88Z"/><path class="cls-8" d="M141,444.11a.43.43,0,0,1,.49.34.8.8,0,0,1-.17.63.91.91,0,0,1-.29.26.57.57,0,0,1-.74-.34.6.6,0,0,1,.38-.72.63.63,0,0,1,.76.34Z"/><path class="cls-8" d="M138.88,441.93a.67.67,0,0,0-1.14.11,1.19,1.19,0,0,0,.56.48.57.57,0,0,0,.66-.2.39.39,0,0,0-.26-.56Z"/><path class="cls-8" d="M107.89,432.66a.67.67,0,0,0-1.14.11,1.14,1.14,0,0,0,.56.48.57.57,0,0,0,.66-.19c.12-.22,0-.56-.27-.56Z"/><path class="cls-8" d="M132.29,433.49a1.92,1.92,0,0,0-1.55.59l1.1.87a1.35,1.35,0,0,0,.58.3.76.76,0,0,0,.78-.82,1.06,1.06,0,0,0-.85-.87Z"/><path class="cls-8" d="M147.66,443.81a.84.84,0,0,1,.92,1.26c-.11.19-.39.34-.56.19a.53.53,0,0,1-.14-.24c-.12-.4-.25-.8-.38-1.2l.22,0Z"/><path class="cls-8" d="M151.75,448.89c0,.41.46.65.85.78s.86.3,1,.7a.36.36,0,0,1-.05.32c-.19.22-.53,0-.81-.08a4.09,4.09,0,0,0-.7,0,1.37,1.37,0,0,1-1.24-.92.76.76,0,0,1,.56-.62.79.79,0,0,1,.79.27Z"/><path class="cls-8" d="M148.49,451.41l-.34.34a.57.57,0,0,0,.61.38.47.47,0,0,0,.38-.57.41.41,0,0,0-.63-.2Z"/><path class="cls-8" d="M151.84,462l-.33.33a.58.58,0,0,0,.61.39.5.5,0,0,0,.38-.58.42.42,0,0,0-.63-.2Z"/><path class="cls-8" d="M136.29,439.64c.3-.07.31-.53.11-.77s-.5-.36-.72-.58a1.12,1.12,0,0,1-.33-.87.53.53,0,0,1,.26-.46.67.67,0,0,1,.37,0,3.34,3.34,0,0,1,1.7.64,1.55,1.55,0,0,1,.56,1.63,1.23,1.23,0,0,1-.91.8,1.24,1.24,0,0,1-1.15-.41Z"/><path class="cls-8" d="M128,439.61a.76.76,0,0,0-.72.76,1.11,1.11,0,0,0,.63.91c.15.07.36.11.46,0a.45.45,0,0,0,0-.34l-.3-1.4Z"/><path class="cls-8" d="M147.77,431.53a1.26,1.26,0,0,1,.85,1.81,3.07,3.07,0,0,1-1.59-.84,1.1,1.1,0,0,1,.13-1.6l1.05.21Z"/><path class="cls-8" d="M154.83,453.48a.32.32,0,0,1,.41.23.74.74,0,0,1-.07.52.87.87,0,0,1-.25.35.65.65,0,0,1-.79,0,.85.85,0,0,1-.23-.79.53.53,0,0,1,.22-.34.29.29,0,0,1,.38.07Z"/><path class="cls-8" d="M137.31,446l-.33.37a1.09,1.09,0,0,0,.62.42c.26,0,.53-.25.4-.47a.5.5,0,0,0-.23-.17l-.83-.41Z"/><path class="cls-8" d="M123,435.13a2.89,2.89,0,0,0-1,.66,1,1,0,0,0-.2,1.12.9.9,0,0,0,.45.39,1.13,1.13,0,1,0,.75-2.12Z"/><path class="cls-8" d="M156.89,424.94c-.14.24-.28.48-.43.71a1.69,1.69,0,0,0,.53.35.78.78,0,0,0,.12-1.09Z"/><path class="cls-8" d="M163,456.54a4.85,4.85,0,0,0-3.55,3.06,5.09,5.09,0,0,0,4.29,1.91,3.09,3.09,0,0,0,2.72-3.4c-.34-1.59-2.81-2.32-3.73-1Z"/><path class="cls-8" d="M159.17,374.38a1.15,1.15,0,0,1,.42-.53,1.89,1.89,0,0,1-.31,1.67c-.17.29-.42.61-.74.56s-.39-.24-.59-.35c-.4-.23-1-.15-1.18-.59a.56.56,0,0,1,.35-.62,1.67,1.67,0,0,1,.77-.09l1.7.09Z"/><path class="cls-8" d="M122.5,381.17a.92.92,0,0,0-.38.49,1.06,1.06,0,0,0,.11.6,9,9,0,0,1,.48,1.61l1.35-2.46a.4.4,0,0,1,.13-.18c.2-.16.5,0,.76,0s.56-.49.6-.86C125.85,377.68,123.4,380.44,122.5,381.17Z"/><path class="cls-8" d="M131,381.22a.43.43,0,0,1,.49.34.8.8,0,0,1-.17.63.91.91,0,0,1-.29.26.57.57,0,0,1-.74-.34.61.61,0,0,1,.38-.73.65.65,0,0,1,.76.35Z"/><path class="cls-8" d="M148.66,408.17a.43.43,0,0,1,.5.34.78.78,0,0,1-.18.63.73.73,0,0,1-.29.26.56.56,0,0,1-.74-.33.61.61,0,0,1,.39-.73.64.64,0,0,1,.76.34Z"/><path class="cls-8" d="M128.9,379a.67.67,0,0,0-1.14.11,1.19,1.19,0,0,0,.56.48.57.57,0,0,0,.66-.2.39.39,0,0,0-.27-.56Z"/><path class="cls-8" d="M136.09,388.6c.35.22.8,0,1.12-.27s.73-.55,1.11-.41a.38.38,0,0,1,.24.22c.08.28-.3.44-.51.64a3.17,3.17,0,0,0-.4.56,1.36,1.36,0,0,1-1.46.52.76.76,0,0,1,.47-1.31Z"/><path class="cls-8" d="M136.37,392.71l.09.47a.57.57,0,0,0,.66-.29.48.48,0,0,0-.27-.64.41.41,0,0,0-.51.41Z"/><path class="cls-8" d="M147.05,395.84l.09.47a.59.59,0,0,0,.66-.29.48.48,0,0,0-.27-.64.4.4,0,0,0-.51.41Z"/><path class="cls-8" d="M141.62,388.6a.33.33,0,0,1,.42-.22.74.74,0,0,1,.38.36.83.83,0,0,1,.16.4.62.62,0,0,1-.47.63.8.8,0,0,1-.78-.24.54.54,0,0,1-.15-.38.29.29,0,0,1,.26-.27Z"/><path class="cls-8" d="M127.33,383.1l-.33.38a1.09,1.09,0,0,0,.62.42c.25,0,.53-.25.4-.47a.5.5,0,0,0-.23-.17l-.83-.41Z"/><path class="cls-8" d="M110.56,469.49c-.44.19-.21.95.26,1.05a1.74,1.74,0,0,0,1.31-.45,1.68,1.68,0,0,0-1.64-.88Z"/><path class="cls-8" d="M149.79,472.7a.42.42,0,0,1,.49.34.92.92,0,0,1-.46.89.57.57,0,0,1-.74-.34.6.6,0,0,1,.38-.72.65.65,0,0,1,.77.34Z"/><path class="cls-8" d="M156.47,472.4a.87.87,0,0,1,.88.32.89.89,0,0,1,.05.94c-.12.19-.4.34-.57.19a.51.51,0,0,1-.13-.24l-.39-1.2.22,0Z"/><path class="cls-8" d="M196.86,397.79c0,.42.46.66.85.79s.85.29.95.69a.36.36,0,0,1,0,.32c-.19.22-.53,0-.81-.07a2.65,2.65,0,0,0-.69,0,1.38,1.38,0,0,1-1.25-.93.81.81,0,0,1,.56-.62.79.79,0,0,1,.8.28Z"/><path class="cls-8" d="M157.3,480l-.33.34a.58.58,0,0,0,.61.39.5.5,0,0,0,.38-.58.42.42,0,0,0-.63-.2Z"/><path class="cls-8" d="M160.65,490.62l-.33.33a.58.58,0,0,0,.61.39.49.49,0,0,0,.38-.58.42.42,0,0,0-.63-.2Z"/><path class="cls-8" d="M156.59,460.12a1.26,1.26,0,0,1,.84,1.81,3.11,3.11,0,0,1-1.59-.84,1.1,1.1,0,0,1,.13-1.6l1.05.21Z"/><path class="cls-8" d="M163.64,482.07a.33.33,0,0,1,.42.23.8.8,0,0,1-.08.52,1,1,0,0,1-.24.35.65.65,0,0,1-.79,0,.83.83,0,0,1-.24-.79.58.58,0,0,1,.23-.34.28.28,0,0,1,.37.07Z"/><path class="cls-8" d="M165.71,453.54c-.15.23-.29.47-.43.7a1.58,1.58,0,0,0,.53.35.79.79,0,0,0,.11-1.09Z"/><path class="cls-8" d="M142.92,482.94l-.43.71a1.42,1.42,0,0,0,.53.34.77.77,0,0,0,.11-1.08Z"/></g></g></g></svg>