<svg xmlns="http://www.w3.org/2000/svg" viewBox="0 0 219.45 163.24"><defs><style>.cls-1{fill:#cbc3e0;}.cls-2{fill:#702c8b;}.cls-3{fill:#fef3ed;}.cls-4{fill:#221735;}.cls-5{fill:#fd9e8a;}.cls-6{fill:#f0664d;}</style></defs><g id="Layer_2" data-name="Layer 2"><g id="layer_1-2" data-name="layer 1"><path class="cls-1" d="M128.18,39.62l-10.08-.89a3.48,3.48,0,0,0-3,1.23L87,73.25,91.35,84.6Z"/><path class="cls-2" d="M137.07,12.69c-1.19,1.05-2.86,2.52-3.4,4.67-.77,3.09,1.21,5.88,2.08,7.12,2.24,3.18,6.58,6.16,10.36,5.21.64-.16.43-.22,2.63-1.41,4.58-2.47,9-4.78,12.42-3.71a2.13,2.13,0,0,0,.92.17c2.07-.18,3.93-4.2,3.95-7.26,0-5.19-5.15-9.73-10-11.29a15.06,15.06,0,0,0-9.67.22,14.67,14.67,0,0,0-5.72,4A14.36,14.36,0,0,0,137.07,12.69Z"/><path class="cls-3" d="M155.52,67.4s27.69-20,31.09-22,20-20.69,20-20.69l-3.38-6.22L146.42,49Z"/><path class="cls-3" d="M27.23,142.9,30,150.8s3-.22,7.46-.73c3.07-.35,6.85-.84,10.91-1.47,6.61-1.06,17.39-4.9,25.35-8.1h0l1.77-.72c3.28-1.35,5.92-2.53,7.34-3.25a26,26,0,0,0,3.6-2.59c.7-.56,1.46-1.19,2.28-1.88,7-5.88,17.8-15.92,23.81-21.56,2.69-2.51,4.42-4.15,4.42-4.15L90.74,93.89l-2.95,4.2L70.4,122.86h0l-.87,1.24s-1.8.21-6.59.7c-3.52.37-21.09,9.94-30.21,15C29.42,141.65,27.23,142.9,27.23,142.9Z"/><path class="cls-4" d="M159.73,49.94A25.72,25.72,0,0,0,174.6,34.33L173.51,34A24.64,24.64,0,0,1,159.3,48.87Z"/><path class="cls-3" d="M145,51.25a25.6,25.6,0,0,0,11.92-.37,24.53,24.53,0,0,0,2.82-.94l-.43-1.07a26.47,26.47,0,0,1-2.69.89A24.63,24.63,0,0,1,128.84,13.7,24.64,24.64,0,0,1,173.51,34l1.09.38A25.77,25.77,0,1,0,145,51.25Z"/><polygon class="cls-5" points="143.24 26.2 139.39 44.8 154.53 47.94 154.9 28.62 143.24 26.2"/><path class="cls-4" d="M141.39,35.15l1.85-8.95,11.66,2.42-.08,4.52C150.89,35.94,146.06,36.13,141.39,35.15Z"/><path class="cls-3" d="M87.79,98.09a15.36,15.36,0,0,0,2.1,3.34,22,22,0,0,0,5,4.41h0a21.36,21.36,0,0,0,5.47,2.64,95.27,95.27,0,0,0,11.11,1.87l1,.13c11.65,1.48,26.73,2.82,26.73,2.82L127.54,132,123,139.27l6.89,4.94,6.27-4.56c5.63-4.08,13.5-9.82,16.88-12.34,5.14-3.83,12.22-14.56,10.89-21.73a8.26,8.26,0,0,0-.48-1.63c-.89-2.14-4.23-4.15-8.44-5.89-.49-.2-1-.4-1.5-.59C144,93.8,131.13,91.4,131.13,91.4s24.24-19.32,26.8-24.65c.15-.3.28-.63.41-1a.18.18,0,0,1,0,0c.06-.15.11-.31.17-.48s.17-.58.25-.89v0c1.46-5.79.75-14.65.73-14.92h0l-5-1.66L151,46.54,139.8,42.81l-11.14-3.72h0l-4.09,4.56c-4,4.43-10.28,11.54-16.59,18.87C99.79,72,91.65,81.89,88.7,86.72A11.64,11.64,0,0,0,87.79,98.09Z"/><path class="cls-3" d="M135.05,43.83S146,50.06,136.74,57.6s-33.85,4.5-33.85,4.5-5.12,7.73-8.07,10.64-14.14,8.85-14.14,8.85l-5-2.84S92.91,52.41,95.33,50.56,124.91,41.44,135.05,43.83Z"/><path class="cls-4" d="M108.59,62.85c7.78.4,21.8.29,28.33-5,2.73-2.21,4-4.55,3.81-6.94-.36-4.3-5.33-7.18-5.54-7.3l-.08,0a28.84,28.84,0,0,0-8-.4l0,.58a29.19,29.19,0,0,1,7.78.37c.44.26,4.9,3,5.21,6.83.18,2.19-1,4.36-3.59,6.45-6.38,5.19-20.25,5.29-27.94,4.89Z"/><path class="cls-4" d="M131,91.65l.31-.49c-.63-.39-15.45-9.59-24-10.61l-.07.57C115.64,82.13,130.83,91.55,131,91.65Z"/><path class="cls-6" d="M137.1,140.51l-12.88,10.34s-5.83,7.92-9.79,10.43-9,2.34-9.12,1,8.65-22.59,10.2-22.81,4.39,2.67,4.39,2.67l6.87-10.87Z"/><path class="cls-6" d="M37.88,151.09l-15.94,4.28S13.41,160.29,8.78,161-.36,159.54,0,158.26,17,141,18.52,141.47s2.95,4.2,2.95,4.2l10.66-7.19Z"/><path class="cls-6" d="M202.77,29a25.58,25.58,0,0,1,6-4.61c4.92-2.67,8.45-1.71,9-4.29.21-1-2.15-8.89-3.33-9.24s-6.39,0-7.12.8c-1.29,1.35-.13,3-1.54,4.7-.92,1.12-1.89,1.13-3.89,2.07A19.74,19.74,0,0,0,196.74,22Z"/><path class="cls-6" d="M218.78,17.44s.65,1.48.25,1.84-4.18,2.61-4.79,2.47-1-.28-.92-.83S217.07,17.09,218.78,17.44Z"/><path class="cls-6" d="M218.67,16.81c.59-.65-.38-1.55-.64-1.86s-5.66,2.66-5.87,3.32.57,1.91,1,1.94A23.34,23.34,0,0,0,218.67,16.81Z"/><path class="cls-6" d="M217.29,14.38c.59-.65-.38-1.55-.64-1.86s-5.66,2.66-5.86,3.32.56,1.91,1,1.94A23.48,23.48,0,0,0,217.29,14.38Z"/><path class="cls-6" d="M216.4,12.53c.59-.65-.38-1.55-.64-1.86S210.1,13.33,209.9,14s.56,1.91,1,1.94A23.14,23.14,0,0,0,216.4,12.53Z"/><path class="cls-6" d="M210.51,10.81s3.1,1.07,3.57,1.87,1.2,2.87,0,3.19-3.06-.63-3.15-1.16-.95-1.22-.95-1.22,1,3.47.19,4.58a8,8,0,0,1-2.58,2Z"/><path class="cls-4" d="M214.18,22c-.5-.11-1.32-.29-1.14-1.17.14-.69,3.92-4.09,5.8-3.7l.14,0,.06.13c.22.5.68,1.72.19,2.17-.27.25-4.21,2.72-5,2.55ZM213.61,21c-.05.22,0,.33.69.49.53.05,4.1-2,4.54-2.4a2.37,2.37,0,0,0-.26-1.37C217,17.6,213.76,20.53,213.61,21Z"/><path class="cls-4" d="M212.33,19.87a2.23,2.23,0,0,1-.44-1.68c.25-.82,5.06-3.36,5.91-3.53a.42.42,0,0,1,.45.11,1.35,1.35,0,0,0,.12.12c.36.41,1.21,1.35.51,2.11h0c-.8.89-5.14,3.53-5.73,3.5h-.08A1.44,1.44,0,0,1,212.33,19.87Zm6.12-3.26c.3-.33-.07-.83-.51-1.33l-.05,0c-.87.15-5.2,2.63-5.45,3.13a1.6,1.6,0,0,0,.29,1.07,1.4,1.4,0,0,0,.44.49,24.81,24.81,0,0,0,5.28-3.31Z"/><path class="cls-4" d="M211,17.44a2.2,2.2,0,0,1-.45-1.68c.25-.82,5.06-3.36,5.91-3.53a.44.44,0,0,1,.46.11l.11.12c.36.41,1.21,1.35.52,2.11h0c-.81.89-5.14,3.53-5.73,3.5h-.08A1.41,1.41,0,0,1,211,17.44Zm6.12-3.26c.3-.33-.07-.83-.52-1.33l-.05-.06c-.87.16-5.2,2.64-5.44,3.14a1.51,1.51,0,0,0,.29,1.07,1.44,1.44,0,0,0,.43.49,24.85,24.85,0,0,0,5.29-3.31Z"/><path class="cls-4" d="M210.06,15.59a2.23,2.23,0,0,1-.44-1.68c.25-.82,5.06-3.36,5.91-3.53a.44.44,0,0,1,.46.11l.11.12c.36.41,1.21,1.35.52,2.11s-5.14,3.53-5.73,3.5h-.08A1.47,1.47,0,0,1,210.06,15.59Zm.11-1.51a1.58,1.58,0,0,0,.3,1.07,1.44,1.44,0,0,0,.43.49,24.85,24.85,0,0,0,5.29-3.31h0c.3-.33-.07-.83-.52-1.33l0-.05C214.75,11.1,210.42,13.58,210.17,14.08Z"/><path class="cls-4" d="M207.69,20.3a8.49,8.49,0,0,0,2.7-2.06c.59-.82.35-2.61.11-3.77a.69.69,0,0,1,.13.28,1.28,1.28,0,0,0,.66.78,3.93,3.93,0,0,0,2.85.62,1.09,1.09,0,0,0,.76-.67,4,4,0,0,0-.57-3c-.5-.85-3.19-1.81-3.72-2l-.19.55c1.16.4,3.11,1.22,3.41,1.74a3.58,3.58,0,0,1,.54,2.43.53.53,0,0,1-.38.33,3.34,3.34,0,0,1-2.28-.48c-.36-.21-.5-.39-.51-.45-.1-.62-1-1.32-1.06-1.4l-.71-.56.25.87c.27.93.83,3.51.24,4.33a7.61,7.61,0,0,1-2.48,1.87Z"/><path class="cls-6" d="M210.51,10.81s3.1,1.07,3.57,1.87,1.2,2.87,0,3.19-3.06-.63-3.15-1.16-.95-1.22-.95-1.22,1,3.47.19,4.58a8,8,0,0,1-2.58,2Z"/><path class="cls-6" d="M72.08,85.56S70.92,92.12,71,93.09s.3,1.92-.64,2.11-2.21-3.86-2.21-3.86.3-3.86,1.48-4.43S72.08,85.56,72.08,85.56Z"/><path class="cls-6" d="M86.48,78.67,79.72,85s-.62,5.11-1.79,6.17-4,2.74-4.21,1.92,1.45-4.35,1-5.33-2.43-1.06-3.66-.17-2.77,6.87-2.86,9.81S65.93,98,66,97.08s-1.51-6.14.14-8.86,9.72-10.3,9.72-10.3L79,71.58Z"/><circle class="cls-5" cx="151.14" cy="21.23" r="11.49" transform="translate(73.66 152.72) rotate(-67.49)"/><path class="cls-4" d="M157.57,20.36a.68.68,0,0,0,1.36.08.68.68,0,1,0-1.36-.08Z"/><path class="cls-4" d="M151.45,20a.68.68,0,1,0,.72-.64A.67.67,0,0,0,151.45,20Z"/><path class="cls-5" d="M137.35,21.94a3.15,3.15,0,1,0,3.34-3A3.15,3.15,0,0,0,137.35,21.94Z"/><path class="cls-4" d="M139.08,21a2.86,2.86,0,0,1,2.48,1.31.29.29,0,0,1-.28.42,1.46,1.46,0,0,0-1.16.28.31.31,0,0,1-.41,0,.3.3,0,0,1,0-.41,2.28,2.28,0,0,1,1-.41,2.33,2.33,0,0,0-1.64-.58.29.29,0,0,1-.27-.31A.3.3,0,0,1,139.08,21Z"/><path class="cls-3" d="M155.84,28.06c0-.29-1,0-2.59-.46-1.79-.56-2.49-1.55-2.75-1.29s.27,2.39,1.7,3C153.84,30,155.9,28.5,155.84,28.06Z"/><path class="cls-4" d="M154.66,24.28c.39-.17.82-.26,1.22-.43a1.12,1.12,0,0,0,.73-.82c0-.38-.33-.73-.54-1a9.27,9.27,0,0,1-.75-1.2c-.17-.32.31-.64.48-.32a11.1,11.1,0,0,0,.88,1.38,1.68,1.68,0,0,1,.49,1.34c-.2,1.11-1.48,1.26-2.33,1.62C154.5,25,154.32,24.43,154.66,24.28Z"/><path class="cls-4" d="M157.84,17.1a18.66,18.66,0,0,1,2.19.84.58.58,0,1,1-.53,1q-.48-.22-1-.42l-.25-.09-.12-.05h0l-.52-.17a.65.65,0,0,1-.37-.25.57.57,0,0,1-.08-.44A.59.59,0,0,1,157.84,17.1Z"/><path class="cls-4" d="M158.09,18.4Z"/><path class="cls-4" d="M150.12,16.67a10.7,10.7,0,0,1,2.46-.25.66.66,0,0,1,.43.15.63.63,0,0,1,.19.39.6.6,0,0,1-.54.62,8.84,8.84,0,0,0-1.15,0l-.55.06-.29.05-.12,0h-.06a.64.64,0,0,1-.45,0,.54.54,0,0,1-.28-.33A.58.58,0,0,1,150.12,16.67Z"/><path class="cls-4" d="M106.2,109.78c1.84.38,3.62.67,5.21.87l.07-.58c-5.06-.62-12.11-2.25-16.49-4.48s-4.81-4.21-4.82-4.23l-.57.11c0,.09.48,2.26,5.13,4.64A48.74,48.74,0,0,0,106.2,109.78Z"/><path class="cls-4" d="M158.61,65.87c.13-.39,3.06-9.63,3-14.49H161c.06,4.76-2.94,14.21-3,14.3Z"/><path class="cls-3" d="M170.55,22.88l1.15.16a14.2,14.2,0,0,0-1.91-9.17,14,14,0,0,0-6-5.39l-.49,1a12.91,12.91,0,0,1,5.51,4.94A13.06,13.06,0,0,1,170.55,22.88Z"/><path class="cls-3" d="M129.76,33.53l1-.59a15.35,15.35,0,0,1-2-5.78,15.57,15.57,0,0,1,.72-7.19l-1.09-.38a16.8,16.8,0,0,0-.78,7.73A16.46,16.46,0,0,0,129.76,33.53Z"/><path class="cls-4" d="M68.57,93.19l.58,0a8.31,8.31,0,0,1,2.5-5.67l-.36-.45A8.74,8.74,0,0,0,68.57,93.19Z"/><path class="cls-4" d="M101.52,63.92l.49-.31c-.24-.4-6-9.73-10.88-8.11l.18.55C95.73,54.58,101.46,63.82,101.52,63.92Z"/><path class="cls-4" d="M103.49,61.82l.57.08c0-.37,1.24-9.29-2.12-13.85l-.47.35C104.69,52.76,103.5,61.73,103.49,61.82Z"/><path class="cls-4" d="M186.32,45.34l.57.12c0-.1,1.82-9.66-3.65-16.32l-.44.37C188.09,36,186.34,45.25,186.32,45.34Z"/><path class="cls-4" d="M183.66,47.23l.57-.1c-.11-.61-2.67-14.78-7.71-14.61l0,.58c2.32-.09,4.13,3.72,5.24,6.92A52.38,52.38,0,0,1,183.66,47.23Z"/><path class="cls-4" d="M132.7,89.18l.21-.54C120,83.64,100.66,75.5,100,73.55l-.55.19C100.41,76.57,129.39,87.89,132.7,89.18Z"/><path class="cls-4" d="M137.67,112.58c.13,0,12.38-5,16.1-15l-.54-.21c-3.63,9.74-15.65,14.64-15.77,14.69Z"/><path class="cls-4" d="M139.73,113.87l.24,0c3.86.55,19.54-2.13,23-5.23l-.39-.43c-3.17,2.84-18.29,5.5-22.3,5.12-.72-.07-.84-.22-.84-.22l-.49.31A1.12,1.12,0,0,0,139.73,113.87Z"/><path class="cls-4" d="M84.33,132a16.3,16.3,0,0,0,4.35.32l0-.58c-7.93.48-13.79-5.15-16.61-7.85a9,9,0,0,0-1.52-1.31l-.25.53a10.28,10.28,0,0,1,1.37,1.19C74,126.57,78.37,130.79,84.33,132Z"/><path class="cls-4" d="M73.39,140.47l.58.05c.65-7.87-6-15.16-6.26-15.47l-.43.4C67.35,125.52,74,132.86,73.39,140.47Z"/><path class="cls-4" d="M105.74,161.56c3.44-5.81,11.44-19.4,11.44-20h-.57c-.19.69-6.9,12.19-11.36,19.73Z"/><path class="cls-4" d="M1.67,156.7c1.39-1.7,17.09-12.9,17.25-13l-.34-.47c-.65.46-15.92,11.36-17.35,13.11Z"/><path class="cls-4" d="M207.69,20.3a8.49,8.49,0,0,0,2.7-2.06c.59-.82.35-2.61.11-3.77a.69.69,0,0,1,.13.28,1.28,1.28,0,0,0,.66.78,3.93,3.93,0,0,0,2.85.62,1.09,1.09,0,0,0,.76-.67,4,4,0,0,0-.57-3c-.5-.85-3.19-1.81-3.72-2l-.19.55c1.16.4,3.11,1.22,3.41,1.74a3.58,3.58,0,0,1,.54,2.43.53.53,0,0,1-.38.33,3.34,3.34,0,0,1-2.28-.48c-.36-.21-.5-.39-.51-.45-.1-.62-1-1.32-1.06-1.4l-.71-.56.25.87c.27.93.83,3.51.24,4.33a7.61,7.61,0,0,1-2.48,1.87Z"/><path class="cls-4" d="M137.87,62.58l3.89-7.37,15.83,5.13-2.76,7.24ZM142,55.92l-3.33,6.31,15.77,4.64,2.36-6.17Z"/><path class="cls-2" d="M156.57,15.37a6.82,6.82,0,0,1-3.11-2.53,26.86,26.86,0,0,0,6.39,2.95l-2.22-2.21a27.52,27.52,0,0,0,4,1.78c.46.16,1.07.27,1.37-.13a6.7,6.7,0,0,0-2.66-3.67,15.76,15.76,0,0,0-4.16-2,19.1,19.1,0,0,0-5.31-1.19,9.71,9.71,0,0,0-3.59.47c-.43.15-1.29.38-1.45.88s.63,1,.92,1.32a15.24,15.24,0,0,0,5.95,3.6A14.6,14.6,0,0,0,156.57,15.37Z"/><path class="cls-2" d="M141.59,13.42A9.07,9.07,0,0,0,139.7,19a1.38,1.38,0,0,0,.08.5,1.56,1.56,0,0,0,.48.57l3.23,2.7a24.17,24.17,0,0,1,.44-4.16c.62-2.63,2.14-4.95,2.77-7.57a2.42,2.42,0,0,0,0-1.68A.72.72,0,0,0,145.59,9c-.36.3-.58.78-.92,1.11-.49.49-1,.93-1.5,1.43A15.67,15.67,0,0,0,141.59,13.42Z"/><path class="cls-2" d="M133,14.92a7.14,7.14,0,0,1,3-3.1,7.25,7.25,0,0,1,5.54-.44l.18-.55a7.86,7.86,0,0,0-6,.48,7.67,7.67,0,0,0-3.21,3.36Z"/><path class="cls-2" d="M141.91,11l.57.09a8.46,8.46,0,0,1,3.37-5.64c3.23-2.21,7-.92,8.21-.5A11.55,11.55,0,0,1,159.54,9l.47-.35a12.12,12.12,0,0,0-5.76-4.3c-3.49-1.2-6.42-1-8.73.56A9,9,0,0,0,141.91,11Z"/><path class="cls-3" d="M139.08,3.34C128.32-3,115.72.53,110.46,7.16c-3.22,4.05-3.87,9.29-4,10.52-1.15,9.22,4.18,11.91,2.23,19.56,0,0-.24.94-5.88,11.33-.4,1.89,3.63,2.15,3.63,2.15,7-7.78,8.08-13.73,7.68-17.86-.41-4.3-2.45-6.33-2.42-12.08,0-2.46,0-8.21,3.47-11.92,4.16-4.49,10.63-4.61,19.54-2.77Z"/><path d="M130.41,5.73,131,5.6c-.93-3.86.64-4.71.66-4.72l-.25-.52C131.3.4,129.36,1.37,130.41,5.73Z"/><path d="M124.24,5.13l.55-.17c-.68-2.18-.47-3.25-.18-3.76a1,1,0,0,1,.53-.47L125,.16a1.47,1.47,0,0,0-.91.75C123.6,1.8,123.64,3.22,124.24,5.13Z"/><path d="M118.09,6.8l.32-.48c-1.76-1.18-.91-4-.9-4.05L117,2.1C116.92,2.23,116,5.39,118.09,6.8Z"/><path d="M113.84,10.79l.12-.57a3.41,3.41,0,0,1-2.77-3.57l-.58,0A4,4,0,0,0,113.84,10.79Z"/><path d="M109.33,16.61a6,6,0,0,0,2.71-.16l-.15-.56a4.3,4.3,0,0,1-3.36-.2,2.64,2.64,0,0,1-1.17-1.49l-.56.14a3.17,3.17,0,0,0,1.42,1.84A3.25,3.25,0,0,0,109.33,16.61Z"/><path d="M108.78,23.14a5.2,5.2,0,0,0,3-.39l-.22-.54c-3.72,1.52-5-1.38-5.07-1.51l-.53.23A4.11,4.11,0,0,0,108.78,23.14Z"/><path d="M109.4,28.75a7.75,7.75,0,0,0,3.5-.29l-.18-.55a7.68,7.68,0,0,1-3.24.27c-1.26-.28-1.44-.64-1.45-.64l-.55.15c0,.16.28.71,1.88,1Z"/><path d="M110.22,34.55a8.65,8.65,0,0,0,4-.48l-.2-.54s-3.39,1.23-4.77-.05l-.39.43A2.8,2.8,0,0,0,110.22,34.55Z"/><path d="M110.36,42a2.61,2.61,0,0,0,2.52-.81l-.45-.36.22.18-.22-.18a2.07,2.07,0,0,1-2.34.49c-1.67-.63-2.88-1.14-2.89-1.15l-.23.54s1.23.52,2.92,1.15C110.05,42,110.21,42,110.36,42Z"/><rect x="103.09" y="46.58" width="7.78" height="0.58" transform="translate(-8.12 27.01) rotate(-13.87)"/><path class="cls-1" d="M155,98.06c-.34,3,.52,6.42,2.87,7.73,1.7,1,4,.72,6-.21a8.26,8.26,0,0,0-.48-1.63C162.54,101.81,159.2,99.8,155,98.06Z"/><path class="cls-1" d="M75.45,139.77c3.28-1.35,5.92-2.53,7.34-3.25a26,26,0,0,0,3.6-2.59,7.53,7.53,0,0,0-7.7-.74C76.28,134.52,75.39,137.28,75.45,139.77Z"/></g></g></svg>