<svg xmlns="http://www.w3.org/2000/svg" xmlns:xlink="http://www.w3.org/1999/xlink" viewBox="0 0 266.72 283.26"><defs><style>.cls-1{isolation:isolate;}.cls-10,.cls-11,.cls-12,.cls-13,.cls-14,.cls-15,.cls-16,.cls-17,.cls-18,.cls-19,.cls-2,.cls-20,.cls-21,.cls-22,.cls-23,.cls-24,.cls-25,.cls-26,.cls-27,.cls-28,.cls-29,.cls-3,.cls-30,.cls-31,.cls-32,.cls-33,.cls-34,.cls-35,.cls-36,.cls-37,.cls-38,.cls-39,.cls-4,.cls-40,.cls-41,.cls-42,.cls-43,.cls-44,.cls-45,.cls-46,.cls-47,.cls-48,.cls-49,.cls-5,.cls-50,.cls-51,.cls-52,.cls-53,.cls-54,.cls-55,.cls-56,.cls-57,.cls-58,.cls-59,.cls-6,.cls-60,.cls-61,.cls-62,.cls-63,.cls-64,.cls-65,.cls-66,.cls-67,.cls-68,.cls-69,.cls-7,.cls-70,.cls-71,.cls-8,.cls-9{mix-blend-mode:screen;}.cls-2{fill:url(#radial-gradient);}.cls-3{fill:url(#radial-gradient-2);}.cls-4{fill:url(#radial-gradient-3);}.cls-5{fill:url(#radial-gradient-4);}.cls-6{fill:url(#radial-gradient-5);}.cls-7{fill:url(#radial-gradient-6);}.cls-8{fill:url(#radial-gradient-7);}.cls-9{fill:url(#radial-gradient-8);}.cls-10{fill:url(#radial-gradient-9);}.cls-11{fill:url(#radial-gradient-10);}.cls-12{fill:url(#radial-gradient-11);}.cls-13{fill:url(#radial-gradient-12);}.cls-14{fill:url(#radial-gradient-13);}.cls-15{fill:url(#radial-gradient-14);}.cls-16{fill:url(#radial-gradient-15);}.cls-17{fill:url(#radial-gradient-16);}.cls-18{fill:url(#radial-gradient-17);}.cls-19{fill:url(#radial-gradient-18);}.cls-20{fill:url(#radial-gradient-19);}.cls-21{fill:url(#radial-gradient-20);}.cls-22{fill:url(#radial-gradient-21);}.cls-23{fill:url(#radial-gradient-22);}.cls-24{fill:url(#radial-gradient-23);}.cls-25{fill:url(#radial-gradient-24);}.cls-26{fill:url(#radial-gradient-25);}.cls-27{fill:url(#radial-gradient-26);}.cls-28{fill:url(#radial-gradient-27);}.cls-29{fill:url(#radial-gradient-28);}.cls-30{fill:url(#radial-gradient-29);}.cls-31{fill:url(#radial-gradient-30);}.cls-32{fill:url(#radial-gradient-31);}.cls-33{fill:url(#radial-gradient-32);}.cls-34{fill:url(#radial-gradient-33);}.cls-35{fill:url(#radial-gradient-34);}.cls-36{fill:url(#radial-gradient-35);}.cls-37{fill:url(#radial-gradient-36);}.cls-38{fill:url(#radial-gradient-37);}.cls-39{fill:url(#radial-gradient-38);}.cls-40{fill:url(#radial-gradient-39);}.cls-41{fill:url(#radial-gradient-40);}.cls-42{fill:url(#radial-gradient-41);}.cls-43{fill:url(#radial-gradient-42);}.cls-44{fill:url(#radial-gradient-43);}.cls-45{fill:url(#radial-gradient-44);}.cls-46{fill:url(#radial-gradient-45);}.cls-47{fill:url(#radial-gradient-46);}.cls-48{fill:url(#radial-gradient-47);}.cls-49{fill:url(#radial-gradient-48);}.cls-50{fill:url(#radial-gradient-49);}.cls-51{fill:url(#radial-gradient-50);}.cls-52{fill:url(#radial-gradient-51);}.cls-53{fill:url(#radial-gradient-52);}.cls-54{fill:url(#radial-gradient-53);}.cls-55{fill:url(#radial-gradient-54);}.cls-56{fill:url(#radial-gradient-55);}.cls-57{fill:url(#radial-gradient-56);}.cls-58{fill:url(#radial-gradient-57);}.cls-59{fill:url(#radial-gradient-58);}.cls-60{fill:url(#radial-gradient-59);}.cls-61{fill:url(#radial-gradient-60);}.cls-62{fill:url(#radial-gradient-61);}.cls-63{fill:url(#radial-gradient-62);}.cls-64{fill:url(#radial-gradient-63);}.cls-65{fill:url(#radial-gradient-64);}.cls-66{fill:url(#radial-gradient-65);}.cls-67{fill:url(#radial-gradient-66);}.cls-68{fill:url(#radial-gradient-67);}.cls-69{fill:url(#radial-gradient-68);}.cls-70{fill:url(#radial-gradient-69);}.cls-71{fill:url(#radial-gradient-70);}</style><radialGradient id="radial-gradient" cx="131.66" cy="-2.24" r="276.81" gradientUnits="userSpaceOnUse"><stop offset="0" stop-color="#f20074"/><stop offset="0.14" stop-color="#ed0376"/><stop offset="0.31" stop-color="#df0b7d"/><stop offset="0.49" stop-color="#c71887"/><stop offset="0.67" stop-color="#a62a96"/><stop offset="0.87" stop-color="#7b42a9"/><stop offset="0.9" stop-color="#7446ac"/></radialGradient><radialGradient id="radial-gradient-2" cx="135.3" cy="112.02" r="0.34" xlink:href="#radial-gradient"/><radialGradient id="radial-gradient-3" cx="135.14" cy="112.55" r="0.3" xlink:href="#radial-gradient"/><radialGradient id="radial-gradient-4" cx="135.51" cy="111.29" r="0.5" xlink:href="#radial-gradient"/><radialGradient id="radial-gradient-5" cx="139.75" cy="82.47" r="1.17" xlink:href="#radial-gradient"/><radialGradient id="radial-gradient-6" cx="134.8" cy="113.64" r="0.1" xlink:href="#radial-gradient"/><radialGradient id="radial-gradient-7" cx="135.72" cy="110.54" r="0.62" xlink:href="#radial-gradient"/><radialGradient id="radial-gradient-8" cx="134.99" cy="112.97" r="0.3" xlink:href="#radial-gradient"/><radialGradient id="radial-gradient-9" cx="134.87" cy="113.38" r="0.17" xlink:href="#radial-gradient"/><radialGradient id="radial-gradient-10" cx="136.21" cy="108.86" r="0.59" xlink:href="#radial-gradient"/><radialGradient id="radial-gradient-11" cx="137.88" cy="101.62" r="0.86" xlink:href="#radial-gradient"/><radialGradient id="radial-gradient-12" cx="137.32" cy="104.26" r="0.89" xlink:href="#radial-gradient"/><radialGradient id="radial-gradient-13" cx="135.96" cy="109.77" r="0.52" xlink:href="#radial-gradient"/><radialGradient id="radial-gradient-14" cx="137.59" cy="102.9" r="1.08" xlink:href="#radial-gradient"/><radialGradient id="radial-gradient-15" cx="142.88" cy="111.19" r="7.67" xlink:href="#radial-gradient"/><radialGradient id="radial-gradient-16" cx="136.48" cy="107.7" r="0.84" xlink:href="#radial-gradient"/><radialGradient id="radial-gradient-17" cx="136.75" cy="106.7" r="0.76" xlink:href="#radial-gradient"/><radialGradient id="radial-gradient-18" cx="137.03" cy="105.61" r="0.69" xlink:href="#radial-gradient"/><radialGradient id="radial-gradient-19" cx="192.85" cy="174.9" r="0.55" xlink:href="#radial-gradient"/><radialGradient id="radial-gradient-20" cx="191.95" cy="175.18" r="0.28" xlink:href="#radial-gradient"/><radialGradient id="radial-gradient-21" cx="194.31" cy="174.55" r="0.81" xlink:href="#radial-gradient"/><radialGradient id="radial-gradient-22" cx="191.6" cy="175.34" r="0.03" xlink:href="#radial-gradient"/><radialGradient id="radial-gradient-23" cx="262.47" cy="200.7" r="1.39" xlink:href="#radial-gradient"/><radialGradient id="radial-gradient-24" cx="221.52" cy="172.95" r="48.6" xlink:href="#radial-gradient"/><radialGradient id="radial-gradient-25" cx="263.65" cy="202.76" r="1.1" xlink:href="#radial-gradient"/><radialGradient id="radial-gradient-26" cx="196.25" cy="174.17" r="1.03" xlink:href="#radial-gradient"/><radialGradient id="radial-gradient-27" cx="191.61" cy="175.25" r="0.05" xlink:href="#radial-gradient"/><radialGradient id="radial-gradient-28" cx="134.76" cy="113.77" r="0.04" xlink:href="#radial-gradient"/><radialGradient id="radial-gradient-29" cx="191.73" cy="174.95" r="0.17" xlink:href="#radial-gradient"/><radialGradient id="radial-gradient-30" cx="192.04" cy="173.94" r="0.8" xlink:href="#radial-gradient"/><radialGradient id="radial-gradient-31" cx="163.81" cy="110.66" r="62.52" xlink:href="#radial-gradient"/><radialGradient id="radial-gradient-32" cx="201.49" cy="173.5" r="1.36" xlink:href="#radial-gradient"/><radialGradient id="radial-gradient-33" cx="198.66" cy="173.81" r="1.21" xlink:href="#radial-gradient"/><radialGradient id="radial-gradient-34" cx="207.31" cy="173.25" r="0.78" xlink:href="#radial-gradient"/><radialGradient id="radial-gradient-35" cx="204.68" cy="173.3" r="1.49" xlink:href="#radial-gradient"/><radialGradient id="radial-gradient-36" cx="139.67" cy="86.09" r="1.56" xlink:href="#radial-gradient"/><radialGradient id="radial-gradient-37" cx="60.51" cy="0.24" r="0.46" xlink:href="#radial-gradient"/><radialGradient id="radial-gradient-38" cx="61.66" cy="0.33" r="0.46" xlink:href="#radial-gradient"/><radialGradient id="radial-gradient-39" cx="57.49" cy="0.01" r="2.16" xlink:href="#radial-gradient"/><radialGradient id="radial-gradient-40" cx="54.66" cy="0" r="0.32" xlink:href="#radial-gradient"/><radialGradient id="radial-gradient-41" cx="138.14" cy="100.2" r="0.89" xlink:href="#radial-gradient"/><radialGradient id="radial-gradient-42" cx="69.38" cy="1.36" r="0.61" xlink:href="#radial-gradient"/><radialGradient id="radial-gradient-43" cx="62.86" cy="0.45" r="0.5" xlink:href="#radial-gradient"/><radialGradient id="radial-gradient-44" cx="66.05" cy="0.57" r="2.41" xlink:href="#radial-gradient"/><radialGradient id="radial-gradient-45" cx="49.72" cy="0.15" r="0.08" xlink:href="#radial-gradient"/><radialGradient id="radial-gradient-46" cx="70.81" cy="1.64" r="0.58" xlink:href="#radial-gradient"/><radialGradient id="radial-gradient-47" cx="49.5" cy="0.17" r="0.06" xlink:href="#radial-gradient"/><radialGradient id="radial-gradient-48" cx="50" cy="0.13" r="0.1" xlink:href="#radial-gradient"/><radialGradient id="radial-gradient-49" cx="53.14" cy="0" r="0.27" xlink:href="#radial-gradient"/><radialGradient id="radial-gradient-50" cx="49.36" cy="0.19" r="0.03" xlink:href="#radial-gradient"/><radialGradient id="radial-gradient-51" cx="52.45" cy="0.01" r="0.27" xlink:href="#radial-gradient"/><radialGradient id="radial-gradient-52" cx="50.36" cy="0.1" r="0.13" xlink:href="#radial-gradient"/><radialGradient id="radial-gradient-53" cx="51.35" cy="0.03" r="0.69" xlink:href="#radial-gradient"/><radialGradient id="radial-gradient-54" cx="53.87" cy="0" r="0.28" xlink:href="#radial-gradient"/><radialGradient id="radial-gradient-55" cx="139.27" cy="91.78" r="1.43" xlink:href="#radial-gradient"/><radialGradient id="radial-gradient-56" cx="139.09" cy="93.66" r="1.16" xlink:href="#radial-gradient"/><radialGradient id="radial-gradient-57" cx="139.44" cy="90.12" r="1.13" xlink:href="#radial-gradient"/><radialGradient id="radial-gradient-58" cx="139.56" cy="88.33" r="1.11" xlink:href="#radial-gradient"/><radialGradient id="radial-gradient-59" cx="139.72" cy="84.32" r="1.52" xlink:href="#radial-gradient"/><radialGradient id="radial-gradient-60" cx="72.25" cy="1.93" r="0.59" xlink:href="#radial-gradient"/><radialGradient id="radial-gradient-61" cx="138.65" cy="96.98" r="1.17" xlink:href="#radial-gradient"/><radialGradient id="radial-gradient-62" cx="138.88" cy="95.44" r="0.97" xlink:href="#radial-gradient"/><radialGradient id="radial-gradient-63" cx="138.41" cy="98.43" r="1.25" xlink:href="#radial-gradient"/><radialGradient id="radial-gradient-64" cx="139.73" cy="80.41" r="1.31" xlink:href="#radial-gradient"/><radialGradient id="radial-gradient-65" cx="73.73" cy="2.25" r="0.64" xlink:href="#radial-gradient"/><radialGradient id="radial-gradient-66" cx="139.14" cy="71.66" r="1.74" xlink:href="#radial-gradient"/><radialGradient id="radial-gradient-67" cx="106.37" cy="1.8" r="94.22" xlink:href="#radial-gradient"/><radialGradient id="radial-gradient-68" cx="139.66" cy="78.13" r="1.67" xlink:href="#radial-gradient"/><radialGradient id="radial-gradient-69" cx="139.38" cy="74.19" r="1.25" xlink:href="#radial-gradient"/><radialGradient id="radial-gradient-70" cx="139.54" cy="76.22" r="1.33" xlink:href="#radial-gradient"/></defs><g class="cls-1"><g id="Layer_2" data-name="Layer 2"><g id="Capa_1" data-name="Capa 1"><path class="cls-2" d="M49.26.2S89.92-4.49,121.2,31.48s13.55,82.34,13.55,82.34,34.93-11.19,52.91,12.27,3.91,49.26,3.91,49.26,49.26-14.07,73.5,30.5S37.53,283.26,37.53,283.26L0,220.7Z"/><path class="cls-3" d="M135.37,112c-.05.13-.09.26-.13.38Z"/><path class="cls-4" d="M135.19,112.55c0,.12-.07.24-.11.34C135.12,112.79,135.15,112.67,135.19,112.55Z"/><path class="cls-5" d="M135.6,111.29c-.07.2-.12.39-.18.56C135.48,111.68,135.53,111.49,135.6,111.29Z"/><path class="cls-6" d="M139.75,83.8v0Z"/><path class="cls-7" d="M134.82,113.64l0,.11Z"/><path class="cls-8" d="M135.82,110.55q-.1.36-.21.69Q135.72,110.91,135.82,110.55Z"/><path class="cls-9" d="M135.05,113c0,.12-.08.24-.12.34C135,113.22,135,113.11,135.05,113Z"/><path class="cls-10" d="M134.91,113.38c0,.07,0,.14-.07.19Z"/><path class="cls-11" d="M136.3,108.86q-.09.35-.18.66Q136.21,109.21,136.3,108.86Z"/><path class="cls-12" d="M138,101.63c-.06.32-.12.64-.19,1C137.85,102.27,137.91,102,138,101.63Z"/><path class="cls-13" d="M137.43,104.27c-.08.34-.15.68-.23,1C137.28,105,137.35,104.61,137.43,104.27Z"/><path class="cls-14" d="M136.05,109.77l-.17.58Z"/><path class="cls-15" d="M137.72,102.91c-.09.41-.17.82-.26,1.21C137.55,103.73,137.63,103.32,137.72,102.91Z"/><path class="cls-16" d="M134.75,113.82a68.72,68.72,0,0,1,16.47-2.61A68.72,68.72,0,0,0,134.75,113.82Z"/><path class="cls-17" d="M136.61,107.71l-.25.94Z"/><path class="cls-18" d="M136.86,106.71c-.07.29-.14.58-.21.85C136.72,107.29,136.79,107,136.86,106.71Z"/><path class="cls-19" d="M137.12,105.62l-.18.77Z"/><path class="cls-20" d="M193.43,174.9l-1.14.26Z"/><path class="cls-21" d="M192.23,175.18l-.56.15Z"/><path class="cls-22" d="M195.16,174.55l-1.68.34Z"/><path class="cls-23" d="M191.63,175.34h0Z"/><path class="cls-24" d="M262,200.71l1,1.51Z"/><path class="cls-25" d="M191.09,205c18.06,11.71,46.17,4.34,69.75-5.94.36.51.72,1,1.07,1.57-15.36-23.34-38.25-27.57-53.71-27.33C188.64,180.59,170.83,191.82,191.09,205Z"/><path class="cls-26" d="M263.29,202.77,264,204C263.77,203.55,263.53,203.16,263.29,202.77Z"/><path class="cls-27" d="M197.36,174.17c-.81.13-1.54.25-2.19.38C195.82,174.42,196.55,174.3,197.36,174.17Z"/><path class="cls-28" d="M191.62,175.25l0,.06Z"/><path class="cls-29" d="M134.75,113.82l0,0Z"/><path class="cls-30" d="M191.78,175l-.1.19Z"/><path class="cls-31" d="M192.25,174c-.16.36-.3.65-.41.88C192,174.61,192.09,174.31,192.25,174Z"/><path class="cls-32" d="M147.61,152.1c27,14.57,41.5,8.46,49.16-.8a52.34,52.34,0,0,1-4.5,22.61c2.61-5.72,10.87-27.63-4.61-47.82-9.9-12.91-24.92-15.32-36.44-14.88C132.92,122.1,119.92,137.19,147.61,152.1Z"/><path class="cls-33" d="M203,173.5c-1.06.09-2.07.19-3,.31C200.94,173.69,202,173.59,203,173.5Z"/><path class="cls-34" d="M200,173.81c-.94.11-1.82.23-2.62.36C198.17,174,199.05,173.92,200,173.81Z"/><path class="cls-35" d="M208.2,173.25l-1.76.05Z"/><path class="cls-36" d="M206.36,173.3c-1.16,0-2.27.12-3.32.2C204.09,173.42,205.2,173.35,206.36,173.3Z"/><path class="cls-37" d="M139.7,86.11c0,.59,0,1.18-.07,1.76C139.66,87.29,139.68,86.7,139.7,86.11Z"/><path class="cls-38" d="M60,.24l1,.08Z"/><path class="cls-39" d="M61.15.34l1,.09Z"/><path class="cls-40" d="M55.1,0c1.4,0,3,.08,4.84.22C58.12.09,56.5,0,55.1,0Z"/><path class="cls-41" d="M54.3,0h0Z"/><path class="cls-42" d="M138.23,100.21l-.18,1Z"/><path class="cls-43" d="M68.74,1.36,70,1.61Z"/><path class="cls-44" d="M62.31.45l1.11.12Z"/><path class="cls-45" d="M63.48.58c1.63.19,3.37.45,5.21.77C66.85,1,65.11.77,63.48.58Z"/><path class="cls-46" d="M49.64.16h0Z"/><path class="cls-47" d="M70.22,1.64l1.2.25Z"/><path class="cls-48" d="M49.43.18h0Z"/><path class="cls-49" d="M49.89.14h0Z"/><path class="cls-50" d="M52.85,0h0Z"/><path class="cls-51" d="M49.33.19h0Z"/><path class="cls-52" d="M52.15,0l.6,0Z"/><path class="cls-53" d="M50.21.12l.3,0Z"/><path class="cls-54" d="M50.59.1c.42,0,.94,0,1.54-.07C51.53.05,51,.07,50.59.1Z"/><path class="cls-55" d="M54.19,0h0Z"/><path class="cls-56" d="M139.35,91.79c0,.55-.1,1.09-.16,1.62C139.25,92.88,139.3,92.34,139.35,91.79Z"/><path class="cls-57" d="M139.16,93.67c0,.44-.09.88-.15,1.31C139.07,94.55,139.12,94.11,139.16,93.67Z"/><path class="cls-58" d="M139.49,90.13c0,.43-.07.86-.1,1.28C139.42,91,139.46,90.56,139.49,90.13Z"/><path class="cls-59" d="M139.6,88.34c0,.43,0,.84-.07,1.26C139.55,89.18,139.58,88.77,139.6,88.34Z"/><path class="cls-60" d="M139.74,84.34c0,.58,0,1.15,0,1.72C139.72,85.49,139.73,84.92,139.74,84.34Z"/><path class="cls-61" d="M71.65,1.94l1.22.27Z"/><path class="cls-62" d="M138.75,97c-.07.44-.13.88-.2,1.32C138.62,97.87,138.68,97.43,138.75,97Z"/><path class="cls-63" d="M139,95.45c0,.37-.09.74-.14,1.1C138.86,96.19,138.91,95.82,139,95.45Z"/><path class="cls-64" d="M138.53,98.44q-.12.72-.24,1.41Q138.41,99.16,138.53,98.44Z"/><path class="cls-65" d="M139.71,80.42c0,.5,0,1,0,1.49C139.74,81.42,139.73,80.92,139.71,80.42Z"/><path class="cls-66" d="M73.08,2.26l1.31.31Z"/><path class="cls-67" d="M139,71.68c.09.65.16,1.31.23,2C139.19,73,139.12,72.33,139,71.68Z"/><path class="cls-68" d="M79.14,3.88c.07,41,4.66,105.09,33,100.06,17.76-3.15,24.72-17.22,26.88-32.27A74.91,74.91,0,0,0,121.2,31.48,90,90,0,0,0,74.53,2.6C76,3,77.57,3.4,79.14,3.88Z"/><path class="cls-69" d="M139.62,78.15c0,.63.06,1.26.08,1.89C139.68,79.41,139.65,78.78,139.62,78.15Z"/><path class="cls-70" d="M139.32,74.21c0,.47.09.94.13,1.41C139.41,75.15,139.36,74.68,139.32,74.21Z"/><path class="cls-71" d="M139.49,76.23c0,.51.08,1,.1,1.51C139.57,77.24,139.53,76.74,139.49,76.23Z"/></g></g></g></svg>