<svg xmlns="http://www.w3.org/2000/svg" xmlns:xlink="http://www.w3.org/1999/xlink" viewBox="0 0 43.27 43.27"><defs><style>.cls-1{isolation:isolate;}.cls-2,.cls-25,.cls-4{mix-blend-mode:screen;}.cls-2{fill:url(#radial-gradient);}.cls-3{fill:url(#radial-gradient-2);}.cls-26,.cls-4{fill:#e0a326;}.cls-25,.cls-4{opacity:0.45;}.cls-10,.cls-11,.cls-12,.cls-13,.cls-14,.cls-15,.cls-16,.cls-17,.cls-18,.cls-19,.cls-20,.cls-21,.cls-22,.cls-23,.cls-24,.cls-5,.cls-6,.cls-7,.cls-8,.cls-9{mix-blend-mode:multiply;opacity:0.5;}.cls-5{fill:url(#radial-gradient-3);}.cls-6{fill:url(#radial-gradient-4);}.cls-7{fill:url(#radial-gradient-5);}.cls-8{fill:url(#radial-gradient-6);}.cls-9{fill:url(#radial-gradient-7);}.cls-10{fill:url(#radial-gradient-8);}.cls-11{fill:url(#radial-gradient-9);}.cls-12{fill:url(#radial-gradient-10);}.cls-13{fill:url(#radial-gradient-11);}.cls-14{fill:url(#radial-gradient-12);}.cls-15{fill:url(#radial-gradient-13);}.cls-16{fill:url(#radial-gradient-14);}.cls-17{fill:url(#radial-gradient-15);}.cls-18{fill:url(#radial-gradient-16);}.cls-19{fill:url(#radial-gradient-17);}.cls-20{fill:url(#radial-gradient-18);}.cls-21{fill:url(#radial-gradient-19);}.cls-22{fill:url(#radial-gradient-20);}.cls-23{fill:url(#radial-gradient-21);}.cls-24{fill:url(#radial-gradient-22);}</style><radialGradient id="radial-gradient" cx="21.78" cy="21" r="21.83" gradientUnits="userSpaceOnUse"><stop offset="0.05" stop-color="#e0a326"/><stop offset="0.41" stop-color="#e0a227" stop-opacity="0.99"/><stop offset="0.55" stop-color="#df9e2b" stop-opacity="0.96"/><stop offset="0.64" stop-color="#de9833" stop-opacity="0.91"/><stop offset="0.71" stop-color="#dd8f3e" stop-opacity="0.83"/><stop offset="0.78" stop-color="#db844c" stop-opacity="0.73"/><stop offset="0.84" stop-color="#d8755d" stop-opacity="0.61"/><stop offset="0.89" stop-color="#d56471" stop-opacity="0.47"/><stop offset="0.93" stop-color="#d25089" stop-opacity="0.3"/><stop offset="0.98" stop-color="#ce3ba3" stop-opacity="0.12"/><stop offset="1" stop-color="#cc2db4" stop-opacity="0"/></radialGradient><radialGradient id="radial-gradient-2" cx="14.71" cy="8.99" r="38.93" gradientUnits="userSpaceOnUse"><stop offset="0" stop-color="#f20074"/><stop offset="0.14" stop-color="#ed0376"/><stop offset="0.31" stop-color="#df0b7d"/><stop offset="0.49" stop-color="#c71887"/><stop offset="0.67" stop-color="#a62a96"/><stop offset="0.87" stop-color="#7b42a9"/><stop offset="0.9" stop-color="#7446ac"/></radialGradient><radialGradient id="radial-gradient-3" cx="14.71" cy="12.28" r="36.44" xlink:href="#radial-gradient-2"/><radialGradient id="radial-gradient-4" cx="15.76" cy="17.55" r="30.62" xlink:href="#radial-gradient-2"/><radialGradient id="radial-gradient-5" cx="17.01" cy="-8.26" r="24" xlink:href="#radial-gradient-2"/><radialGradient id="radial-gradient-6" cx="18.58" cy="7.56" r="8.07" xlink:href="#radial-gradient-2"/><radialGradient id="radial-gradient-7" cx="22.03" cy="-3.46" r="16.73" xlink:href="#radial-gradient-2"/><radialGradient id="radial-gradient-8" cx="47.28" cy="-1.72" r="10.9" gradientTransform="matrix(1, 0.07, -0.11, 1.61, -28.25, 18.55)" xlink:href="#radial-gradient-2"/><radialGradient id="radial-gradient-9" cx="18.19" cy="24.6" r="11.46" xlink:href="#radial-gradient-2"/><radialGradient id="radial-gradient-10" cx="30.07" cy="-20.97" r="45.13" xlink:href="#radial-gradient-2"/><radialGradient id="radial-gradient-11" cx="35.41" cy="5.48" r="11.48" xlink:href="#radial-gradient-2"/><radialGradient id="radial-gradient-12" cx="32.52" cy="12.39" r="7.94" xlink:href="#radial-gradient-2"/><radialGradient id="radial-gradient-13" cx="30.76" cy="26.83" r="6.72" xlink:href="#radial-gradient-2"/><radialGradient id="radial-gradient-14" cx="32.17" cy="3.54" r="22.02" xlink:href="#radial-gradient-2"/><radialGradient id="radial-gradient-15" cx="3.34" cy="-17.38" r="32.19" xlink:href="#radial-gradient-2"/><radialGradient id="radial-gradient-16" cx="5.27" cy="9.74" r="7.78" xlink:href="#radial-gradient-2"/><radialGradient id="radial-gradient-17" cx="7.06" cy="-7.05" r="19.52" xlink:href="#radial-gradient-2"/><radialGradient id="radial-gradient-18" cx="15.7" cy="2.2" r="5.69" xlink:href="#radial-gradient-2"/><radialGradient id="radial-gradient-19" cx="5.48" cy="3.06" r="29.05" xlink:href="#radial-gradient-2"/><radialGradient id="radial-gradient-20" cx="6.78" cy="19.01" r="7.62" xlink:href="#radial-gradient-2"/><radialGradient id="radial-gradient-21" cx="13.97" cy="29.96" r="6.41" xlink:href="#radial-gradient-2"/><radialGradient id="radial-gradient-22" cx="6.38" cy="18.54" r="14.11" xlink:href="#radial-gradient-2"/></defs><g class="cls-1"><g id="Layer_2" data-name="Layer 2"><g id="Capa_1" data-name="Capa 1"><circle class="cls-2" cx="21.63" cy="21.63" r="21.63"/><circle class="cls-3" cx="21.63" cy="21.63" r="17.7"/><path class="cls-4" d="M4.76,22.54A17.71,17.71,0,0,1,35.07,10.11a17.7,17.7,0,1,0-26,24A17.63,17.63,0,0,1,4.76,22.54Z"/><path class="cls-4" d="M11.19,31.2a15.69,15.69,0,0,1,26.6-11.29A15.69,15.69,0,1,0,11.41,33.76,15.42,15.42,0,0,1,11.19,31.2Z"/><path class="cls-5" d="M32.63,7.77a15.94,15.94,0,0,1,.75,4.86A16.15,16.15,0,0,1,3.94,21.81a17.7,17.7,0,1,0,28.69-14Z"/><path class="cls-6" d="M36.45,14.07A16.69,16.69,0,0,1,5.89,27.27a16.69,16.69,0,1,0,30.56-13.2Z"/><path class="cls-7" d="M33.21,13.4c-.75,1.89-3.47,2.57-6.09,1.53S23,11.53,23.74,9.65s3.47-2.57,6.08-1.53S34,11.52,33.21,13.4Zm-11-.17c-1.2-.48-2.46-.17-2.8.7s.36,2,1.56,2.43,2.46.16,2.8-.71S23.4,13.7,22.2,13.23Z"/><path class="cls-8" d="M22.2,13.23c-1.2-.48-2.46-.17-2.8.7a1.35,1.35,0,0,0-.08.4A2.38,2.38,0,0,1,21.84,14a2.34,2.34,0,0,1,1.64,2,1.34,1.34,0,0,0,.28-.42C24.1,14.79,23.4,13.7,22.2,13.23Z"/><path class="cls-9" d="M29.82,8.12c-2.61-1-5.34-.35-6.08,1.53a1.93,1.93,0,0,0-.11.34c1-1.51,3.45-2,5.83-1.06s3.95,3.13,3.49,5a2.77,2.77,0,0,0,.26-.48C34,11.52,32.44,9.16,29.82,8.12Z"/><path class="cls-10" d="M27.44,32.78c-.12,1.58-2,2.74-4.18,2.58s-3.88-1.56-3.77-3.14,2-2.73,4.17-2.57S27.55,31.21,27.44,32.78Z"/><path class="cls-11" d="M27.11,31.5a1,1,0,0,1,0,.24c-.11,1.58-2,2.73-4.17,2.57a4.29,4.29,0,0,1-3.45-1.85c.07,1.48,1.69,2.75,3.77,2.9s4.06-1,4.18-2.58A2.16,2.16,0,0,0,27.11,31.5Z"/><path class="cls-12" d="M36.91,20.69c1.16.46,1.26,2.95.22,5.57s-2.83,4.36-4,3.9-1.26-3-.22-5.57S35.74,20.23,36.91,20.69ZM32.12,32.44c-.77.68-1.15,1.5-.85,1.85s1.17.07,1.94-.61,1.15-1.5.85-1.84S32.89,31.77,32.12,32.44ZM35.2,17.23c.27,1.4,1,2.43,1.6,2.32s.91-1.35.65-2.74-1-2.43-1.61-2.32S34.94,15.84,35.2,17.23Zm-2.1,2.64c-.43.93-.45,1.84,0,2s1.09-.4,1.52-1.33.45-1.84,0-2S33.53,18.94,33.1,19.87Z"/><path class="cls-13" d="M36.73,16.65c.25,1.29,0,2.43-.51,2.69a.74.74,0,0,0,.58.21c.62-.12.91-1.35.65-2.74s-1-2.43-1.61-2.32l-.13.06A3.69,3.69,0,0,1,36.73,16.65Z"/><path class="cls-14" d="M33.88,20.41a2.86,2.86,0,0,1-1,1.27.45.45,0,0,0,.21.22c.41.2,1.09-.4,1.52-1.33s.45-1.84,0-2a.54.54,0,0,0-.51.07A2.41,2.41,0,0,1,33.88,20.41Z"/><path class="cls-15" d="M33.37,31.74c.23.36-.14,1.14-.88,1.79a3.23,3.23,0,0,1-1.25.71s0,0,0,0c.3.34,1.17.07,1.94-.61s1.15-1.5.85-1.84A.68.68,0,0,0,33.37,31.74Z"/><path class="cls-16" d="M36.91,20.69a1.13,1.13,0,0,0-.55-.06c1,.63,1,3,0,5.48-.89,2.23-2.32,3.83-3.44,4l.17.09c1.16.46,3-1.28,4-3.9S38.07,21.15,36.91,20.69Z"/><path class="cls-17" d="M15.14,7.7c1,.79.31,3.2-1.46,5.38s-4,3.31-5,2.52-.31-3.2,1.47-5.38S14.17,6.91,15.14,7.7Zm2.55-1.51c-1,.41-1.57,1.07-1.39,1.49s1.09.43,2,0,1.57-1.07,1.39-1.49S18.63,5.79,17.69,6.19ZM6.09,16.93c-.5.89-.59,1.8-.19,2S7,18.63,7.53,17.74s.59-1.8.19-2S6.59,16,6.09,16.93Z"/><path class="cls-18" d="M6.51,17.69c.44-.77,1-1.28,1.45-1.26,0-.35,0-.61-.24-.72-.4-.22-1.13.32-1.63,1.22s-.59,1.8-.19,2a.61.61,0,0,0,.18.05A3.34,3.34,0,0,1,6.51,17.69Z"/><path class="cls-19" d="M10.59,11c1.77-2.17,4-3.3,5-2.53a1.24,1.24,0,0,0-.41-.75c-1-.79-3.19.34-5,2.52S7.73,14.8,8.7,15.6h0C8.5,14.5,9.2,12.67,10.59,11Z"/><path class="cls-20" d="M18.11,7a3.11,3.11,0,0,1,1.54-.27.56.56,0,0,0,.07-.46c-.18-.41-1.09-.43-2,0S16.12,7.26,16.3,7.68a.61.61,0,0,0,.49.3A2.76,2.76,0,0,1,18.11,7Z"/><path class="cls-21" d="M13.26,34.23c-.68.72-2.49.13-4-1.32S7,29.69,7.64,29s2.48-.13,4,1.32S13.93,33.5,13.26,34.23Zm3.44.6c-.91-.54-1.85-.64-2.1-.22s.27,1.21,1.18,1.76,1.84.64,2.1.22S17.61,35.38,16.7,34.83Zm-7.38-9.1c-.66-.83-1.51-1.25-1.89-.95s-.17,1.23.48,2.06,1.51,1.26,1.89.95S10,26.56,9.32,25.73Z"/><path class="cls-22" d="M9.8,27.79a.6.6,0,0,0,.19-.47,2.36,2.36,0,0,1-1.6-1,2.75,2.75,0,0,1-.67-1.59.48.48,0,0,0-.29.09c-.39.31-.17,1.23.49,2.06S9.42,28.1,9.8,27.79Z"/><path class="cls-23" d="M16.25,35.81A2.41,2.41,0,0,1,15,34.37a.56.56,0,0,0-.42.24c-.26.42.27,1.21,1.18,1.76s1.84.64,2.1.22a.49.49,0,0,0,.05-.32A2.76,2.76,0,0,1,16.25,35.81Z"/><path class="cls-24" d="M9.7,32.35c-1.34-1.25-2-2.73-1.78-3.58a.84.84,0,0,0-.28.2c-.68.72,0,2.49,1.58,3.94s3.36,2,4,1.32a1.1,1.1,0,0,0,.2-.37C12.64,34.24,11.07,33.64,9.7,32.35Z"/><g class="cls-25"><g class="cls-25"><path class="cls-26" d="M15.06,11.51c.92.81.5,2.79-.94,4.43s-3.36,2.31-4.28,1.49-.5-2.79.94-4.43S14.14,10.7,15.06,11.51Z"/></g><g class="cls-25"><path class="cls-26" d="M20,8.34c.34.64-.3,1.65-1.44,2.25s-2.32.56-2.66-.08.31-1.64,1.44-2.24S19.63,7.71,20,8.34Z"/></g></g></g></g></g></svg>