<svg xmlns="http://www.w3.org/2000/svg" xmlns:xlink="http://www.w3.org/1999/xlink" viewBox="0 0 266.72 283.26"><defs><style>.cls-1{isolation:isolate;}.cls-10,.cls-11,.cls-12,.cls-13,.cls-14,.cls-15,.cls-16,.cls-17,.cls-18,.cls-19,.cls-2,.cls-20,.cls-21,.cls-22,.cls-23,.cls-24,.cls-25,.cls-26,.cls-27,.cls-28,.cls-29,.cls-3,.cls-30,.cls-31,.cls-32,.cls-33,.cls-34,.cls-35,.cls-36,.cls-37,.cls-38,.cls-39,.cls-4,.cls-40,.cls-41,.cls-42,.cls-43,.cls-44,.cls-45,.cls-46,.cls-47,.cls-48,.cls-49,.cls-5,.cls-50,.cls-51,.cls-52,.cls-53,.cls-54,.cls-55,.cls-56,.cls-57,.cls-58,.cls-59,.cls-6,.cls-60,.cls-61,.cls-62,.cls-63,.cls-64,.cls-65,.cls-66,.cls-67,.cls-68,.cls-69,.cls-7,.cls-70,.cls-71,.cls-8,.cls-9{mix-blend-mode:screen;}.cls-2{fill:url(#radial-gradient);}.cls-3{fill:url(#radial-gradient-2);}.cls-4{fill:url(#radial-gradient-3);}.cls-5{fill:url(#radial-gradient-4);}.cls-6{fill:url(#radial-gradient-5);}.cls-7{fill:url(#radial-gradient-6);}.cls-8{fill:url(#radial-gradient-7);}.cls-9{fill:url(#radial-gradient-8);}.cls-10{fill:url(#radial-gradient-9);}.cls-11{fill:url(#radial-gradient-10);}.cls-12{fill:url(#radial-gradient-11);}.cls-13{fill:url(#radial-gradient-12);}.cls-14{fill:url(#radial-gradient-13);}.cls-15{fill:url(#radial-gradient-14);}.cls-16{fill:url(#radial-gradient-15);}.cls-17{fill:url(#radial-gradient-16);}.cls-18{fill:url(#radial-gradient-17);}.cls-19{fill:url(#radial-gradient-18);}.cls-20{fill:url(#radial-gradient-19);}.cls-21{fill:url(#radial-gradient-20);}.cls-22{fill:url(#radial-gradient-21);}.cls-23{fill:url(#radial-gradient-22);}.cls-24{fill:url(#radial-gradient-23);}.cls-25{fill:url(#radial-gradient-24);}.cls-26{fill:url(#radial-gradient-25);}.cls-27{fill:url(#radial-gradient-26);}.cls-28{fill:url(#radial-gradient-27);}.cls-29{fill:url(#radial-gradient-28);}.cls-30{fill:url(#radial-gradient-29);}.cls-31{fill:url(#radial-gradient-30);}.cls-32{fill:url(#radial-gradient-31);}.cls-33{fill:url(#radial-gradient-32);}.cls-34{fill:url(#radial-gradient-33);}.cls-35{fill:url(#radial-gradient-34);}.cls-36{fill:url(#radial-gradient-35);}.cls-37{fill:url(#radial-gradient-36);}.cls-38{fill:url(#radial-gradient-37);}.cls-39{fill:url(#radial-gradient-38);}.cls-40{fill:url(#radial-gradient-39);}.cls-41{fill:url(#radial-gradient-40);}.cls-42{fill:url(#radial-gradient-41);}.cls-43{fill:url(#radial-gradient-42);}.cls-44{fill:url(#radial-gradient-43);}.cls-45{fill:url(#radial-gradient-44);}.cls-46{fill:url(#radial-gradient-45);}.cls-47{fill:url(#radial-gradient-46);}.cls-48{fill:url(#radial-gradient-47);}.cls-49{fill:url(#radial-gradient-48);}.cls-50{fill:url(#radial-gradient-49);}.cls-51{fill:url(#radial-gradient-50);}.cls-52{fill:url(#radial-gradient-51);}.cls-53{fill:url(#radial-gradient-52);}.cls-54{fill:url(#radial-gradient-53);}.cls-55{fill:url(#radial-gradient-54);}.cls-56{fill:url(#radial-gradient-55);}.cls-57{fill:url(#radial-gradient-56);}.cls-58{fill:url(#radial-gradient-57);}.cls-59{fill:url(#radial-gradient-58);}.cls-60{fill:url(#radial-gradient-59);}.cls-61{fill:url(#radial-gradient-60);}.cls-62{fill:url(#radial-gradient-61);}.cls-63{fill:url(#radial-gradient-62);}.cls-64{fill:url(#radial-gradient-63);}.cls-65{fill:url(#radial-gradient-64);}.cls-66{fill:url(#radial-gradient-65);}.cls-67{fill:url(#radial-gradient-66);}.cls-68{fill:url(#radial-gradient-67);}.cls-69{fill:url(#radial-gradient-68);}.cls-70{fill:url(#radial-gradient-69);}.cls-71{fill:url(#radial-gradient-70);}</style><radialGradient id="radial-gradient" cx="-36.87" cy="-2.24" r="276.81" gradientTransform="matrix(-1, 0, 0, 1, 98.18, 0)" gradientUnits="userSpaceOnUse"><stop offset="0" stop-color="#f20074"/><stop offset="0.14" stop-color="#ed0376"/><stop offset="0.31" stop-color="#df0b7d"/><stop offset="0.49" stop-color="#c71887"/><stop offset="0.67" stop-color="#a62a96"/><stop offset="0.87" stop-color="#7b42a9"/><stop offset="0.9" stop-color="#7446ac"/></radialGradient><radialGradient id="radial-gradient-2" cx="-33.23" cy="112.02" r="0.34" xlink:href="#radial-gradient"/><radialGradient id="radial-gradient-3" cx="-33.4" cy="112.55" r="0.3" xlink:href="#radial-gradient"/><radialGradient id="radial-gradient-4" cx="-33.03" cy="111.29" r="0.5" xlink:href="#radial-gradient"/><radialGradient id="radial-gradient-5" cx="-28.78" cy="82.47" r="1.17" xlink:href="#radial-gradient"/><radialGradient id="radial-gradient-6" cx="-33.74" cy="113.64" r="0.1" xlink:href="#radial-gradient"/><radialGradient id="radial-gradient-7" cx="-32.82" cy="110.54" r="0.62" xlink:href="#radial-gradient"/><radialGradient id="radial-gradient-8" cx="-33.54" cy="112.97" r="0.3" xlink:href="#radial-gradient"/><radialGradient id="radial-gradient-9" cx="-33.66" cy="113.38" r="0.17" xlink:href="#radial-gradient"/><radialGradient id="radial-gradient-10" cx="-32.32" cy="108.86" r="0.59" xlink:href="#radial-gradient"/><radialGradient id="radial-gradient-11" cx="-30.66" cy="101.62" r="0.86" xlink:href="#radial-gradient"/><radialGradient id="radial-gradient-12" cx="-31.22" cy="104.26" r="0.89" xlink:href="#radial-gradient"/><radialGradient id="radial-gradient-13" cx="-32.57" cy="109.77" r="0.52" xlink:href="#radial-gradient"/><radialGradient id="radial-gradient-14" cx="-30.94" cy="102.9" r="1.08" xlink:href="#radial-gradient"/><radialGradient id="radial-gradient-15" cx="-25.65" cy="111.19" r="7.67" xlink:href="#radial-gradient"/><radialGradient id="radial-gradient-16" cx="-32.05" cy="107.7" r="0.84" xlink:href="#radial-gradient"/><radialGradient id="radial-gradient-17" cx="-31.78" cy="106.7" r="0.76" xlink:href="#radial-gradient"/><radialGradient id="radial-gradient-18" cx="-31.5" cy="105.61" r="0.69" xlink:href="#radial-gradient"/><radialGradient id="radial-gradient-19" cx="24.32" cy="174.9" r="0.55" xlink:href="#radial-gradient"/><radialGradient id="radial-gradient-20" cx="23.41" cy="175.18" r="0.28" xlink:href="#radial-gradient"/><radialGradient id="radial-gradient-21" cx="25.77" cy="174.55" r="0.81" xlink:href="#radial-gradient"/><radialGradient id="radial-gradient-22" cx="23.07" cy="175.34" r="0.03" xlink:href="#radial-gradient"/><radialGradient id="radial-gradient-23" cx="93.94" cy="200.7" r="1.39" xlink:href="#radial-gradient"/><radialGradient id="radial-gradient-24" cx="52.99" cy="172.95" r="48.6" xlink:href="#radial-gradient"/><radialGradient id="radial-gradient-25" cx="95.11" cy="202.76" r="1.1" xlink:href="#radial-gradient"/><radialGradient id="radial-gradient-26" cx="27.72" cy="174.17" r="1.03" xlink:href="#radial-gradient"/><radialGradient id="radial-gradient-27" cx="23.08" cy="175.25" r="0.05" xlink:href="#radial-gradient"/><radialGradient id="radial-gradient-28" cx="-33.77" cy="113.77" r="0.04" xlink:href="#radial-gradient"/><radialGradient id="radial-gradient-29" cx="23.2" cy="174.95" r="0.17" xlink:href="#radial-gradient"/><radialGradient id="radial-gradient-30" cx="23.51" cy="173.94" r="0.8" xlink:href="#radial-gradient"/><radialGradient id="radial-gradient-31" cx="-4.73" cy="110.66" r="62.52" xlink:href="#radial-gradient"/><radialGradient id="radial-gradient-32" cx="32.96" cy="173.5" r="1.36" xlink:href="#radial-gradient"/><radialGradient id="radial-gradient-33" cx="30.13" cy="173.81" r="1.21" xlink:href="#radial-gradient"/><radialGradient id="radial-gradient-34" cx="38.78" cy="173.25" r="0.78" xlink:href="#radial-gradient"/><radialGradient id="radial-gradient-35" cx="36.15" cy="173.3" r="1.49" xlink:href="#radial-gradient"/><radialGradient id="radial-gradient-36" cx="-28.87" cy="86.09" r="1.56" xlink:href="#radial-gradient"/><radialGradient id="radial-gradient-37" cx="-108.02" cy="0.24" r="0.46" xlink:href="#radial-gradient"/><radialGradient id="radial-gradient-38" cx="-106.88" cy="0.33" r="0.46" xlink:href="#radial-gradient"/><radialGradient id="radial-gradient-39" cx="-111.05" cy="0.01" r="2.16" xlink:href="#radial-gradient"/><radialGradient id="radial-gradient-40" cx="-113.87" cy="0" r="0.32" xlink:href="#radial-gradient"/><radialGradient id="radial-gradient-41" cx="-30.39" cy="100.2" r="0.89" xlink:href="#radial-gradient"/><radialGradient id="radial-gradient-42" cx="-99.16" cy="1.36" r="0.61" xlink:href="#radial-gradient"/><radialGradient id="radial-gradient-43" cx="-105.68" cy="0.45" r="0.5" xlink:href="#radial-gradient"/><radialGradient id="radial-gradient-44" cx="-102.48" cy="0.57" r="2.41" xlink:href="#radial-gradient"/><radialGradient id="radial-gradient-45" cx="-118.81" cy="0.15" r="0.08" xlink:href="#radial-gradient"/><radialGradient id="radial-gradient-46" cx="-97.72" cy="1.64" r="0.58" xlink:href="#radial-gradient"/><radialGradient id="radial-gradient-47" cx="-119.03" cy="0.17" r="0.06" xlink:href="#radial-gradient"/><radialGradient id="radial-gradient-48" cx="-118.53" cy="0.13" r="0.1" xlink:href="#radial-gradient"/><radialGradient id="radial-gradient-49" cx="-115.39" cy="0" r="0.27" xlink:href="#radial-gradient"/><radialGradient id="radial-gradient-50" cx="-119.17" cy="0.19" r="0.03" xlink:href="#radial-gradient"/><radialGradient id="radial-gradient-51" cx="-116.08" cy="0.01" r="0.27" xlink:href="#radial-gradient"/><radialGradient id="radial-gradient-52" cx="-118.17" cy="0.1" r="0.13" xlink:href="#radial-gradient"/><radialGradient id="radial-gradient-53" cx="-117.18" cy="0.03" r="0.69" xlink:href="#radial-gradient"/><radialGradient id="radial-gradient-54" cx="-114.67" cy="0" r="0.28" xlink:href="#radial-gradient"/><radialGradient id="radial-gradient-55" cx="-29.26" cy="91.78" r="1.43" xlink:href="#radial-gradient"/><radialGradient id="radial-gradient-56" cx="-29.44" cy="93.66" r="1.16" xlink:href="#radial-gradient"/><radialGradient id="radial-gradient-57" cx="-29.1" cy="90.12" r="1.13" xlink:href="#radial-gradient"/><radialGradient id="radial-gradient-58" cx="-28.97" cy="88.33" r="1.11" xlink:href="#radial-gradient"/><radialGradient id="radial-gradient-59" cx="-28.81" cy="84.32" r="1.52" xlink:href="#radial-gradient"/><radialGradient id="radial-gradient-60" cx="-96.28" cy="1.93" r="0.59" xlink:href="#radial-gradient"/><radialGradient id="radial-gradient-61" cx="-29.89" cy="96.98" r="1.17" xlink:href="#radial-gradient"/><radialGradient id="radial-gradient-62" cx="-29.65" cy="95.44" r="0.97" xlink:href="#radial-gradient"/><radialGradient id="radial-gradient-63" cx="-30.12" cy="98.43" r="1.25" xlink:href="#radial-gradient"/><radialGradient id="radial-gradient-64" cx="-28.81" cy="80.41" r="1.31" xlink:href="#radial-gradient"/><radialGradient id="radial-gradient-65" cx="-94.8" cy="2.25" r="0.64" xlink:href="#radial-gradient"/><radialGradient id="radial-gradient-66" cx="-29.39" cy="71.66" r="1.74" xlink:href="#radial-gradient"/><radialGradient id="radial-gradient-67" cx="-62.16" cy="1.8" r="94.22" xlink:href="#radial-gradient"/><radialGradient id="radial-gradient-68" cx="-28.87" cy="78.13" r="1.67" xlink:href="#radial-gradient"/><radialGradient id="radial-gradient-69" cx="-29.15" cy="74.19" r="1.25" xlink:href="#radial-gradient"/><radialGradient id="radial-gradient-70" cx="-28.99" cy="76.22" r="1.33" xlink:href="#radial-gradient"/></defs><g class="cls-1"><g id="Layer_2" data-name="Layer 2"><g id="Capa_1" data-name="Capa 1"><path class="cls-2" d="M217.45.2s-40.66-4.69-71.93,31.28S132,113.82,132,113.82,97,102.63,79.05,126.09s-3.91,49.26-3.91,49.26-49.26-14.07-73.5,30.5,227.54,77.41,227.54,77.41l37.54-62.56Z"/><path class="cls-3" d="M131.35,112l.12.38C131.43,112.28,131.39,112.16,131.35,112Z"/><path class="cls-4" d="M131.52,112.55c0,.12.08.24.12.34C131.6,112.79,131.56,112.67,131.52,112.55Z"/><path class="cls-5" d="M131.12,111.29c.06.2.12.39.18.56C131.24,111.68,131.18,111.49,131.12,111.29Z"/><path class="cls-6" d="M127,83.8v0Z"/><path class="cls-7" d="M131.9,113.64l0,.11Z"/><path class="cls-8" d="M130.9,110.55c.07.24.14.47.2.69C131,111,131,110.79,130.9,110.55Z"/><path class="cls-9" d="M131.67,113l.11.34Z"/><path class="cls-10" d="M131.81,113.38c0,.07.05.14.06.19A1.45,1.45,0,0,1,131.81,113.38Z"/><path class="cls-11" d="M130.41,108.86c.07.23.13.45.19.66C130.54,109.31,130.48,109.09,130.41,108.86Z"/><path class="cls-12" d="M128.74,101.63c.07.32.13.64.19,1C128.87,102.27,128.81,102,128.74,101.63Z"/><path class="cls-13" d="M129.29,104.27c.07.34.15.68.22,1C129.44,105,129.36,104.61,129.29,104.27Z"/><path class="cls-14" d="M130.67,109.77c.06.2.11.4.17.58C130.78,110.17,130.73,110,130.67,109.77Z"/><path class="cls-15" d="M129,102.91c.08.41.17.82.25,1.21C129.17,103.73,129.08,103.32,129,102.91Z"/><path class="cls-16" d="M132,113.82a68.74,68.74,0,0,0-16.48-2.61A68.74,68.74,0,0,1,132,113.82Z"/><path class="cls-17" d="M130.11,107.71c.08.33.16.64.25.94C130.27,108.35,130.19,108,130.11,107.71Z"/><path class="cls-18" d="M129.86,106.71c.07.29.14.58.21.85C130,107.29,129.93,107,129.86,106.71Z"/><path class="cls-19" d="M129.59,105.62c.06.26.13.52.19.77C129.72,106.14,129.65,105.88,129.59,105.62Z"/><path class="cls-20" d="M73.29,174.9l1.13.26Z"/><path class="cls-21" d="M74.48,175.18l.57.15Z"/><path class="cls-22" d="M71.55,174.55c.65.12,1.21.24,1.69.34C72.76,174.79,72.2,174.67,71.55,174.55Z"/><path class="cls-23" d="M75.09,175.34h0Z"/><path class="cls-24" d="M4.72,200.71c-.33.5-.65,1-1,1.51C4.07,201.71,4.4,201.21,4.72,200.71Z"/><path class="cls-25" d="M75.63,205C57.56,216.66,29.46,209.29,5.87,199c-.36.51-.71,1-1.07,1.57C20.16,177.24,43.06,173,58.52,173.25,78.07,180.59,95.88,191.82,75.63,205Z"/><path class="cls-26" d="M3.42,202.77c-.24.39-.48.79-.71,1.19C2.94,203.55,3.18,203.16,3.42,202.77Z"/><path class="cls-27" d="M69.36,174.17c.8.13,1.53.25,2.18.38C70.89,174.42,70.16,174.3,69.36,174.17Z"/><path class="cls-28" d="M75.09,175.25l0,.06Z"/><path class="cls-29" d="M132,113.82l0,0Z"/><path class="cls-30" d="M74.94,175l.1.19Z"/><path class="cls-31" d="M74.46,174l.42.88C74.77,174.61,74.63,174.31,74.46,174Z"/><path class="cls-32" d="M119.11,152.1c-27,14.57-41.51,8.46-49.17-.8a52.34,52.34,0,0,0,4.5,22.61c-2.6-5.72-10.86-27.63,4.61-47.82,9.9-12.91,24.93-15.32,36.44-14.88C133.8,122.1,146.8,137.19,119.11,152.1Z"/><path class="cls-33" d="M63.71,173.5c1.06.09,2.06.19,3,.31C65.77,173.69,64.77,173.59,63.71,173.5Z"/><path class="cls-34" d="M66.73,173.81c.94.11,1.81.23,2.62.36C68.55,174,67.67,173.92,66.73,173.81Z"/><path class="cls-35" d="M58.52,173.25l1.75.05Z"/><path class="cls-36" d="M60.35,173.3c1.16,0,2.27.12,3.33.2C62.62,173.42,61.51,173.35,60.35,173.3Z"/><path class="cls-37" d="M127,86.11c0,.59,0,1.18.08,1.76C127.06,87.29,127,86.7,127,86.11Z"/><path class="cls-38" d="M206.71.24l-1,.08Z"/><path class="cls-39" d="M205.56.34l-1,.09Z"/><path class="cls-40" d="M211.62,0c-1.4,0-3,.08-4.84.22C208.59.09,210.22,0,211.62,0Z"/><path class="cls-41" d="M212.41,0h0Z"/><path class="cls-42" d="M128.48,100.21c.06.34.13.67.19,1C128.61,100.88,128.54,100.55,128.48,100.21Z"/><path class="cls-43" d="M198,1.36l-1.29.25Z"/><path class="cls-44" d="M204.41.45,203.3.57Z"/><path class="cls-45" d="M203.23.58c-1.63.19-3.37.45-5.2.77C199.86,1,201.6.77,203.23.58Z"/><path class="cls-46" d="M217.08.16h0Z"/><path class="cls-47" d="M196.5,1.64l-1.2.25Z"/><path class="cls-48" d="M217.28.18h0Z"/><path class="cls-49" d="M216.83.14h0Z"/><path class="cls-50" d="M213.87,0h0Z"/><path class="cls-51" d="M217.39.19h0Z"/><path class="cls-52" d="M214.56,0,214,0Z"/><path class="cls-53" d="M216.5.12l-.29,0Z"/><path class="cls-54" d="M216.13.1c-.42,0-.94,0-1.55-.07C215.19.05,215.71.07,216.13.1Z"/><path class="cls-55" d="M212.53,0h0Z"/><path class="cls-56" d="M127.36,91.79c0,.55.11,1.09.16,1.62C127.47,92.88,127.41,92.34,127.36,91.79Z"/><path class="cls-57" d="M127.55,93.67,127.7,95Z"/><path class="cls-58" d="M127.23,90.13c0,.43.06.86.1,1.28C127.29,91,127.26,90.56,127.23,90.13Z"/><path class="cls-59" d="M127.11,88.34c0,.43,0,.84.08,1.26C127.16,89.18,127.14,88.77,127.11,88.34Z"/><path class="cls-60" d="M127,84.34c0,.58,0,1.15,0,1.72C127,85.49,127,84.92,127,84.34Z"/><path class="cls-61" d="M195.07,1.94c-.41.08-.81.17-1.22.27C194.26,2.11,194.66,2,195.07,1.94Z"/><path class="cls-62" d="M128,97c.06.44.13.88.2,1.32C128.1,97.87,128,97.43,128,97Z"/><path class="cls-63" d="M127.76,95.45l.15,1.1Z"/><path class="cls-64" d="M128.19,98.44c.07.48.15,1,.23,1.41C128.34,99.39,128.26,98.92,128.19,98.44Z"/><path class="cls-65" d="M127,80.42l0,1.49Z"/><path class="cls-66" d="M193.63,2.26l-1.3.31Z"/><path class="cls-67" d="M127.68,71.68c-.08.65-.16,1.31-.22,2C127.52,73,127.6,72.33,127.68,71.68Z"/><path class="cls-68" d="M187.58,3.88c-.07,41-4.66,105.09-33,100.06-17.75-3.15-24.72-17.22-26.88-32.27a74.86,74.86,0,0,1,17.84-40.19A90,90,0,0,1,192.18,2.6C190.69,3,189.15,3.4,187.58,3.88Z"/><path class="cls-69" d="M127.1,78.15Q127,79.1,127,80,127,79.1,127.1,78.15Z"/><path class="cls-70" d="M127.4,74.21c-.05.47-.09.94-.13,1.41C127.31,75.15,127.35,74.68,127.4,74.21Z"/><path class="cls-71" d="M127.22,76.23c0,.51-.07,1-.1,1.51C127.15,77.24,127.18,76.74,127.22,76.23Z"/></g></g></g></svg>