<svg xmlns="http://www.w3.org/2000/svg" viewBox="0 0 62.72 35.91"><defs><style>.cls-1{isolation:isolate;}.cls-2,.cls-3{fill:#e0a326;}.cls-3,.cls-5{mix-blend-mode:multiply;opacity:0.54;}.cls-4{mix-blend-mode:screen;}</style></defs><g class="cls-1"><g id="Layer_2" data-name="Layer 2"><g id="Capa_1" data-name="Capa 1"><path class="cls-2" d="M62.46,1.73C60.93-1.2,53-.28,42.52,3.52A10.92,10.92,0,0,1,44.14,5c6.66-2,11.52-2.26,12.58-.22,1.81,3.46-8.08,12.19-22.09,19.5S7.8,34.65,6,31.19C4.85,29,8.42,24.68,14.74,20a8.09,8.09,0,0,1-.31-2C4.56,24.67-1.34,31.11.26,34.18c2.22,4.25,17.94.43,35.11-8.54S64.68,6,62.46,1.73Z"/><path class="cls-3" d="M45.54,3.11a1.39,1.39,0,0,1,0-.64q-1.47.48-3,1A10.92,10.92,0,0,1,44.14,5c6.66-2,11.52-2.26,12.58-.22,1.81,3.46-8.08,12.19-22.09,19.5S7.8,34.65,6,31.19C4.85,29,8.42,24.68,14.74,20a8.09,8.09,0,0,1-.31-2C9,21.65,4.77,25.26,2.33,28.28c2.93-2.72,8-7.28,8.16-6.37.21,1.27-11.37,8.18-3.93,11.15s26.77-7.44,34.2-11.58S57.23,10,59.14,4.91,46.07,5.44,45.54,3.11Z"/><g class="cls-4"><g class="cls-5"><path class="cls-2" d="M6.5,34c0,.07-.33.06-.79.11a13,13,0,0,1-1.78.15A2.79,2.79,0,0,1,2,33.48a2.11,2.11,0,0,1-.51-.94,1.79,1.79,0,0,1,0-.29,2.46,2.46,0,0,1,.09-.71,5.91,5.91,0,0,1,.85-1.68c.72-1.09,1.62-2,1.74-1.93a13,13,0,0,1-1,2.32,5.38,5.38,0,0,0-.53,1.51,1.14,1.14,0,0,0,0,.57.8.8,0,0,0,.17.46A2.07,2.07,0,0,0,4,33.44c.56.11,1.22.11,1.71.2S6.53,33.89,6.5,34Z"/></g><g class="cls-5"><path class="cls-2" d="M57.71,9.9C57.6,9.8,58.93,8.21,60,6.46a8.24,8.24,0,0,0,1.19-2.39,2.49,2.49,0,0,0,.05-.78,1.33,1.33,0,0,0,0-.28,2.32,2.32,0,0,0-.05-.27,1.69,1.69,0,0,0-.32-.6,2.05,2.05,0,0,0-.92-.53,7.32,7.32,0,0,0-1.41-.29,10.27,10.27,0,0,0-2.75.07c-.75.12-1.25.26-1.28.18s.42-.35,1.18-.61A8.84,8.84,0,0,1,58.56.53a7.85,7.85,0,0,1,1.6.18,2.91,2.91,0,0,1,1.4.7,2.52,2.52,0,0,1,.64,1,2.31,2.31,0,0,1,.11.42,3.23,3.23,0,0,1,0,.43,3.8,3.8,0,0,1-.16,1.09,8.69,8.69,0,0,1-1.53,2.58A11.86,11.86,0,0,1,57.71,9.9Z"/></g></g></g></g></g></svg>